<?xml version="1.0" encoding="UTF-8" standalone="no"?>
<!DOCTYPE svg PUBLIC "-//W3C//DTD SVG 1.1//EN"
 "http://www.w3.org/Graphics/SVG/1.1/DTD/svg11.dtd">
<!-- Generated by graphviz version 2.38.0 (20140413.2041)
 -->
<!-- Title: ml Pages: 1 -->
<svg width="2095pt" height="304pt"
 viewBox="0.00 0.00 2094.50 304.00" xmlns="http://www.w3.org/2000/svg" xmlns:xlink="http://www.w3.org/1999/xlink">
<g id="graph0" class="graph" transform="scale(1 1) rotate(0) translate(4 300)">
<title>ml</title>
<polygon fill="white" stroke="none" points="-4,4 -4,-300 2090.5,-300 2090.5,4 -4,4"/>
<!-- ndPrecompFuns -->
<g id="node1" class="node"><title>ndPrecompFuns</title>
<g id="a_node1_0"><a xlink:href="https://github.com/Kindelia/HVM/blob/master/src/runtime/base/precomp.rs#:~:text=struct%20PrecompFuns" xlink:title="&lt;TABLE&gt;">
<polygon fill="lightblue" stroke="none" points="9.5,-253.5 9.5,-290.5 130.5,-290.5 130.5,-253.5 9.5,-253.5"/>
<polygon fill="none" stroke="black" points="9.5,-253.5 9.5,-290.5 130.5,-290.5 130.5,-253.5 9.5,-253.5"/>
<text text-anchor="start" x="20.5" y="-269.3" font-family="Arial" font-weight="bold" font-size="14.00">PrecompFuns</text>
<polygon fill="none" stroke="black" points="8,-253 8,-292 131,-292 131,-253 8,-253"/>
</a>
</g>
</g>
<!-- ndPrecomp -->
<g id="node2" class="node"><title>ndPrecomp</title>
<g id="a_node2_1"><a xlink:href="https://github.com/Kindelia/HVM/blob/master/src/runtime/base/precomp.rs#:~:text=struct%20Precomp" xlink:title="&lt;TABLE&gt;">
<polygon fill="lightblue" stroke="none" points="26.5,-170.5 26.5,-207.5 112.5,-207.5 112.5,-170.5 26.5,-170.5"/>
<polygon fill="none" stroke="black" points="26.5,-170.5 26.5,-207.5 112.5,-207.5 112.5,-170.5 26.5,-170.5"/>
<text text-anchor="start" x="37.5" y="-186.3" font-family="Arial" font-weight="bold" font-size="14.00">Precomp</text>
<polygon fill="none" stroke="black" points="25.5,-170 25.5,-209 113.5,-209 113.5,-170 25.5,-170"/>
</a>
</g>
</g>
<!-- ndPrecompFuns&#45;&gt;ndPrecomp -->
<g id="edge1" class="edge"><title>ndPrecompFuns&#45;&gt;ndPrecomp</title>
<path fill="none" stroke="black" d="M69.5,-248.937C69.5,-241.626 69.5,-233.337 69.5,-225.348"/>
<polygon fill="black" stroke="black" points="69.5001,-225.223 65.5,-219.223 69.5,-213.223 73.5,-219.223 69.5001,-225.223"/>
</g>
<!-- ndCore -->
<g id="node3" class="node"><title>ndCore</title>
<g id="a_node3_2"><a xlink:href="https://github.com/Kindelia/HVM/blob/master/src/runtime/base/program.rs#:~:text=enum%20Core" xlink:title="&lt;TABLE&gt;">
<polygon fill="yellow" stroke="none" points="148.5,-170.5 148.5,-207.5 204.5,-207.5 204.5,-170.5 148.5,-170.5"/>
<polygon fill="none" stroke="black" points="148.5,-170.5 148.5,-207.5 204.5,-207.5 204.5,-170.5 148.5,-170.5"/>
<text text-anchor="start" x="159.5" y="-186.3" font-family="Arial" font-weight="bold" font-size="14.00">Core</text>
<polygon fill="none" stroke="black" points="147.5,-170 147.5,-209 205.5,-209 205.5,-170 147.5,-170"/>
</a>
</g>
</g>
<!-- ndRule -->
<g id="node4" class="node"><title>ndRule</title>
<g id="a_node4_3"><a xlink:href="https://github.com/Kindelia/HVM/blob/master/src/language/syntax.rs#:~:text=struct%20Rule" xlink:title="&lt;TABLE&gt;">
<polygon fill="lightblue" stroke="none" points="253.5,-87.5 253.5,-124.5 306.5,-124.5 306.5,-87.5 253.5,-87.5"/>
<polygon fill="none" stroke="black" points="253.5,-87.5 253.5,-124.5 306.5,-124.5 306.5,-87.5 253.5,-87.5"/>
<text text-anchor="start" x="264.5" y="-103.3" font-family="Arial" font-weight="bold" font-size="14.00">Rule</text>
<polygon fill="none" stroke="black" points="252,-87 252,-126 307,-126 307,-87 252,-87"/>
</a>
</g>
</g>
<!-- ndCore&#45;&gt;ndRule -->
<g id="edge2" class="edge"><title>ndCore&#45;&gt;ndRule</title>
<path fill="none" stroke="black" d="M205.191,-165.937C216.259,-157.233 229.088,-147.144 240.94,-137.824"/>
<polygon fill="black" stroke="black" points="241.173,-137.641 243.416,-130.788 250.605,-130.223 248.362,-137.076 241.173,-137.641"/>
</g>
<!-- ndApplyObj -->
<g id="node8" class="node"><title>ndApplyObj</title>
<g id="a_node8_4"><a xlink:href="https://github.com/Kindelia/HVM/blob/master/src/runtime/base/program.rs#:~:text=struct%20ApplyObj" xlink:title="&lt;TABLE&gt;">
<polygon fill="lightblue" stroke="none" points="185.5,-4.5 185.5,-41.5 271.5,-41.5 271.5,-4.5 185.5,-4.5"/>
<polygon fill="none" stroke="black" points="185.5,-4.5 185.5,-41.5 271.5,-41.5 271.5,-4.5 185.5,-4.5"/>
<text text-anchor="start" x="196.5" y="-20.3" font-family="Arial" font-weight="bold" font-size="14.00">ApplyObj</text>
<polygon fill="none" stroke="black" points="184.5,-4 184.5,-43 272.5,-43 272.5,-4 184.5,-4"/>
</a>
</g>
</g>
<!-- ndRule&#45;&gt;ndApplyObj -->
<g id="edge3" class="edge"><title>ndRule&#45;&gt;ndApplyObj</title>
<path fill="none" stroke="black" d="M265.294,-82.937C260.361,-75.1035 254.723,-66.148 249.366,-57.6408"/>
<polygon fill="black" stroke="black" points="249.201,-57.3778 242.619,-54.4316 242.807,-47.2229 249.389,-50.1691 249.201,-57.3778"/>
</g>
<!-- ndFile -->
<g id="node25" class="node"><title>ndFile</title>
<g id="a_node25_5"><a xlink:href="https://github.com/Kindelia/HVM/blob/master/src/language/syntax.rs#:~:text=struct%20File" xlink:title="&lt;TABLE&gt;">
<polygon fill="lightblue" stroke="none" points="308.5,-4.5 308.5,-41.5 355.5,-41.5 355.5,-4.5 308.5,-4.5"/>
<polygon fill="none" stroke="black" points="308.5,-4.5 308.5,-41.5 355.5,-41.5 355.5,-4.5 308.5,-4.5"/>
<text text-anchor="start" x="319.5" y="-20.3" font-family="Arial" font-weight="bold" font-size="14.00">File</text>
<polygon fill="none" stroke="black" points="307,-4 307,-43 356,-43 356,-4 307,-4"/>
</a>
</g>
</g>
<!-- ndRule&#45;&gt;ndFile -->
<g id="edge4" class="edge"><title>ndRule&#45;&gt;ndFile</title>
<path fill="none" stroke="black" d="M293.985,-82.937C299.07,-75.0164 304.891,-65.9488 310.406,-57.3574"/>
<polygon fill="black" stroke="black" points="310.43,-57.3212 310.305,-50.1111 316.912,-47.2229 317.037,-54.433 310.43,-57.3212"/>
</g>
<!-- ndRuleVar -->
<g id="node5" class="node"><title>ndRuleVar</title>
<g id="a_node5_6"><a xlink:href="https://github.com/Kindelia/HVM/blob/master/src/runtime/base/program.rs#:~:text=struct%20RuleVar" xlink:title="&lt;TABLE&gt;">
<polygon fill="lightblue" stroke="none" points="241.5,-170.5 241.5,-207.5 318.5,-207.5 318.5,-170.5 241.5,-170.5"/>
<polygon fill="none" stroke="black" points="241.5,-170.5 241.5,-207.5 318.5,-207.5 318.5,-170.5 241.5,-170.5"/>
<text text-anchor="start" x="252.5" y="-186.3" font-family="Arial" font-weight="bold" font-size="14.00">RuleVar</text>
<polygon fill="none" stroke="black" points="240,-170 240,-209 319,-209 319,-170 240,-170"/>
</a>
</g>
</g>
<!-- ndRuleVar&#45;&gt;ndRule -->
<g id="edge5" class="edge"><title>ndRuleVar&#45;&gt;ndRule</title>
<path fill="none" stroke="black" d="M279.5,-165.937C279.5,-158.626 279.5,-150.337 279.5,-142.348"/>
<polygon fill="black" stroke="black" points="279.5,-142.223 275.5,-136.223 279.5,-130.223 283.5,-136.223 279.5,-142.223"/>
</g>
<!-- ndRuleBodyCell -->
<g id="node6" class="node"><title>ndRuleBodyCell</title>
<g id="a_node6_7"><a xlink:href="https://github.com/Kindelia/HVM/blob/master/src/runtime/base/program.rs#:~:text=enum%20RuleBodyCell" xlink:title="&lt;TABLE&gt;">
<polygon fill="yellow" stroke="none" points="963.5,-253.5 963.5,-290.5 1079.5,-290.5 1079.5,-253.5 963.5,-253.5"/>
<polygon fill="none" stroke="black" points="963.5,-253.5 963.5,-290.5 1079.5,-290.5 1079.5,-253.5 963.5,-253.5"/>
<text text-anchor="start" x="974.5" y="-269.3" font-family="Arial" font-weight="bold" font-size="14.00">RuleBodyCell</text>
<polygon fill="none" stroke="black" points="962.5,-253 962.5,-292 1080.5,-292 1080.5,-253 962.5,-253"/>
</a>
</g>
</g>
<!-- ndVisitObj -->
<g id="node7" class="node"><title>ndVisitObj</title>
<g id="a_node7_8"><a xlink:href="https://github.com/Kindelia/HVM/blob/master/src/runtime/base/program.rs#:~:text=struct%20VisitObj" xlink:title="&lt;TABLE&gt;">
<polygon fill="lightblue" stroke="none" points="1116.5,-253.5 1116.5,-290.5 1193.5,-290.5 1193.5,-253.5 1116.5,-253.5"/>
<polygon fill="none" stroke="black" points="1116.5,-253.5 1116.5,-290.5 1193.5,-290.5 1193.5,-253.5 1116.5,-253.5"/>
<text text-anchor="start" x="1127.5" y="-269.3" font-family="Arial" font-weight="bold" font-size="14.00">VisitObj</text>
<polygon fill="none" stroke="black" points="1115,-253 1115,-292 1194,-292 1194,-253 1115,-253"/>
</a>
</g>
</g>
<!-- ndFunction -->
<g id="node9" class="node"><title>ndFunction</title>
<g id="a_node9_9"><a xlink:href="https://github.com/Kindelia/HVM/blob/master/src/runtime/base/program.rs#:~:text=enum%20Function" xlink:title="&lt;TABLE&gt;">
<polygon fill="yellow" stroke="none" points="325.5,-253.5 325.5,-290.5 409.5,-290.5 409.5,-253.5 325.5,-253.5"/>
<polygon fill="none" stroke="black" points="325.5,-253.5 325.5,-290.5 409.5,-290.5 409.5,-253.5 325.5,-253.5"/>
<text text-anchor="start" x="336.5" y="-269.3" font-family="Arial" font-weight="bold" font-size="14.00">Function</text>
<polygon fill="none" stroke="black" points="324.5,-253 324.5,-292 410.5,-292 410.5,-253 324.5,-253"/>
</a>
</g>
</g>
<!-- ndProgram -->
<g id="node10" class="node"><title>ndProgram</title>
<g id="a_node10_10"><a xlink:href="https://github.com/Kindelia/HVM/blob/master/src/runtime/base/program.rs#:~:text=struct%20Program" xlink:title="&lt;TABLE&gt;">
<polygon fill="lightblue" stroke="none" points="449.5,-170.5 449.5,-207.5 532.5,-207.5 532.5,-170.5 449.5,-170.5"/>
<polygon fill="none" stroke="black" points="449.5,-170.5 449.5,-207.5 532.5,-207.5 532.5,-170.5 449.5,-170.5"/>
<text text-anchor="start" x="460.5" y="-186.3" font-family="Arial" font-weight="bold" font-size="14.00">Program</text>
<polygon fill="none" stroke="black" points="448,-170 448,-209 533,-209 533,-170 448,-170"/>
</a>
</g>
</g>
<!-- ndFunction&#45;&gt;ndProgram -->
<g id="edge6" class="edge"><title>ndFunction&#45;&gt;ndProgram</title>
<path fill="none" stroke="black" stroke-dasharray="5,2" d="M401.762,-248.937C415.905,-239.624 432.455,-228.725 447.407,-218.879"/>
<polygon fill="black" stroke="black" points="455.995,-213.223 450.118,-222.481 451.819,-215.973 447.643,-218.723 447.643,-218.723 447.643,-218.723 451.819,-215.973 445.168,-214.965 455.995,-213.223 455.995,-213.223"/>
</g>
<!-- ndRuntime -->
<g id="node20" class="node"><title>ndRuntime</title>
<g id="a_node20_11"><a xlink:href="https://github.com/Kindelia/HVM/blob/master/src/runtime/mod.rs#:~:text=struct%20Runtime" xlink:title="&lt;TABLE&gt;">
<polygon fill="lightblue" stroke="none" points="450.5,-87.5 450.5,-124.5 530.5,-124.5 530.5,-87.5 450.5,-87.5"/>
<polygon fill="none" stroke="black" points="450.5,-87.5 450.5,-124.5 530.5,-124.5 530.5,-87.5 450.5,-87.5"/>
<text text-anchor="start" x="461.5" y="-103.3" font-family="Arial" font-weight="bold" font-size="14.00">Runtime</text>
<polygon fill="none" stroke="black" points="449.5,-87 449.5,-126 531.5,-126 531.5,-87 449.5,-87"/>
</a>
</g>
</g>
<!-- ndProgram&#45;&gt;ndRuntime -->
<g id="edge7" class="edge"><title>ndProgram&#45;&gt;ndRuntime</title>
<path fill="none" stroke="black" d="M490.5,-165.937C490.5,-158.626 490.5,-150.337 490.5,-142.348"/>
<polygon fill="black" stroke="black" points="490.5,-142.223 486.5,-136.223 490.5,-130.223 494.5,-136.223 490.5,-142.223"/>
</g>
<!-- ndReduceCtx -->
<g id="node11" class="node"><title>ndReduceCtx</title>
<g id="a_node11_12"><a xlink:href="https://github.com/Kindelia/HVM/blob/master/src/runtime/base/reducer.rs#:~:text=struct%20ReduceCtx" xlink:title="&lt;TABLE&gt;">
<polygon fill="lightblue" stroke="none" points="1229.5,-253.5 1229.5,-290.5 1327.5,-290.5 1327.5,-253.5 1229.5,-253.5"/>
<polygon fill="none" stroke="black" points="1229.5,-253.5 1229.5,-290.5 1327.5,-290.5 1327.5,-253.5 1229.5,-253.5"/>
<text text-anchor="start" x="1240.5" y="-269.3" font-family="Arial" font-weight="bold" font-size="14.00">ReduceCtx</text>
<polygon fill="none" stroke="black" points="1228.5,-253 1228.5,-292 1328.5,-292 1328.5,-253 1228.5,-253"/>
</a>
</g>
</g>
<!-- ndLocalVars -->
<g id="node12" class="node"><title>ndLocalVars</title>
<g id="a_node12_13"><a xlink:href="https://github.com/Kindelia/HVM/blob/master/src/runtime/base/memory.rs#:~:text=struct%20LocalVars" xlink:title="&lt;TABLE&gt;">
<polygon fill="lightblue" stroke="none" points="571.5,-253.5 571.5,-290.5 663.5,-290.5 663.5,-253.5 571.5,-253.5"/>
<polygon fill="none" stroke="black" points="571.5,-253.5 571.5,-290.5 663.5,-290.5 663.5,-253.5 571.5,-253.5"/>
<text text-anchor="start" x="582.5" y="-269.3" font-family="Arial" font-weight="bold" font-size="14.00">LocalVars</text>
<polygon fill="none" stroke="black" points="570.5,-253 570.5,-292 664.5,-292 664.5,-253 570.5,-253"/>
</a>
</g>
</g>
<!-- ndHeap -->
<g id="node13" class="node"><title>ndHeap</title>
<g id="a_node13_14"><a xlink:href="https://github.com/Kindelia/HVM/blob/master/src/runtime/base/memory.rs#:~:text=struct%20Heap" xlink:title="&lt;TABLE&gt;">
<polygon fill="lightblue" stroke="none" points="653.5,-170.5 653.5,-207.5 711.5,-207.5 711.5,-170.5 653.5,-170.5"/>
<polygon fill="none" stroke="black" points="653.5,-170.5 653.5,-207.5 711.5,-207.5 711.5,-170.5 653.5,-170.5"/>
<text text-anchor="start" x="664.5" y="-186.3" font-family="Arial" font-weight="bold" font-size="14.00">Heap</text>
<polygon fill="none" stroke="black" points="652.5,-170 652.5,-209 712.5,-209 712.5,-170 652.5,-170"/>
</a>
</g>
</g>
<!-- ndLocalVars&#45;&gt;ndHeap -->
<g id="edge8" class="edge"><title>ndLocalVars&#45;&gt;ndHeap</title>
<path fill="none" stroke="black" d="M635.606,-248.937C642.102,-240.842 649.559,-231.55 656.587,-222.792"/>
<polygon fill="black" stroke="black" points="656.755,-222.582 657.391,-215.399 664.266,-213.223 663.63,-220.406 656.755,-222.582"/>
</g>
<!-- ndHeap&#45;&gt;ndRuntime -->
<g id="edge9" class="edge"><title>ndHeap&#45;&gt;ndRuntime</title>
<path fill="none" stroke="black" d="M644.107,-172.303C617.519,-161.086 581.575,-145.922 551.142,-133.083"/>
<polygon fill="black" stroke="black" points="550.836,-132.954 543.753,-134.307 539.779,-128.29 546.862,-126.936 550.836,-132.954"/>
</g>
<!-- ndRedexBag -->
<g id="node14" class="node"><title>ndRedexBag</title>
<g id="a_node14_15"><a xlink:href="https://github.com/Kindelia/HVM/blob/master/src/runtime/data/redex_bag.rs#:~:text=struct%20RedexBag" xlink:title="&lt;TABLE&gt;">
<polygon fill="lightblue" stroke="none" points="699.5,-253.5 699.5,-290.5 793.5,-290.5 793.5,-253.5 699.5,-253.5"/>
<polygon fill="none" stroke="black" points="699.5,-253.5 699.5,-290.5 793.5,-290.5 793.5,-253.5 699.5,-253.5"/>
<text text-anchor="start" x="710.5" y="-269.3" font-family="Arial" font-weight="bold" font-size="14.00">RedexBag</text>
<polygon fill="none" stroke="black" points="698.5,-253 698.5,-292 794.5,-292 794.5,-253 698.5,-253"/>
</a>
</g>
</g>
<!-- ndRedexBag&#45;&gt;ndHeap -->
<g id="edge10" class="edge"><title>ndRedexBag&#45;&gt;ndHeap</title>
<path fill="none" stroke="black" d="M728.672,-248.937C722.277,-240.842 714.934,-231.55 708.014,-222.792"/>
<polygon fill="black" stroke="black" points="707.893,-222.639 701.035,-220.411 700.454,-213.223 707.312,-215.451 707.893,-222.639"/>
</g>
<!-- ndVisitQueue -->
<g id="node15" class="node"><title>ndVisitQueue</title>
<g id="a_node15_16"><a xlink:href="https://github.com/Kindelia/HVM/blob/master/src/runtime/data/visit_queue.rs#:~:text=struct%20VisitQueue" xlink:title="&lt;TABLE&gt;">
<polygon fill="lightblue" stroke="none" points="829.5,-253.5 829.5,-290.5 927.5,-290.5 927.5,-253.5 829.5,-253.5"/>
<polygon fill="none" stroke="black" points="829.5,-253.5 829.5,-290.5 927.5,-290.5 927.5,-253.5 829.5,-253.5"/>
<text text-anchor="start" x="840.5" y="-269.3" font-family="Arial" font-weight="bold" font-size="14.00">VisitQueue</text>
<polygon fill="none" stroke="black" points="828.5,-253 828.5,-292 928.5,-292 928.5,-253 828.5,-253"/>
</a>
</g>
</g>
<!-- ndVisitQueue&#45;&gt;ndHeap -->
<g id="edge11" class="edge"><title>ndVisitQueue&#45;&gt;ndHeap</title>
<path fill="none" stroke="black" d="M823.903,-248.937C795.032,-237.006 759.863,-222.472 731.822,-210.883"/>
<polygon fill="black" stroke="black" points="731.763,-210.859 724.69,-212.264 720.672,-206.275 727.745,-204.87 731.763,-210.859"/>
</g>
<!-- ndU64Map -->
<g id="node16" class="node"><title>ndU64Map</title>
<g id="a_node16_17"><a xlink:href="https://github.com/Kindelia/HVM/blob/master/src/runtime/data/u64_map.rs#:~:text=struct%20U64Map" xlink:title="&lt;TABLE&gt;">
<polygon fill="lightblue" stroke="none" points="1363.5,-253.5 1363.5,-290.5 1442.5,-290.5 1442.5,-253.5 1363.5,-253.5"/>
<polygon fill="none" stroke="black" points="1363.5,-253.5 1363.5,-290.5 1442.5,-290.5 1442.5,-253.5 1363.5,-253.5"/>
<text text-anchor="start" x="1374.5" y="-269.3" font-family="Arial" font-weight="bold" font-size="14.00">U64Map</text>
<polygon fill="none" stroke="black" points="1362,-253 1362,-292 1443,-292 1443,-253 1362,-253"/>
</a>
</g>
</g>
<!-- ndAllocatorNext -->
<g id="node17" class="node"><title>ndAllocatorNext</title>
<g id="a_node17_18"><a xlink:href="https://github.com/Kindelia/HVM/blob/master/src/runtime/data/allocator.rs#:~:text=struct%20AllocatorNext" xlink:title="&lt;TABLE&gt;">
<polygon fill="lightblue" stroke="none" points="1478.5,-253.5 1478.5,-290.5 1594.5,-290.5 1594.5,-253.5 1478.5,-253.5"/>
<polygon fill="none" stroke="black" points="1478.5,-253.5 1478.5,-290.5 1594.5,-290.5 1594.5,-253.5 1478.5,-253.5"/>
<text text-anchor="start" x="1489.5" y="-269.3" font-family="Arial" font-weight="bold" font-size="14.00">AllocatorNext</text>
<polygon fill="none" stroke="black" points="1477.5,-253 1477.5,-292 1595.5,-292 1595.5,-253 1477.5,-253"/>
</a>
</g>
</g>
<!-- ndAllocator -->
<g id="node18" class="node"><title>ndAllocator</title>
<g id="a_node18_19"><a xlink:href="https://github.com/Kindelia/HVM/blob/master/src/runtime/data/allocator.rs#:~:text=struct%20Allocator" xlink:title="&lt;TABLE&gt;">
<polygon fill="lightblue" stroke="none" points="1494.5,-170.5 1494.5,-207.5 1579.5,-207.5 1579.5,-170.5 1494.5,-170.5"/>
<polygon fill="none" stroke="black" points="1494.5,-170.5 1494.5,-207.5 1579.5,-207.5 1579.5,-170.5 1494.5,-170.5"/>
<text text-anchor="start" x="1505.5" y="-186.3" font-family="Arial" font-weight="bold" font-size="14.00">Allocator</text>
<polygon fill="none" stroke="black" points="1493,-170 1493,-209 1580,-209 1580,-170 1493,-170"/>
</a>
</g>
</g>
<!-- ndAllocatorNext&#45;&gt;ndAllocator -->
<g id="edge12" class="edge"><title>ndAllocatorNext&#45;&gt;ndAllocator</title>
<path fill="none" stroke="black" d="M1536.5,-248.937C1536.5,-241.626 1536.5,-233.337 1536.5,-225.348"/>
<polygon fill="black" stroke="black" points="1536.5,-225.223 1532.5,-219.223 1536.5,-213.223 1540.5,-219.223 1536.5,-225.223"/>
</g>
<!-- ndBarrier -->
<g id="node19" class="node"><title>ndBarrier</title>
<g id="a_node19_20"><a xlink:href="https://github.com/Kindelia/HVM/blob/master/src/runtime/data/barrier.rs#:~:text=struct%20Barrier" xlink:title="&lt;TABLE&gt;">
<polygon fill="lightblue" stroke="none" points="1631.5,-253.5 1631.5,-290.5 1702.5,-290.5 1702.5,-253.5 1631.5,-253.5"/>
<polygon fill="none" stroke="black" points="1631.5,-253.5 1631.5,-290.5 1702.5,-290.5 1702.5,-253.5 1631.5,-253.5"/>
<text text-anchor="start" x="1642.5" y="-269.3" font-family="Arial" font-weight="bold" font-size="14.00">Barrier</text>
<polygon fill="none" stroke="black" points="1630,-253 1630,-292 1703,-292 1703,-253 1630,-253"/>
</a>
</g>
</g>
<!-- ndRuleBook -->
<g id="node21" class="node"><title>ndRuleBook</title>
<g id="a_node21_21"><a xlink:href="https://github.com/Kindelia/HVM/blob/master/src/language/rulebook.rs#:~:text=struct%20RuleBook" xlink:title="&lt;TABLE&gt;">
<polygon fill="lightblue" stroke="none" points="445.5,-253.5 445.5,-290.5 535.5,-290.5 535.5,-253.5 445.5,-253.5"/>
<polygon fill="none" stroke="black" points="445.5,-253.5 445.5,-290.5 535.5,-290.5 535.5,-253.5 445.5,-253.5"/>
<text text-anchor="start" x="456.5" y="-269.3" font-family="Arial" font-weight="bold" font-size="14.00">RuleBook</text>
<polygon fill="none" stroke="black" points="444.5,-253 444.5,-292 536.5,-292 536.5,-253 444.5,-253"/>
</a>
</g>
</g>
<!-- ndRuleBook&#45;&gt;ndProgram -->
<g id="edge13" class="edge"><title>ndRuleBook&#45;&gt;ndProgram</title>
<path fill="none" stroke="black" stroke-dasharray="5,2" d="M490.5,-248.937C490.5,-241.016 490.5,-231.949 490.5,-223.357"/>
<polygon fill="black" stroke="black" points="490.5,-213.223 495,-223.223 490.5,-218.223 490.5,-223.223 490.5,-223.223 490.5,-223.223 490.5,-218.223 486,-223.223 490.5,-213.223 490.5,-213.223"/>
</g>
<!-- ndSanitizedRule -->
<g id="node22" class="node"><title>ndSanitizedRule</title>
<g id="a_node22_22"><a xlink:href="https://github.com/Kindelia/HVM/blob/master/src/language/rulebook.rs#:~:text=struct%20SanitizedRule" xlink:title="&lt;TABLE&gt;">
<polygon fill="lightblue" stroke="none" points="1738.5,-253.5 1738.5,-290.5 1855.5,-290.5 1855.5,-253.5 1738.5,-253.5"/>
<polygon fill="none" stroke="black" points="1738.5,-253.5 1738.5,-290.5 1855.5,-290.5 1855.5,-253.5 1738.5,-253.5"/>
<text text-anchor="start" x="1749.5" y="-269.3" font-family="Arial" font-weight="bold" font-size="14.00">SanitizedRule</text>
<polygon fill="none" stroke="black" points="1737,-253 1737,-292 1856,-292 1856,-253 1737,-253"/>
</a>
</g>
</g>
<!-- ndTerm -->
<g id="node23" class="node"><title>ndTerm</title>
<g id="a_node23_23"><a xlink:href="https://github.com/Kindelia/HVM/blob/master/src/language/syntax.rs#:~:text=enum%20Term" xlink:title="&lt;TABLE&gt;">
<polygon fill="yellow" stroke="none" points="354.5,-170.5 354.5,-207.5 413.5,-207.5 413.5,-170.5 354.5,-170.5"/>
<polygon fill="none" stroke="black" points="354.5,-170.5 354.5,-207.5 413.5,-207.5 413.5,-170.5 354.5,-170.5"/>
<text text-anchor="start" x="365.5" y="-186.3" font-family="Arial" font-weight="bold" font-size="14.00">Term</text>
<polygon fill="none" stroke="black" points="353,-170 353,-209 414,-209 414,-170 353,-170"/>
</a>
</g>
</g>
<!-- ndTerm&#45;&gt;ndRule -->
<g id="edge15" class="edge"><title>ndTerm&#45;&gt;ndRule</title>
<path fill="none" stroke="black" d="M354.53,-165.937C343.355,-157.233 330.401,-147.144 318.434,-137.824"/>
<polygon fill="black" stroke="black" points="318.142,-137.597 310.951,-137.066 308.675,-130.223 315.867,-130.754 318.142,-137.597"/>
</g>
<!-- ndTerm&#45;&gt;ndRuntime -->
<g id="edge14" class="edge"><title>ndTerm&#45;&gt;ndRuntime</title>
<path fill="none" stroke="black" stroke-dasharray="5,2" d="M413.305,-165.937C425.378,-156.798 439.468,-146.132 452.281,-136.432"/>
<polygon fill="black" stroke="black" points="460.483,-130.223 455.226,-139.847 456.497,-133.241 452.51,-136.259 452.51,-136.259 452.51,-136.259 456.497,-133.241 449.794,-132.671 460.483,-130.223 460.483,-130.223"/>
</g>
<!-- ndOper -->
<g id="node24" class="node"><title>ndOper</title>
<g id="a_node24_24"><a xlink:href="https://github.com/Kindelia/HVM/blob/master/src/language/syntax.rs#:~:text=enum%20Oper" xlink:title="&lt;TABLE&gt;">
<polygon fill="yellow" stroke="none" points="1891.5,-253.5 1891.5,-290.5 1948.5,-290.5 1948.5,-253.5 1891.5,-253.5"/>
<polygon fill="none" stroke="black" points="1891.5,-253.5 1891.5,-290.5 1948.5,-290.5 1948.5,-253.5 1891.5,-253.5"/>
<text text-anchor="start" x="1902.5" y="-269.3" font-family="Arial" font-weight="bold" font-size="14.00">Oper</text>
<polygon fill="none" stroke="black" points="1890,-253 1890,-292 1949,-292 1949,-253 1890,-253"/>
</a>
</g>
</g>
<!-- ndCli -->
<g id="node26" class="node"><title>ndCli</title>
<g id="a_node26_25"><a xlink:href="https://github.com/Kindelia/HVM/blob/master/src/main.rs#:~:text=struct%20Cli" xlink:title="&lt;TABLE&gt;">
<polygon fill="lightblue" stroke="none" points="2010.5,-170.5 2010.5,-207.5 2051.5,-207.5 2051.5,-170.5 2010.5,-170.5"/>
<polygon fill="none" stroke="black" points="2010.5,-170.5 2010.5,-207.5 2051.5,-207.5 2051.5,-170.5 2010.5,-170.5"/>
<text text-anchor="start" x="2021.5" y="-186.3" font-family="Arial" font-weight="bold" font-size="14.00">Cli</text>
<polygon fill="none" stroke="black" points="2009,-170 2009,-209 2052,-209 2052,-170 2009,-170"/>
</a>
</g>
</g>
<!-- ndCommand -->
<g id="node27" class="node"><title>ndCommand</title>
<g id="a_node27_26"><a xlink:href="https://github.com/Kindelia/HVM/blob/master/src/main.rs#:~:text=enum%20Command" xlink:title="&lt;TABLE&gt;">
<polygon fill="yellow" stroke="none" points="1983.5,-253.5 1983.5,-290.5 2077.5,-290.5 2077.5,-253.5 1983.5,-253.5"/>
<polygon fill="none" stroke="black" points="1983.5,-253.5 1983.5,-290.5 2077.5,-290.5 2077.5,-253.5 1983.5,-253.5"/>
<text text-anchor="start" x="1994.5" y="-269.3" font-family="Arial" font-weight="bold" font-size="14.00">Command</text>
<polygon fill="none" stroke="black" points="1982.5,-253 1982.5,-292 2078.5,-292 2078.5,-253 1982.5,-253"/>
</a>
</g>
</g>
<!-- ndCommand&#45;&gt;ndCli -->
<g id="edge16" class="edge"><title>ndCommand&#45;&gt;ndCli</title>
<path fill="none" stroke="black" d="M2030.5,-248.937C2030.5,-241.626 2030.5,-233.337 2030.5,-225.348"/>
<polygon fill="black" stroke="black" points="2030.5,-225.223 2026.5,-219.223 2030.5,-213.223 2034.5,-219.223 2030.5,-225.223"/>
</g>
</g>
</svg>
