<?xml version="1.0" encoding="UTF-8" standalone="no"?>
<!DOCTYPE svg PUBLIC "-//W3C//DTD SVG 1.1//EN"
 "http://www.w3.org/Graphics/SVG/1.1/DTD/svg11.dtd">
<!-- Generated by graphviz version 2.38.0 (20140413.2041)
 -->
<!-- Title: ml Pages: 1 -->
<svg width="3337pt" height="917pt"
 viewBox="0.00 0.00 3336.50 917.00" xmlns="http://www.w3.org/2000/svg" xmlns:xlink="http://www.w3.org/1999/xlink">
<g id="graph0" class="graph" transform="scale(1 1) rotate(0) translate(4 913)">
<title>ml</title>
<polygon fill="white" stroke="none" points="-4,4 -4,-913 3332.5,-913 3332.5,4 -4,4"/>
<!-- ndPrecompFuns -->
<g id="node1" class="node"><title>ndPrecompFuns</title>
<g id="a_node1_0"><a xlink:href="https://github.com/Kindelia/HVM/blob/master/src/runtime/base/precomp.rs#:~:text=struct%20PrecompFuns" xlink:title="&lt;TABLE&gt;">
<polygon fill="lightblue" stroke="none" points="51,-761.5 51,-798.5 186,-798.5 186,-761.5 51,-761.5"/>
<polygon fill="none" stroke="black" points="51,-761.5 51,-798.5 186,-798.5 186,-761.5 51,-761.5"/>
<text text-anchor="start" x="69" y="-777.3" font-family="Arial" font-weight="bold" font-size="14.00">PrecompFuns</text>
<polygon fill="white" stroke="none" points="51,-709.5 51,-761.5 186,-761.5 186,-709.5 51,-709.5"/>
<polygon fill="none" stroke="black" points="51,-709.5 51,-761.5 186,-761.5 186,-709.5 51,-709.5"/>
<text text-anchor="start" x="62" y="-739.3" font-family="Arial" font-size="14.00">+ visit: VisitFun</text>
<text text-anchor="start" x="62" y="-724.3" font-family="Arial" font-size="14.00">+ apply: ApplyFun</text>
<polygon fill="none" stroke="black" points="49.5,-709 49.5,-800 186.5,-800 186.5,-709 49.5,-709"/>
</a>
</g>
</g>
<!-- ndPrecomp -->
<g id="node2" class="node"><title>ndPrecomp</title>
<g id="a_node2_1"><a xlink:href="https://github.com/Kindelia/HVM/blob/master/src/runtime/base/precomp.rs#:~:text=struct%20Precomp" xlink:title="&lt;TABLE&gt;">
<polygon fill="lightblue" stroke="none" points="9,-461.5 9,-498.5 227,-498.5 227,-461.5 9,-461.5"/>
<polygon fill="none" stroke="black" points="9,-461.5 9,-498.5 227,-498.5 227,-461.5 9,-461.5"/>
<text text-anchor="start" x="86" y="-477.3" font-family="Arial" font-weight="bold" font-size="14.00">Precomp</text>
<polygon fill="white" stroke="none" points="9,-379.5 9,-461.5 227,-461.5 227,-379.5 9,-379.5"/>
<polygon fill="none" stroke="black" points="9,-379.5 9,-461.5 227,-461.5 227,-379.5 9,-379.5"/>
<text text-anchor="start" x="20" y="-439.3" font-family="Arial" font-size="14.00">+ id: u64</text>
<text text-anchor="start" x="20" y="-424.3" font-family="Arial" font-size="14.00">+ name: &amp;&#39;static str</text>
<text text-anchor="start" x="20" y="-409.3" font-family="Arial" font-size="14.00">+ smap: &amp;&#39;static [bool]</text>
<text text-anchor="start" x="20" y="-394.3" font-family="Arial" font-size="14.00">+ funs: Option&lt;PrecompFuns&gt;</text>
<polygon fill="none" stroke="black" points="8,-379 8,-500 228,-500 228,-379 8,-379"/>
</a>
</g>
</g>
<!-- ndPrecompFuns&#45;&gt;ndPrecomp -->
<g id="edge1" class="edge"><title>ndPrecompFuns&#45;&gt;ndPrecomp</title>
<path fill="none" stroke="black" d="M118,-704.937C118,-654.52 118,-574.964 118,-516.27"/>
<polygon fill="black" stroke="black" points="118,-516.08 114,-510.08 118,-504.08 122,-510.08 118,-516.08"/>
</g>
<!-- ndCore -->
<g id="node3" class="node"><title>ndCore</title>
<g id="a_node3_2"><a xlink:href="https://github.com/Kindelia/HVM/blob/master/src/runtime/base/program.rs#:~:text=enum%20Core" xlink:title="&lt;TABLE&gt;">
<polygon fill="yellow" stroke="none" points="263,-521.5 263,-558.5 319,-558.5 319,-521.5 263,-521.5"/>
<polygon fill="none" stroke="black" points="263,-521.5 263,-558.5 319,-558.5 319,-521.5 263,-521.5"/>
<text text-anchor="start" x="274" y="-537.3" font-family="Arial" font-weight="bold" font-size="14.00">Core</text>
<polygon fill="white" stroke="none" points="263,-319.5 263,-521.5 319,-521.5 319,-319.5 263,-319.5"/>
<polygon fill="none" stroke="black" points="263,-319.5 263,-521.5 319,-521.5 319,-319.5 263,-319.5"/>
<text text-anchor="start" x="274" y="-499.3" font-family="Arial" font-size="14.00">Var</text>
<text text-anchor="start" x="274" y="-484.3" font-family="Arial" font-size="14.00">Glo</text>
<text text-anchor="start" x="274" y="-469.3" font-family="Arial" font-size="14.00">Dup</text>
<text text-anchor="start" x="274" y="-454.3" font-family="Arial" font-size="14.00">Sup</text>
<text text-anchor="start" x="274" y="-439.3" font-family="Arial" font-size="14.00">Let</text>
<text text-anchor="start" x="274" y="-424.3" font-family="Arial" font-size="14.00">Lam</text>
<text text-anchor="start" x="274" y="-409.3" font-family="Arial" font-size="14.00">App</text>
<text text-anchor="start" x="274" y="-394.3" font-family="Arial" font-size="14.00">Fun</text>
<text text-anchor="start" x="274" y="-379.3" font-family="Arial" font-size="14.00">Ctr</text>
<text text-anchor="start" x="274" y="-364.3" font-family="Arial" font-size="14.00">U6O</text>
<text text-anchor="start" x="274" y="-349.3" font-family="Arial" font-size="14.00">F6O</text>
<text text-anchor="start" x="274" y="-334.3" font-family="Arial" font-size="14.00">Op2</text>
<polygon fill="none" stroke="black" points="262,-319 262,-560 320,-560 320,-319 262,-319"/>
</a>
</g>
</g>
<!-- ndRule -->
<g id="node4" class="node"><title>ndRule</title>
<g id="a_node4_3"><a xlink:href="https://github.com/Kindelia/HVM/blob/master/src/language/syntax.rs#:~:text=struct%20Rule" xlink:title="&lt;TABLE&gt;">
<polygon fill="lightblue" stroke="none" points="364,-214 364,-251 499,-251 499,-214 364,-214"/>
<polygon fill="none" stroke="black" points="364,-214 364,-251 499,-251 499,-214 364,-214"/>
<text text-anchor="start" x="416" y="-229.8" font-family="Arial" font-weight="bold" font-size="14.00">Rule</text>
<polygon fill="white" stroke="none" points="364,-162 364,-214 499,-214 499,-162 364,-162"/>
<polygon fill="none" stroke="black" points="364,-162 364,-214 499,-214 499,-162 364,-162"/>
<text text-anchor="start" x="375" y="-191.8" font-family="Arial" font-size="14.00">+ lhs: Box&lt;Term&gt;</text>
<text text-anchor="start" x="375" y="-176.8" font-family="Arial" font-size="14.00">+ rhs: Box&lt;Term&gt;</text>
<polygon fill="none" stroke="black" points="362.5,-161.5 362.5,-252.5 499.5,-252.5 499.5,-161.5 362.5,-161.5"/>
</a>
</g>
</g>
<!-- ndCore&#45;&gt;ndRule -->
<g id="edge2" class="edge"><title>ndCore&#45;&gt;ndRule</title>
<path fill="none" stroke="black" d="M328.124,-331.245C330.93,-325.655 333.89,-320.205 337,-315 347.19,-297.95 360.24,-281.065 373.352,-265.92"/>
<polygon fill="black" stroke="black" points="373.539,-265.709 374.526,-258.566 381.499,-256.729 380.512,-263.873 373.539,-265.709"/>
</g>
<!-- ndApplyObj -->
<g id="node8" class="node"><title>ndApplyObj</title>
<g id="a_node8_4"><a xlink:href="https://github.com/Kindelia/HVM/blob/master/src/runtime/base/program.rs#:~:text=struct%20ApplyObj" xlink:title="&lt;TABLE&gt;">
<polygon fill="lightblue" stroke="none" points="266,-49.5 266,-86.5 409,-86.5 409,-49.5 266,-49.5"/>
<polygon fill="none" stroke="black" points="266,-49.5 266,-86.5 409,-86.5 409,-49.5 266,-49.5"/>
<text text-anchor="start" x="305.5" y="-65.3" font-family="Arial" font-weight="bold" font-size="14.00">ApplyObj</text>
<polygon fill="white" stroke="none" points="266,-12.5 266,-49.5 409,-49.5 409,-12.5 266,-12.5"/>
<polygon fill="none" stroke="black" points="266,-12.5 266,-49.5 409,-49.5 409,-12.5 266,-12.5"/>
<text text-anchor="start" x="277" y="-27.3" font-family="Arial" font-size="14.00">+ rules: Vec&lt;Rule&gt;</text>
<polygon fill="none" stroke="black" points="264.5,-11.5 264.5,-87.5 409.5,-87.5 409.5,-11.5 264.5,-11.5"/>
</a>
</g>
</g>
<!-- ndRule&#45;&gt;ndApplyObj -->
<g id="edge3" class="edge"><title>ndRule&#45;&gt;ndApplyObj</title>
<path fill="none" stroke="black" d="M401.516,-157.225C390.899,-139.662 378.89,-119.796 368.136,-102.007"/>
<polygon fill="black" stroke="black" points="368.007,-101.793 361.48,-98.7275 361.799,-91.5234 368.326,-94.5888 368.007,-101.793"/>
</g>
<!-- ndFile -->
<g id="node25" class="node"><title>ndFile</title>
<g id="a_node25_5"><a xlink:href="https://github.com/Kindelia/HVM/blob/master/src/language/syntax.rs#:~:text=struct%20File" xlink:title="&lt;TABLE&gt;">
<polygon fill="lightblue" stroke="none" points="445,-56.5 445,-93.5 608,-93.5 608,-56.5 445,-56.5"/>
<polygon fill="none" stroke="black" points="445,-56.5 445,-93.5 608,-93.5 608,-56.5 445,-56.5"/>
<text text-anchor="start" x="514" y="-72.3" font-family="Arial" font-weight="bold" font-size="14.00">File</text>
<polygon fill="white" stroke="none" points="445,-4.5 445,-56.5 608,-56.5 608,-4.5 445,-4.5"/>
<polygon fill="none" stroke="black" points="445,-4.5 445,-56.5 608,-56.5 608,-4.5 445,-4.5"/>
<text text-anchor="start" x="456" y="-34.3" font-family="Arial" font-size="14.00">+ rules: Vec&lt;Rule&gt;</text>
<text text-anchor="start" x="456" y="-19.3" font-family="Arial" font-size="14.00">+ smaps: Vec&lt;SMap&gt;</text>
<polygon fill="none" stroke="black" points="443.5,-4 443.5,-95 608.5,-95 608.5,-4 443.5,-4"/>
</a>
</g>
</g>
<!-- ndRule&#45;&gt;ndFile -->
<g id="edge4" class="edge"><title>ndRule&#45;&gt;ndFile</title>
<path fill="none" stroke="black" d="M460.798,-157.225C469.994,-142.173 480.223,-125.429 489.801,-109.751"/>
<polygon fill="black" stroke="black" points="490.052,-109.342 489.766,-102.136 496.308,-99.1015 496.593,-106.307 490.052,-109.342"/>
</g>
<!-- ndRuleVar -->
<g id="node5" class="node"><title>ndRuleVar</title>
<g id="a_node5_6"><a xlink:href="https://github.com/Kindelia/HVM/blob/master/src/runtime/base/program.rs#:~:text=struct%20RuleVar" xlink:title="&lt;TABLE&gt;">
<polygon fill="lightblue" stroke="none" points="355,-454.5 355,-491.5 507,-491.5 507,-454.5 355,-454.5"/>
<polygon fill="none" stroke="black" points="355,-454.5 355,-491.5 507,-491.5 507,-454.5 355,-454.5"/>
<text text-anchor="start" x="403.5" y="-470.3" font-family="Arial" font-weight="bold" font-size="14.00">RuleVar</text>
<polygon fill="white" stroke="none" points="355,-387.5 355,-454.5 507,-454.5 507,-387.5 355,-387.5"/>
<polygon fill="none" stroke="black" points="355,-387.5 355,-454.5 507,-454.5 507,-387.5 355,-387.5"/>
<text text-anchor="start" x="366" y="-432.3" font-family="Arial" font-size="14.00">+ param: u64</text>
<text text-anchor="start" x="366" y="-417.3" font-family="Arial" font-size="14.00">+ field: Option&lt;u64&gt;</text>
<text text-anchor="start" x="366" y="-402.3" font-family="Arial" font-size="14.00">+ erase: bool</text>
<polygon fill="none" stroke="black" points="354,-386.5 354,-492.5 508,-492.5 508,-386.5 354,-386.5"/>
</a>
</g>
</g>
<!-- ndRuleVar&#45;&gt;ndRule -->
<g id="edge5" class="edge"><title>ndRuleVar&#45;&gt;ndRule</title>
<path fill="none" stroke="black" d="M431,-382.408C431,-347.958 431,-303.833 431,-268.585"/>
<polygon fill="black" stroke="black" points="431,-268.519 427,-262.519 431,-256.519 435,-262.518 431,-268.519"/>
</g>
<!-- ndRuleBodyCell -->
<g id="node6" class="node"><title>ndRuleBodyCell</title>
<g id="a_node6_7"><a xlink:href="https://github.com/Kindelia/HVM/blob/master/src/runtime/base/program.rs#:~:text=enum%20RuleBodyCell" xlink:title="&lt;TABLE&gt;">
<polygon fill="yellow" stroke="none" points="1688,-769.5 1688,-806.5 1804,-806.5 1804,-769.5 1688,-769.5"/>
<polygon fill="none" stroke="black" points="1688,-769.5 1688,-806.5 1804,-806.5 1804,-769.5 1688,-769.5"/>
<text text-anchor="start" x="1699" y="-785.3" font-family="Arial" font-weight="bold" font-size="14.00">RuleBodyCell</text>
<polygon fill="white" stroke="none" points="1688,-702.5 1688,-769.5 1804,-769.5 1804,-702.5 1688,-702.5"/>
<polygon fill="none" stroke="black" points="1688,-702.5 1688,-769.5 1804,-769.5 1804,-702.5 1688,-702.5"/>
<text text-anchor="start" x="1699" y="-747.3" font-family="Arial" font-size="14.00">Val</text>
<text text-anchor="start" x="1699" y="-732.3" font-family="Arial" font-size="14.00">Var</text>
<text text-anchor="start" x="1699" y="-717.3" font-family="Arial" font-size="14.00">Ptr</text>
<polygon fill="none" stroke="black" points="1687,-701.5 1687,-807.5 1805,-807.5 1805,-701.5 1687,-701.5"/>
</a>
</g>
</g>
<!-- ndVisitObj -->
<g id="node7" class="node"><title>ndVisitObj</title>
<g id="a_node7_8"><a xlink:href="https://github.com/Kindelia/HVM/blob/master/src/runtime/base/program.rs#:~:text=struct%20VisitObj" xlink:title="&lt;TABLE&gt;">
<polygon fill="lightblue" stroke="none" points="1841,-761.5 1841,-798.5 2018,-798.5 2018,-761.5 1841,-761.5"/>
<polygon fill="none" stroke="black" points="1841,-761.5 1841,-798.5 2018,-798.5 2018,-761.5 1841,-761.5"/>
<text text-anchor="start" x="1902" y="-777.3" font-family="Arial" font-weight="bold" font-size="14.00">VisitObj</text>
<polygon fill="white" stroke="none" points="1841,-709.5 1841,-761.5 2018,-761.5 2018,-709.5 1841,-709.5"/>
<polygon fill="none" stroke="black" points="1841,-709.5 1841,-761.5 2018,-761.5 2018,-709.5 1841,-709.5"/>
<text text-anchor="start" x="1852" y="-739.3" font-family="Arial" font-size="14.00">+ strict_map: Vec&lt;bool&gt;</text>
<text text-anchor="start" x="1852" y="-724.3" font-family="Arial" font-size="14.00">+ strict_idx: Vec&lt;u64&gt;</text>
<polygon fill="none" stroke="black" points="1839.5,-709 1839.5,-800 2018.5,-800 2018.5,-709 1839.5,-709"/>
</a>
</g>
</g>
<!-- ndFunction -->
<g id="node9" class="node"><title>ndFunction</title>
<g id="a_node9_9"><a xlink:href="https://github.com/Kindelia/HVM/blob/master/src/runtime/base/program.rs#:~:text=enum%20Function" xlink:title="&lt;TABLE&gt;">
<polygon fill="yellow" stroke="none" points="417,-761.5 417,-798.5 509,-798.5 509,-761.5 417,-761.5"/>
<polygon fill="none" stroke="black" points="417,-761.5 417,-798.5 509,-798.5 509,-761.5 417,-761.5"/>
<text text-anchor="start" x="432" y="-777.3" font-family="Arial" font-weight="bold" font-size="14.00">Function</text>
<polygon fill="white" stroke="none" points="417,-709.5 417,-761.5 509,-761.5 509,-709.5 417,-709.5"/>
<polygon fill="none" stroke="black" points="417,-709.5 417,-761.5 509,-761.5 509,-709.5 417,-709.5"/>
<text text-anchor="start" x="428" y="-739.3" font-family="Arial" font-size="14.00">Interpreted</text>
<text text-anchor="start" x="428" y="-724.3" font-family="Arial" font-size="14.00">Compiled</text>
<polygon fill="none" stroke="black" points="416,-709 416,-800 510,-800 510,-709 416,-709"/>
</a>
</g>
</g>
<!-- ndProgram -->
<g id="node10" class="node"><title>ndProgram</title>
<g id="a_node10_10"><a xlink:href="https://github.com/Kindelia/HVM/blob/master/src/runtime/base/program.rs#:~:text=struct%20Program" xlink:title="&lt;TABLE&gt;">
<polygon fill="lightblue" stroke="none" points="639,-454.5 639,-491.5 752,-491.5 752,-454.5 639,-454.5"/>
<polygon fill="none" stroke="black" points="639,-454.5 639,-491.5 752,-491.5 752,-454.5 639,-454.5"/>
<text text-anchor="start" x="665" y="-470.3" font-family="Arial" font-weight="bold" font-size="14.00">Program</text>
<polygon fill="white" stroke="none" points="639,-387.5 639,-454.5 752,-454.5 752,-387.5 639,-387.5"/>
<polygon fill="none" stroke="black" points="639,-387.5 639,-454.5 752,-454.5 752,-387.5 639,-387.5"/>
<text text-anchor="start" x="650" y="-432.3" font-family="Arial" font-size="14.00">+ funs: Funs</text>
<text text-anchor="start" x="650" y="-417.3" font-family="Arial" font-size="14.00">+ aris: Aris</text>
<text text-anchor="start" x="650" y="-402.3" font-family="Arial" font-size="14.00">+ nams: Nams</text>
<polygon fill="none" stroke="black" points="637.5,-386.5 637.5,-492.5 752.5,-492.5 752.5,-386.5 637.5,-386.5"/>
</a>
</g>
</g>
<!-- ndFunction&#45;&gt;ndProgram -->
<g id="edge6" class="edge"><title>ndFunction&#45;&gt;ndProgram</title>
<path fill="none" stroke="black" stroke-dasharray="5,2" d="M472.683,-704.89C481.626,-671.476 498.053,-628.213 527,-600 558.74,-569.065 586.02,-592.457 620,-564 638.847,-548.216 654.255,-526.418 666.095,-505.524"/>
<polygon fill="black" stroke="black" points="670.951,-496.645 670.101,-507.578 668.552,-501.032 666.153,-505.419 666.153,-505.419 666.153,-505.419 668.552,-501.032 662.205,-503.26 670.951,-496.645 670.951,-496.645"/>
</g>
<!-- ndRuntime -->
<g id="node20" class="node"><title>ndRuntime</title>
<g id="a_node20_11"><a xlink:href="https://github.com/Kindelia/HVM/blob/master/src/runtime/mod.rs#:~:text=struct%20Runtime" xlink:title="&lt;TABLE&gt;">
<polygon fill="lightblue" stroke="none" points="564,-237 564,-274 827,-274 827,-237 564,-237"/>
<polygon fill="none" stroke="black" points="564,-237 564,-274 827,-274 827,-237 564,-237"/>
<text text-anchor="start" x="666.5" y="-252.8" font-family="Arial" font-weight="bold" font-size="14.00">Runtime</text>
<polygon fill="white" stroke="none" points="564,-140 564,-237 827,-237 827,-140 564,-140"/>
<polygon fill="none" stroke="black" points="564,-140 564,-237 827,-237 827,-140 564,-140"/>
<text text-anchor="start" x="575" y="-214.8" font-family="Arial" font-size="14.00">+ heap: Heap</text>
<text text-anchor="start" x="575" y="-199.8" font-family="Arial" font-size="14.00">+ prog: Program</text>
<text text-anchor="start" x="575" y="-184.8" font-family="Arial" font-size="14.00">+ book: language::rulebook::RuleBook</text>
<text text-anchor="start" x="575" y="-169.8" font-family="Arial" font-size="14.00">+ tids: Box&lt;[usize]&gt;</text>
<text text-anchor="start" x="575" y="-154.8" font-family="Arial" font-size="14.00">+ dbug: bool</text>
<polygon fill="none" stroke="black" points="562.5,-139 562.5,-275 827.5,-275 827.5,-139 562.5,-139"/>
</a>
</g>
</g>
<!-- ndProgram&#45;&gt;ndRuntime -->
<g id="edge7" class="edge"><title>ndProgram&#45;&gt;ndRuntime</title>
<path fill="none" stroke="black" d="M695,-382.408C695,-355.119 695,-321.758 695,-291.548"/>
<polygon fill="black" stroke="black" points="695,-291.265 691,-285.265 695,-279.265 699,-285.265 695,-291.265"/>
</g>
<!-- ndReduceCtx -->
<g id="node11" class="node"><title>ndReduceCtx</title>
<g id="a_node11_12"><a xlink:href="https://github.com/Kindelia/HVM/blob/master/src/runtime/base/reducer.rs#:~:text=struct%20ReduceCtx" xlink:title="&lt;TABLE&gt;">
<polygon fill="lightblue" stroke="none" points="2054,-814.5 2054,-851.5 2224,-851.5 2224,-814.5 2054,-814.5"/>
<polygon fill="none" stroke="black" points="2054,-814.5 2054,-851.5 2224,-851.5 2224,-814.5 2054,-814.5"/>
<text text-anchor="start" x="2101" y="-830.3" font-family="Arial" font-weight="bold" font-size="14.00">ReduceCtx</text>
<polygon fill="white" stroke="none" points="2054,-657.5 2054,-814.5 2224,-814.5 2224,-657.5 2054,-657.5"/>
<polygon fill="none" stroke="black" points="2054,-657.5 2054,-814.5 2224,-814.5 2224,-657.5 2054,-657.5"/>
<text text-anchor="start" x="2065" y="-792.3" font-family="Arial" font-size="14.00">+ heap: &amp;&#39;a Heap</text>
<text text-anchor="start" x="2065" y="-777.3" font-family="Arial" font-size="14.00">+ prog: &amp;&#39;a Program</text>
<text text-anchor="start" x="2065" y="-762.3" font-family="Arial" font-size="14.00">+ tid: usize</text>
<text text-anchor="start" x="2065" y="-747.3" font-family="Arial" font-size="14.00">+ hold: bool</text>
<text text-anchor="start" x="2065" y="-732.3" font-family="Arial" font-size="14.00">+ term: Ptr</text>
<text text-anchor="start" x="2065" y="-717.3" font-family="Arial" font-size="14.00">+ visit: &amp;&#39;a VisitQueue</text>
<text text-anchor="start" x="2065" y="-702.3" font-family="Arial" font-size="14.00">+ redex: &amp;&#39;a RedexBag</text>
<text text-anchor="start" x="2065" y="-687.3" font-family="Arial" font-size="14.00">+ cont: &amp;&#39;a mut u64</text>
<text text-anchor="start" x="2065" y="-672.3" font-family="Arial" font-size="14.00">+ host: &amp;&#39;a mut u64</text>
<polygon fill="none" stroke="black" points="2053,-656.5 2053,-852.5 2225,-852.5 2225,-656.5 2053,-656.5"/>
</a>
</g>
</g>
<!-- ndLocalVars -->
<g id="node12" class="node"><title>ndLocalVars</title>
<g id="a_node12_13"><a xlink:href="https://github.com/Kindelia/HVM/blob/master/src/runtime/base/memory.rs#:~:text=struct%20LocalVars" xlink:title="&lt;TABLE&gt;">
<polygon fill="lightblue" stroke="none" points="881,-799.5 881,-836.5 1027,-836.5 1027,-799.5 881,-799.5"/>
<polygon fill="none" stroke="black" points="881,-799.5 881,-836.5 1027,-836.5 1027,-799.5 881,-799.5"/>
<text text-anchor="start" x="919" y="-815.3" font-family="Arial" font-weight="bold" font-size="14.00">LocalVars</text>
<polygon fill="white" stroke="none" points="881,-672.5 881,-799.5 1027,-799.5 1027,-672.5 881,-672.5"/>
<polygon fill="none" stroke="black" points="881,-672.5 881,-799.5 1027,-799.5 1027,-672.5 881,-672.5"/>
<text text-anchor="start" x="892" y="-777.3" font-family="Arial" font-size="14.00">+ tid: usize</text>
<text text-anchor="start" x="892" y="-762.3" font-family="Arial" font-size="14.00">+ used: AtomicI64</text>
<text text-anchor="start" x="892" y="-747.3" font-family="Arial" font-size="14.00">+ next: AtomicU64</text>
<text text-anchor="start" x="892" y="-732.3" font-family="Arial" font-size="14.00">+ amin: AtomicU64</text>
<text text-anchor="start" x="892" y="-717.3" font-family="Arial" font-size="14.00">+ amax: AtomicU64</text>
<text text-anchor="start" x="892" y="-702.3" font-family="Arial" font-size="14.00">+ dups: AtomicU64</text>
<text text-anchor="start" x="892" y="-687.3" font-family="Arial" font-size="14.00">+ cost: AtomicU64</text>
<polygon fill="none" stroke="black" points="880,-671.5 880,-837.5 1028,-837.5 1028,-671.5 880,-671.5"/>
</a>
</g>
</g>
<!-- ndHeap -->
<g id="node13" class="node"><title>ndHeap</title>
<g id="a_node13_14"><a xlink:href="https://github.com/Kindelia/HVM/blob/master/src/runtime/base/memory.rs#:~:text=struct%20Heap" xlink:title="&lt;TABLE&gt;">
<polygon fill="lightblue" stroke="none" points="942,-491.5 942,-528.5 1226,-528.5 1226,-491.5 942,-491.5"/>
<polygon fill="none" stroke="black" points="942,-491.5 942,-528.5 1226,-528.5 1226,-491.5 942,-491.5"/>
<text text-anchor="start" x="1066" y="-507.3" font-family="Arial" font-weight="bold" font-size="14.00">Heap</text>
<polygon fill="white" stroke="none" points="942,-349.5 942,-491.5 1226,-491.5 1226,-349.5 942,-349.5"/>
<polygon fill="none" stroke="black" points="942,-349.5 942,-491.5 1226,-491.5 1226,-349.5 942,-349.5"/>
<text text-anchor="start" x="953" y="-469.3" font-family="Arial" font-size="14.00">+ tids: usize</text>
<text text-anchor="start" x="953" y="-454.3" font-family="Arial" font-size="14.00">+ node: Box&lt;[AtomicU64]&gt;</text>
<text text-anchor="start" x="953" y="-439.3" font-family="Arial" font-size="14.00">+ lock: Box&lt;[AtomicU8]&gt;</text>
<text text-anchor="start" x="953" y="-424.3" font-family="Arial" font-size="14.00">+ lvar: Box&lt;[CachePadded&lt;LocalVars&gt;]&gt;</text>
<text text-anchor="start" x="953" y="-409.3" font-family="Arial" font-size="14.00">+ vstk: Box&lt;[VisitQueue]&gt;</text>
<text text-anchor="start" x="953" y="-394.3" font-family="Arial" font-size="14.00">+ aloc: Box&lt;[Box&lt;[AtomicU64]&gt;]&gt;</text>
<text text-anchor="start" x="953" y="-379.3" font-family="Arial" font-size="14.00">+ vbuf: Box&lt;[Box&lt;[AtomicU64]&gt;]&gt;</text>
<text text-anchor="start" x="953" y="-364.3" font-family="Arial" font-size="14.00">+ rbag: RedexBag</text>
<polygon fill="none" stroke="black" points="941,-349 941,-530 1227,-530 1227,-349 941,-349"/>
</a>
</g>
</g>
<!-- ndLocalVars&#45;&gt;ndHeap -->
<g id="edge8" class="edge"><title>ndLocalVars&#45;&gt;ndHeap</title>
<path fill="none" stroke="black" d="M989.867,-667.143C1005.5,-629.512 1023.96,-585.06 1040.37,-545.536"/>
<polygon fill="black" stroke="black" points="1040.46,-545.34 1039.06,-538.265 1045.06,-534.258 1046.45,-541.333 1040.46,-545.34"/>
</g>
<!-- ndHeap&#45;&gt;ndRuntime -->
<g id="edge9" class="edge"><title>ndHeap&#45;&gt;ndRuntime</title>
<path fill="none" stroke="black" d="M932.767,-348.888C897.368,-327.912 859.955,-305.743 825.547,-285.355"/>
<polygon fill="black" stroke="black" points="825.294,-285.205 818.093,-285.588 814.97,-279.088 822.171,-278.705 825.294,-285.205"/>
</g>
<!-- ndRedexBag -->
<g id="node14" class="node"><title>ndRedexBag</title>
<g id="a_node14_15"><a xlink:href="https://github.com/Kindelia/HVM/blob/master/src/runtime/data/redex_bag.rs#:~:text=struct%20RedexBag" xlink:title="&lt;TABLE&gt;">
<polygon fill="lightblue" stroke="none" points="1064,-769.5 1064,-806.5 1365,-806.5 1365,-769.5 1064,-769.5"/>
<polygon fill="none" stroke="black" points="1064,-769.5 1064,-806.5 1365,-806.5 1365,-769.5 1064,-769.5"/>
<text text-anchor="start" x="1178.5" y="-785.3" font-family="Arial" font-weight="bold" font-size="14.00">RedexBag</text>
<polygon fill="white" stroke="none" points="1064,-702.5 1064,-769.5 1365,-769.5 1365,-702.5 1064,-702.5"/>
<polygon fill="none" stroke="black" points="1064,-702.5 1064,-769.5 1365,-769.5 1365,-702.5 1064,-702.5"/>
<text text-anchor="start" x="1075" y="-747.3" font-family="Arial" font-size="14.00">&#45; tids: usize</text>
<text text-anchor="start" x="1075" y="-732.3" font-family="Arial" font-size="14.00">&#45; next: Box&lt;[CachePadded&lt;AtomicUsize&gt;]&gt;</text>
<text text-anchor="start" x="1075" y="-717.3" font-family="Arial" font-size="14.00">&#45; data: Box&lt;[AtomicU64]&gt;</text>
<polygon fill="none" stroke="black" points="1062.5,-701.5 1062.5,-807.5 1365.5,-807.5 1365.5,-701.5 1062.5,-701.5"/>
</a>
</g>
</g>
<!-- ndRedexBag&#45;&gt;ndHeap -->
<g id="edge10" class="edge"><title>ndRedexBag&#45;&gt;ndHeap</title>
<path fill="none" stroke="black" d="M1190.61,-697.18C1173.11,-655.046 1148.67,-596.197 1127.6,-545.476"/>
<polygon fill="black" stroke="black" points="1127.49,-545.201 1121.49,-541.194 1122.88,-534.118 1128.88,-538.125 1127.49,-545.201"/>
</g>
<!-- ndVisitQueue -->
<g id="node15" class="node"><title>ndVisitQueue</title>
<g id="a_node15_16"><a xlink:href="https://github.com/Kindelia/HVM/blob/master/src/runtime/data/visit_queue.rs#:~:text=struct%20VisitQueue" xlink:title="&lt;TABLE&gt;">
<polygon fill="lightblue" stroke="none" points="1401,-769.5 1401,-806.5 1652,-806.5 1652,-769.5 1401,-769.5"/>
<polygon fill="none" stroke="black" points="1401,-769.5 1401,-806.5 1652,-806.5 1652,-769.5 1401,-769.5"/>
<text text-anchor="start" x="1488.5" y="-785.3" font-family="Arial" font-weight="bold" font-size="14.00">VisitQueue</text>
<polygon fill="white" stroke="none" points="1401,-702.5 1401,-769.5 1652,-769.5 1652,-702.5 1401,-702.5"/>
<polygon fill="none" stroke="black" points="1401,-702.5 1401,-769.5 1652,-769.5 1652,-702.5 1401,-702.5"/>
<text text-anchor="start" x="1412" y="-747.3" font-family="Arial" font-size="14.00">+ init: CachePadded&lt;AtomicUsize&gt;</text>
<text text-anchor="start" x="1412" y="-732.3" font-family="Arial" font-size="14.00">+ last: CachePadded&lt;AtomicUsize&gt;</text>
<text text-anchor="start" x="1412" y="-717.3" font-family="Arial" font-size="14.00">+ data: Box&lt;[AtomicU64]&gt;</text>
<polygon fill="none" stroke="black" points="1399.5,-701.5 1399.5,-807.5 1652.5,-807.5 1652.5,-701.5 1399.5,-701.5"/>
</a>
</g>
</g>
<!-- ndVisitQueue&#45;&gt;ndHeap -->
<g id="edge11" class="edge"><title>ndVisitQueue&#45;&gt;ndHeap</title>
<path fill="none" stroke="black" d="M1481.2,-697.367C1454.55,-666.244 1418.82,-628.246 1382,-600 1340.53,-568.19 1291.85,-539.208 1245.99,-514.937"/>
<polygon fill="black" stroke="black" points="1245.96,-514.921 1238.79,-515.679 1235.33,-509.352 1242.5,-508.593 1245.96,-514.921"/>
</g>
<!-- ndU64Map -->
<g id="node16" class="node"><title>ndU64Map</title>
<g id="a_node16_17"><a xlink:href="https://github.com/Kindelia/HVM/blob/master/src/runtime/data/u64_map.rs#:~:text=struct%20U64Map" xlink:title="&lt;TABLE&gt;">
<polygon fill="lightblue" stroke="none" points="2261,-754.5 2261,-791.5 2440,-791.5 2440,-754.5 2261,-754.5"/>
<polygon fill="none" stroke="black" points="2261,-754.5 2261,-791.5 2440,-791.5 2440,-754.5 2261,-754.5"/>
<text text-anchor="start" x="2322" y="-770.3" font-family="Arial" font-weight="bold" font-size="14.00">U64Map</text>
<polygon fill="white" stroke="none" points="2261,-717.5 2261,-754.5 2440,-754.5 2440,-717.5 2261,-717.5"/>
<polygon fill="none" stroke="black" points="2261,-717.5 2261,-754.5 2440,-754.5 2440,-717.5 2261,-717.5"/>
<text text-anchor="start" x="2272" y="-732.3" font-family="Arial" font-size="14.00">+ data: Vec&lt;Option&lt;A&gt;&gt;</text>
<polygon fill="none" stroke="black" points="2259.5,-716.5 2259.5,-792.5 2440.5,-792.5 2440.5,-716.5 2259.5,-716.5"/>
</a>
</g>
</g>
<!-- ndAllocatorNext -->
<g id="node17" class="node"><title>ndAllocatorNext</title>
<g id="a_node17_18"><a xlink:href="https://github.com/Kindelia/HVM/blob/master/src/runtime/data/allocator.rs#:~:text=struct%20AllocatorNext" xlink:title="&lt;TABLE&gt;">
<polygon fill="lightblue" stroke="none" points="2476,-761.5 2476,-798.5 2616,-798.5 2616,-761.5 2476,-761.5"/>
<polygon fill="none" stroke="black" points="2476,-761.5 2476,-798.5 2616,-798.5 2616,-761.5 2476,-761.5"/>
<text text-anchor="start" x="2499" y="-777.3" font-family="Arial" font-weight="bold" font-size="14.00">AllocatorNext</text>
<polygon fill="white" stroke="none" points="2476,-709.5 2476,-761.5 2616,-761.5 2616,-709.5 2476,-709.5"/>
<polygon fill="none" stroke="black" points="2476,-709.5 2476,-761.5 2616,-761.5 2616,-709.5 2476,-709.5"/>
<text text-anchor="start" x="2487" y="-739.3" font-family="Arial" font-size="14.00">+ cell: AtomicU64</text>
<text text-anchor="start" x="2487" y="-724.3" font-family="Arial" font-size="14.00">+ area: AtomicU64</text>
<polygon fill="none" stroke="black" points="2475,-709 2475,-800 2617,-800 2617,-709 2475,-709"/>
</a>
</g>
</g>
<!-- ndAllocator -->
<g id="node18" class="node"><title>ndAllocator</title>
<g id="a_node18_19"><a xlink:href="https://github.com/Kindelia/HVM/blob/master/src/runtime/data/allocator.rs#:~:text=struct%20Allocator" xlink:title="&lt;TABLE&gt;">
<polygon fill="lightblue" stroke="none" points="2392,-461.5 2392,-498.5 2701,-498.5 2701,-461.5 2392,-461.5"/>
<polygon fill="none" stroke="black" points="2392,-461.5 2392,-498.5 2701,-498.5 2701,-461.5 2392,-461.5"/>
<text text-anchor="start" x="2515" y="-477.3" font-family="Arial" font-weight="bold" font-size="14.00">Allocator</text>
<polygon fill="white" stroke="none" points="2392,-379.5 2392,-461.5 2701,-461.5 2701,-379.5 2392,-379.5"/>
<polygon fill="none" stroke="black" points="2392,-379.5 2392,-461.5 2701,-461.5 2701,-379.5 2392,-379.5"/>
<text text-anchor="start" x="2403" y="-439.3" font-family="Arial" font-size="14.00">+ tids: usize</text>
<text text-anchor="start" x="2403" y="-424.3" font-family="Arial" font-size="14.00">+ data: Box&lt;[AtomicU64]&gt;</text>
<text text-anchor="start" x="2403" y="-409.3" font-family="Arial" font-size="14.00">+ used: Box&lt;[AtomicU64]&gt;</text>
<text text-anchor="start" x="2403" y="-394.3" font-family="Arial" font-size="14.00">+ next: Box&lt;[CachePadded&lt;AllocatorNext&gt;]&gt;</text>
<polygon fill="none" stroke="black" points="2390.5,-379 2390.5,-500 2701.5,-500 2701.5,-379 2390.5,-379"/>
</a>
</g>
</g>
<!-- ndAllocatorNext&#45;&gt;ndAllocator -->
<g id="edge12" class="edge"><title>ndAllocatorNext&#45;&gt;ndAllocator</title>
<path fill="none" stroke="black" d="M2546,-704.937C2546,-654.52 2546,-574.964 2546,-516.27"/>
<polygon fill="black" stroke="black" points="2546,-516.08 2542,-510.08 2546,-504.08 2550,-510.08 2546,-516.08"/>
</g>
<!-- ndBarrier -->
<g id="node19" class="node"><title>ndBarrier</title>
<g id="a_node19_20"><a xlink:href="https://github.com/Kindelia/HVM/blob/master/src/runtime/data/barrier.rs#:~:text=struct%20Barrier" xlink:title="&lt;TABLE&gt;">
<polygon fill="lightblue" stroke="none" points="2653,-769.5 2653,-806.5 2806,-806.5 2806,-769.5 2653,-769.5"/>
<polygon fill="none" stroke="black" points="2653,-769.5 2653,-806.5 2806,-806.5 2806,-769.5 2653,-769.5"/>
<text text-anchor="start" x="2705" y="-785.3" font-family="Arial" font-weight="bold" font-size="14.00">Barrier</text>
<polygon fill="white" stroke="none" points="2653,-702.5 2653,-769.5 2806,-769.5 2806,-702.5 2653,-702.5"/>
<polygon fill="none" stroke="black" points="2653,-702.5 2653,-769.5 2806,-769.5 2806,-702.5 2653,-702.5"/>
<text text-anchor="start" x="2664" y="-747.3" font-family="Arial" font-size="14.00">+ done: AtomicUsize</text>
<text text-anchor="start" x="2664" y="-732.3" font-family="Arial" font-size="14.00">+ pass: AtomicUsize</text>
<text text-anchor="start" x="2664" y="-717.3" font-family="Arial" font-size="14.00">+ tids: usize</text>
<polygon fill="none" stroke="black" points="2651.5,-701.5 2651.5,-807.5 2806.5,-807.5 2806.5,-701.5 2651.5,-701.5"/>
</a>
</g>
</g>
<!-- ndRuleBook -->
<g id="node21" class="node"><title>ndRuleBook</title>
<g id="a_node21_21"><a xlink:href="https://github.com/Kindelia/HVM/blob/master/src/language/rulebook.rs#:~:text=struct%20RuleBook" xlink:title="&lt;TABLE&gt;">
<polygon fill="lightblue" stroke="none" points="546,-791.5 546,-828.5 845,-828.5 845,-791.5 546,-791.5"/>
<polygon fill="none" stroke="black" points="546,-791.5 546,-828.5 845,-828.5 845,-791.5 546,-791.5"/>
<text text-anchor="start" x="661.5" y="-807.3" font-family="Arial" font-weight="bold" font-size="14.00">RuleBook</text>
<polygon fill="white" stroke="none" points="546,-679.5 546,-791.5 845,-791.5 845,-679.5 546,-679.5"/>
<polygon fill="none" stroke="black" points="546,-679.5 546,-791.5 845,-791.5 845,-679.5 546,-679.5"/>
<text text-anchor="start" x="557" y="-769.3" font-family="Arial" font-size="14.00">+ rule_group: HashMap&lt;String, RuleGroup&gt;</text>
<text text-anchor="start" x="557" y="-754.3" font-family="Arial" font-size="14.00">+ name_count: u64</text>
<text text-anchor="start" x="557" y="-739.3" font-family="Arial" font-size="14.00">+ name_to_id: HashMap&lt;String, u64&gt;</text>
<text text-anchor="start" x="557" y="-724.3" font-family="Arial" font-size="14.00">+ id_to_smap: HashMap&lt;u64, Vec&lt;bool&gt;&gt;</text>
<text text-anchor="start" x="557" y="-709.3" font-family="Arial" font-size="14.00">+ id_to_name: HashMap&lt;u64, String&gt;</text>
<text text-anchor="start" x="557" y="-694.3" font-family="Arial" font-size="14.00">+ ctr_is_fun: HashMap&lt;String, bool&gt;</text>
<polygon fill="none" stroke="black" points="544.5,-679 544.5,-830 845.5,-830 845.5,-679 544.5,-679"/>
</a>
</g>
</g>
<!-- ndRuleBook&#45;&gt;ndProgram -->
<g id="edge13" class="edge"><title>ndRuleBook&#45;&gt;ndProgram</title>
<path fill="none" stroke="black" stroke-dasharray="5,2" d="M695,-674.921C695,-623.188 695,-556.204 695,-507.094"/>
<polygon fill="black" stroke="black" points="695,-496.897 699.5,-506.897 695,-501.897 695,-506.897 695,-506.897 695,-506.897 695,-501.897 690.5,-506.897 695,-496.897 695,-496.897"/>
</g>
<!-- ndSanitizedRule -->
<g id="node22" class="node"><title>ndSanitizedRule</title>
<g id="a_node22_22"><a xlink:href="https://github.com/Kindelia/HVM/blob/master/src/language/rulebook.rs#:~:text=struct%20SanitizedRule" xlink:title="&lt;TABLE&gt;">
<polygon fill="lightblue" stroke="none" points="2842,-761.5 2842,-798.5 3059,-798.5 3059,-761.5 2842,-761.5"/>
<polygon fill="none" stroke="black" points="2842,-761.5 2842,-798.5 3059,-798.5 3059,-761.5 2842,-761.5"/>
<text text-anchor="start" x="2903" y="-777.3" font-family="Arial" font-weight="bold" font-size="14.00">SanitizedRule</text>
<polygon fill="white" stroke="none" points="2842,-709.5 2842,-761.5 3059,-761.5 3059,-709.5 2842,-709.5"/>
<polygon fill="none" stroke="black" points="2842,-709.5 2842,-761.5 3059,-761.5 3059,-709.5 2842,-709.5"/>
<text text-anchor="start" x="2853" y="-739.3" font-family="Arial" font-size="14.00">+ rule: language::syntax::Rule</text>
<text text-anchor="start" x="2853" y="-724.3" font-family="Arial" font-size="14.00">+ uses: HashMap&lt;String, u64&gt;</text>
<polygon fill="none" stroke="black" points="2840.5,-709 2840.5,-800 3059.5,-800 3059.5,-709 2840.5,-709"/>
</a>
</g>
</g>
<!-- ndTerm -->
<g id="node23" class="node"><title>ndTerm</title>
<g id="a_node23_23"><a xlink:href="https://github.com/Kindelia/HVM/blob/master/src/language/syntax.rs#:~:text=enum%20Term" xlink:title="&lt;TABLE&gt;">
<polygon fill="yellow" stroke="none" points="544,-506.5 544,-543.5 603,-543.5 603,-506.5 544,-506.5"/>
<polygon fill="none" stroke="black" points="544,-506.5 544,-543.5 603,-543.5 603,-506.5 544,-506.5"/>
<text text-anchor="start" x="555" y="-522.3" font-family="Arial" font-weight="bold" font-size="14.00">Term</text>
<polygon fill="white" stroke="none" points="544,-334.5 544,-506.5 603,-506.5 603,-334.5 544,-334.5"/>
<polygon fill="none" stroke="black" points="544,-334.5 544,-506.5 603,-506.5 603,-334.5 544,-334.5"/>
<text text-anchor="start" x="555" y="-484.3" font-family="Arial" font-size="14.00">Var</text>
<text text-anchor="start" x="555" y="-469.3" font-family="Arial" font-size="14.00">Dup</text>
<text text-anchor="start" x="555" y="-454.3" font-family="Arial" font-size="14.00">Sup</text>
<text text-anchor="start" x="555" y="-439.3" font-family="Arial" font-size="14.00">Let</text>
<text text-anchor="start" x="555" y="-424.3" font-family="Arial" font-size="14.00">Lam</text>
<text text-anchor="start" x="555" y="-409.3" font-family="Arial" font-size="14.00">App</text>
<text text-anchor="start" x="555" y="-394.3" font-family="Arial" font-size="14.00">Ctr</text>
<text text-anchor="start" x="555" y="-379.3" font-family="Arial" font-size="14.00">U6O</text>
<text text-anchor="start" x="555" y="-364.3" font-family="Arial" font-size="14.00">F6O</text>
<text text-anchor="start" x="555" y="-349.3" font-family="Arial" font-size="14.00">Op2</text>
<polygon fill="none" stroke="black" points="542.5,-334 542.5,-545 603.5,-545 603.5,-334 542.5,-334"/>
</a>
</g>
</g>
<!-- ndTerm&#45;&gt;ndRule -->
<g id="edge15" class="edge"><title>ndTerm&#45;&gt;ndRule</title>
<path fill="none" stroke="black" d="M534.391,-331.892C531.416,-326.078 528.284,-320.407 525,-315 514.637,-297.935 501.46,-280.991 488.275,-265.789"/>
<polygon fill="black" stroke="black" points="488.054,-265.539 481.08,-263.706 480.09,-256.563 487.064,-258.396 488.054,-265.539"/>
</g>
<!-- ndTerm&#45;&gt;ndRuntime -->
<g id="edge14" class="edge"><title>ndTerm&#45;&gt;ndRuntime</title>
<path fill="none" stroke="black" stroke-dasharray="5,2" d="M611.577,-331.969C614.286,-326.164 617.099,-320.473 620,-315 624.791,-305.963 630.222,-296.79 635.917,-287.809"/>
<polygon fill="black" stroke="black" points="641.447,-279.268 639.789,-290.108 638.729,-283.465 636.012,-287.662 636.012,-287.662 636.012,-287.662 638.729,-283.465 632.234,-285.217 641.447,-279.268 641.447,-279.268"/>
</g>
<!-- ndOper -->
<g id="node24" class="node"><title>ndOper</title>
<g id="a_node24_24"><a xlink:href="https://github.com/Kindelia/HVM/blob/master/src/language/syntax.rs#:~:text=enum%20Oper" xlink:title="&lt;TABLE&gt;">
<polygon fill="yellow" stroke="none" points="3095,-866.5 3095,-903.5 3152,-903.5 3152,-866.5 3095,-866.5"/>
<polygon fill="none" stroke="black" points="3095,-866.5 3095,-903.5 3152,-903.5 3152,-866.5 3095,-866.5"/>
<text text-anchor="start" x="3106" y="-882.3" font-family="Arial" font-weight="bold" font-size="14.00">Oper</text>
<polygon fill="white" stroke="none" points="3095,-604.5 3095,-866.5 3152,-866.5 3152,-604.5 3095,-604.5"/>
<polygon fill="none" stroke="black" points="3095,-604.5 3095,-866.5 3152,-866.5 3152,-604.5 3095,-604.5"/>
<text text-anchor="start" x="3106" y="-844.3" font-family="Arial" font-size="14.00">Add</text>
<text text-anchor="start" x="3106" y="-829.3" font-family="Arial" font-size="14.00">Sub</text>
<text text-anchor="start" x="3106" y="-814.3" font-family="Arial" font-size="14.00">Mul</text>
<text text-anchor="start" x="3106" y="-799.3" font-family="Arial" font-size="14.00">Div</text>
<text text-anchor="start" x="3106" y="-784.3" font-family="Arial" font-size="14.00">Mod</text>
<text text-anchor="start" x="3106" y="-769.3" font-family="Arial" font-size="14.00">And</text>
<text text-anchor="start" x="3106" y="-754.3" font-family="Arial" font-size="14.00">Or</text>
<text text-anchor="start" x="3106" y="-739.3" font-family="Arial" font-size="14.00">Xor</text>
<text text-anchor="start" x="3106" y="-724.3" font-family="Arial" font-size="14.00">Shl</text>
<text text-anchor="start" x="3106" y="-709.3" font-family="Arial" font-size="14.00">Shr</text>
<text text-anchor="start" x="3106" y="-694.3" font-family="Arial" font-size="14.00">Lte</text>
<text text-anchor="start" x="3106" y="-679.3" font-family="Arial" font-size="14.00">Ltn</text>
<text text-anchor="start" x="3106" y="-664.3" font-family="Arial" font-size="14.00">Eql</text>
<text text-anchor="start" x="3106" y="-649.3" font-family="Arial" font-size="14.00">Gte</text>
<text text-anchor="start" x="3106" y="-634.3" font-family="Arial" font-size="14.00">Gtn</text>
<text text-anchor="start" x="3106" y="-619.3" font-family="Arial" font-size="14.00">Neq</text>
<polygon fill="none" stroke="black" points="3093.5,-604 3093.5,-905 3152.5,-905 3152.5,-604 3093.5,-604"/>
</a>
</g>
</g>
<!-- ndCli -->
<g id="node26" class="node"><title>ndCli</title>
<g id="a_node26_25"><a xlink:href="https://github.com/Kindelia/HVM/blob/master/src/main.rs#:~:text=struct%20Cli" xlink:title="&lt;TABLE&gt;">
<polygon fill="lightblue" stroke="none" points="3149,-439.5 3149,-476.5 3320,-476.5 3320,-439.5 3149,-439.5"/>
<polygon fill="none" stroke="black" points="3149,-439.5 3149,-476.5 3320,-476.5 3320,-439.5 3149,-439.5"/>
<text text-anchor="start" x="3225" y="-455.3" font-family="Arial" font-weight="bold" font-size="14.00">Cli</text>
<polygon fill="white" stroke="none" points="3149,-402.5 3149,-439.5 3320,-439.5 3320,-402.5 3149,-402.5"/>
<polygon fill="none" stroke="black" points="3149,-402.5 3149,-439.5 3320,-439.5 3320,-402.5 3149,-402.5"/>
<text text-anchor="start" x="3160" y="-417.3" font-family="Arial" font-size="14.00">+ command: Command</text>
<polygon fill="none" stroke="black" points="3147.5,-401.5 3147.5,-477.5 3320.5,-477.5 3320.5,-401.5 3147.5,-401.5"/>
</a>
</g>
</g>
<!-- ndCommand -->
<g id="node27" class="node"><title>ndCommand</title>
<g id="a_node27_26"><a xlink:href="https://github.com/Kindelia/HVM/blob/master/src/main.rs#:~:text=enum%20Command" xlink:title="&lt;TABLE&gt;">
<polygon fill="yellow" stroke="none" points="3187,-761.5 3187,-798.5 3281,-798.5 3281,-761.5 3187,-761.5"/>
<polygon fill="none" stroke="black" points="3187,-761.5 3187,-798.5 3281,-798.5 3281,-761.5 3187,-761.5"/>
<text text-anchor="start" x="3198" y="-777.3" font-family="Arial" font-weight="bold" font-size="14.00">Command</text>
<polygon fill="white" stroke="none" points="3187,-709.5 3187,-761.5 3281,-761.5 3281,-709.5 3187,-709.5"/>
<polygon fill="none" stroke="black" points="3187,-709.5 3187,-761.5 3281,-761.5 3281,-709.5 3187,-709.5"/>
<text text-anchor="start" x="3198" y="-739.3" font-family="Arial" font-size="14.00">Run</text>
<text text-anchor="start" x="3198" y="-724.3" font-family="Arial" font-size="14.00">Compile</text>
<polygon fill="none" stroke="black" points="3186,-709 3186,-800 3282,-800 3282,-709 3186,-709"/>
</a>
</g>
</g>
<!-- ndCommand&#45;&gt;ndCli -->
<g id="edge16" class="edge"><title>ndCommand&#45;&gt;ndCli</title>
<path fill="none" stroke="black" d="M3234,-704.937C3234,-647.707 3234,-552.93 3234,-493.741"/>
<polygon fill="black" stroke="black" points="3234,-493.678 3230,-487.678 3234,-481.678 3238,-487.678 3234,-493.678"/>
</g>
</g>
</svg>
