<?xml version="1.0" encoding="UTF-8" standalone="no"?>
<!DOCTYPE svg PUBLIC "-//W3C//DTD SVG 1.1//EN"
 "http://www.w3.org/Graphics/SVG/1.1/DTD/svg11.dtd">
<!-- Generated by graphviz version 2.38.0 (20140413.2041)
 -->
<!-- Title: ml Pages: 1 -->
<svg width="3590pt" height="662pt"
 viewBox="0.00 0.00 3589.50 662.00" xmlns="http://www.w3.org/2000/svg" xmlns:xlink="http://www.w3.org/1999/xlink">
<g id="graph0" class="graph" transform="scale(1 1) rotate(0) translate(4 658)">
<title>ml</title>
<polygon fill="white" stroke="none" points="-4,4 -4,-658 3585.5,-658 3585.5,4 -4,4"/>
<!-- ndPrecompFns -->
<g id="node1" class="node"><title>ndPrecompFns</title>
<g id="a_node1_0"><a xlink:href="https://github.com/Kindelia/HVM/blob/master/src/runtime/base/precomp.rs#:~:text=struct%20PrecompFns" xlink:title="&lt;TABLE&gt;">
<polygon fill="lightblue" stroke="none" points="51,-506.5 51,-543.5 186,-543.5 186,-506.5 51,-506.5"/>
<polygon fill="none" stroke="black" points="51,-506.5 51,-543.5 186,-543.5 186,-506.5 51,-506.5"/>
<text text-anchor="start" x="73.5" y="-522.3" font-family="Arial" font-weight="bold" font-size="14.00">PrecompFns</text>
<polygon fill="white" stroke="none" points="51,-454.5 51,-506.5 186,-506.5 186,-454.5 51,-454.5"/>
<polygon fill="none" stroke="black" points="51,-454.5 51,-506.5 186,-506.5 186,-454.5 51,-454.5"/>
<text text-anchor="start" x="62" y="-484.3" font-family="Arial" font-size="14.00">+ visit: VisitFun</text>
<text text-anchor="start" x="62" y="-469.3" font-family="Arial" font-size="14.00">+ apply: ApplyFun</text>
<polygon fill="none" stroke="black" points="49.5,-454 49.5,-545 186.5,-545 186.5,-454 49.5,-454"/>
</a>
</g>
</g>
<!-- ndPrecomp -->
<g id="node2" class="node"><title>ndPrecomp</title>
<g id="a_node2_1"><a xlink:href="https://github.com/Kindelia/HVM/blob/master/src/runtime/base/precomp.rs#:~:text=struct%20Precomp" xlink:title="&lt;TABLE&gt;">
<polygon fill="lightblue" stroke="none" points="9,-236.5 9,-273.5 227,-273.5 227,-236.5 9,-236.5"/>
<polygon fill="none" stroke="black" points="9,-236.5 9,-273.5 227,-273.5 227,-236.5 9,-236.5"/>
<text text-anchor="start" x="86" y="-252.3" font-family="Arial" font-weight="bold" font-size="14.00">Precomp</text>
<polygon fill="white" stroke="none" points="9,-154.5 9,-236.5 227,-236.5 227,-154.5 9,-154.5"/>
<polygon fill="none" stroke="black" points="9,-154.5 9,-236.5 227,-236.5 227,-154.5 9,-154.5"/>
<text text-anchor="start" x="20" y="-214.3" font-family="Arial" font-size="14.00">+ id: u64</text>
<text text-anchor="start" x="20" y="-199.3" font-family="Arial" font-size="14.00">+ name: &amp;&#39;static str</text>
<text text-anchor="start" x="20" y="-184.3" font-family="Arial" font-size="14.00">+ arity: usize</text>
<text text-anchor="start" x="20" y="-169.3" font-family="Arial" font-size="14.00">+ funcs: Option&lt;PrecompFns&gt;</text>
<polygon fill="none" stroke="black" points="8,-154 8,-275 228,-275 228,-154 8,-154"/>
</a>
</g>
</g>
<!-- ndPrecompFns&#45;&gt;ndPrecomp -->
<g id="edge1" class="edge"><title>ndPrecompFns&#45;&gt;ndPrecomp</title>
<path fill="none" stroke="black" d="M118,-449.851C118,-406.27 118,-341.652 118,-291.3"/>
<polygon fill="black" stroke="black" points="118,-291.156 114,-285.156 118,-279.156 122,-285.156 118,-291.156"/>
</g>
<!-- ndCore -->
<g id="node3" class="node"><title>ndCore</title>
<g id="a_node3_2"><a xlink:href="https://github.com/Kindelia/HVM/blob/master/src/runtime/base/program.rs#:~:text=enum%20Core" xlink:title="&lt;TABLE&gt;">
<polygon fill="yellow" stroke="none" points="222,-581.5 222,-618.5 278,-618.5 278,-581.5 222,-581.5"/>
<polygon fill="none" stroke="black" points="222,-581.5 222,-618.5 278,-618.5 278,-581.5 222,-581.5"/>
<text text-anchor="start" x="233" y="-597.3" font-family="Arial" font-weight="bold" font-size="14.00">Core</text>
<polygon fill="white" stroke="none" points="222,-379.5 222,-581.5 278,-581.5 278,-379.5 222,-379.5"/>
<polygon fill="none" stroke="black" points="222,-379.5 222,-581.5 278,-581.5 278,-379.5 222,-379.5"/>
<text text-anchor="start" x="233" y="-559.3" font-family="Arial" font-size="14.00">Var</text>
<text text-anchor="start" x="233" y="-544.3" font-family="Arial" font-size="14.00">Glo</text>
<text text-anchor="start" x="233" y="-529.3" font-family="Arial" font-size="14.00">Dup</text>
<text text-anchor="start" x="233" y="-514.3" font-family="Arial" font-size="14.00">Sup</text>
<text text-anchor="start" x="233" y="-499.3" font-family="Arial" font-size="14.00">Let</text>
<text text-anchor="start" x="233" y="-484.3" font-family="Arial" font-size="14.00">Lam</text>
<text text-anchor="start" x="233" y="-469.3" font-family="Arial" font-size="14.00">App</text>
<text text-anchor="start" x="233" y="-454.3" font-family="Arial" font-size="14.00">Fun</text>
<text text-anchor="start" x="233" y="-439.3" font-family="Arial" font-size="14.00">Ctr</text>
<text text-anchor="start" x="233" y="-424.3" font-family="Arial" font-size="14.00">U6O</text>
<text text-anchor="start" x="233" y="-409.3" font-family="Arial" font-size="14.00">F6O</text>
<text text-anchor="start" x="233" y="-394.3" font-family="Arial" font-size="14.00">Op2</text>
<polygon fill="none" stroke="black" points="221,-379 221,-620 279,-620 279,-379 221,-379"/>
</a>
</g>
</g>
<!-- ndRule -->
<g id="node4" class="node"><title>ndRule</title>
<g id="a_node4_3"><a xlink:href="https://github.com/Kindelia/HVM/blob/master/src/language/syntax.rs#:~:text=struct%20Rule" xlink:title="&lt;TABLE&gt;">
<polygon fill="lightblue" stroke="none" points="323,-221.5 323,-258.5 458,-258.5 458,-221.5 323,-221.5"/>
<polygon fill="none" stroke="black" points="323,-221.5 323,-258.5 458,-258.5 458,-221.5 323,-221.5"/>
<text text-anchor="start" x="375" y="-237.3" font-family="Arial" font-weight="bold" font-size="14.00">Rule</text>
<polygon fill="white" stroke="none" points="323,-169.5 323,-221.5 458,-221.5 458,-169.5 323,-169.5"/>
<polygon fill="none" stroke="black" points="323,-169.5 323,-221.5 458,-221.5 458,-169.5 323,-169.5"/>
<text text-anchor="start" x="334" y="-199.3" font-family="Arial" font-size="14.00">+ lhs: Box&lt;Term&gt;</text>
<text text-anchor="start" x="334" y="-184.3" font-family="Arial" font-size="14.00">+ rhs: Box&lt;Term&gt;</text>
<polygon fill="none" stroke="black" points="321.5,-169 321.5,-260 458.5,-260 458.5,-169 321.5,-169"/>
</a>
</g>
</g>
<!-- ndCore&#45;&gt;ndRule -->
<g id="edge2" class="edge"><title>ndCore&#45;&gt;ndRule</title>
<path fill="none" stroke="black" d="M283.06,-374.755C287.001,-364.519 291.311,-354.475 296,-345 308.288,-320.169 325.267,-295.032 341.417,-273.595"/>
<polygon fill="black" stroke="black" points="341.457,-273.543 341.935,-266.348 348.76,-264.021 348.283,-271.216 341.457,-273.543"/>
</g>
<!-- ndApplyObj -->
<g id="node8" class="node"><title>ndApplyObj</title>
<g id="a_node8_4"><a xlink:href="https://github.com/Kindelia/HVM/blob/master/src/runtime/base/program.rs#:~:text=struct%20ApplyObj" xlink:title="&lt;TABLE&gt;">
<polygon fill="lightblue" stroke="none" points="229,-42 229,-79 372,-79 372,-42 229,-42"/>
<polygon fill="none" stroke="black" points="229,-42 229,-79 372,-79 372,-42 229,-42"/>
<text text-anchor="start" x="268.5" y="-57.8" font-family="Arial" font-weight="bold" font-size="14.00">ApplyObj</text>
<polygon fill="white" stroke="none" points="229,-5 229,-42 372,-42 372,-5 229,-5"/>
<polygon fill="none" stroke="black" points="229,-5 229,-42 372,-42 372,-5 229,-5"/>
<text text-anchor="start" x="240" y="-19.8" font-family="Arial" font-size="14.00">+ rules: Vec&lt;Rule&gt;</text>
<polygon fill="none" stroke="black" points="227.5,-4 227.5,-80 372.5,-80 372.5,-4 227.5,-4"/>
</a>
</g>
</g>
<!-- ndRule&#45;&gt;ndApplyObj -->
<g id="edge3" class="edge"><title>ndRule&#45;&gt;ndApplyObj</title>
<path fill="none" stroke="black" d="M364.21,-164.642C352.701,-142.839 339.128,-117.126 327.433,-94.971"/>
<polygon fill="black" stroke="black" points="327.287,-94.6945 320.949,-91.2557 321.686,-84.0823 328.024,-87.5211 327.287,-94.6945"/>
</g>
<!-- ndFile -->
<g id="node25" class="node"><title>ndFile</title>
<g id="a_node25_5"><a xlink:href="https://github.com/Kindelia/HVM/blob/master/src/language/syntax.rs#:~:text=struct%20File" xlink:title="&lt;TABLE&gt;">
<polygon fill="lightblue" stroke="none" points="408,-42 408,-79 551,-79 551,-42 408,-42"/>
<polygon fill="none" stroke="black" points="408,-42 408,-79 551,-79 551,-42 408,-42"/>
<text text-anchor="start" x="467" y="-57.8" font-family="Arial" font-weight="bold" font-size="14.00">File</text>
<polygon fill="white" stroke="none" points="408,-5 408,-42 551,-42 551,-5 408,-5"/>
<polygon fill="none" stroke="black" points="408,-5 408,-42 551,-42 551,-5 408,-5"/>
<text text-anchor="start" x="419" y="-19.8" font-family="Arial" font-size="14.00">+ rules: Vec&lt;Rule&gt;</text>
<polygon fill="none" stroke="black" points="406.5,-4 406.5,-80 551.5,-80 551.5,-4 406.5,-4"/>
</a>
</g>
</g>
<!-- ndRule&#45;&gt;ndFile -->
<g id="edge4" class="edge"><title>ndRule&#45;&gt;ndFile</title>
<path fill="none" stroke="black" d="M415.504,-164.642C426.885,-142.839 440.307,-117.126 451.871,-94.971"/>
<polygon fill="black" stroke="black" points="452.002,-94.7202 451.233,-87.5502 457.555,-84.0823 458.325,-91.2522 452.002,-94.7202"/>
</g>
<!-- ndRuleVar -->
<g id="node5" class="node"><title>ndRuleVar</title>
<g id="a_node5_6"><a xlink:href="https://github.com/Kindelia/HVM/blob/master/src/runtime/base/program.rs#:~:text=struct%20RuleVar" xlink:title="&lt;TABLE&gt;">
<polygon fill="lightblue" stroke="none" points="314,-514.5 314,-551.5 466,-551.5 466,-514.5 314,-514.5"/>
<polygon fill="none" stroke="black" points="314,-514.5 314,-551.5 466,-551.5 466,-514.5 314,-514.5"/>
<text text-anchor="start" x="362.5" y="-530.3" font-family="Arial" font-weight="bold" font-size="14.00">RuleVar</text>
<polygon fill="white" stroke="none" points="314,-447.5 314,-514.5 466,-514.5 466,-447.5 314,-447.5"/>
<polygon fill="none" stroke="black" points="314,-447.5 314,-514.5 466,-514.5 466,-447.5 314,-447.5"/>
<text text-anchor="start" x="325" y="-492.3" font-family="Arial" font-size="14.00">+ param: u64</text>
<text text-anchor="start" x="325" y="-477.3" font-family="Arial" font-size="14.00">+ field: Option&lt;u64&gt;</text>
<text text-anchor="start" x="325" y="-462.3" font-family="Arial" font-size="14.00">+ erase: bool</text>
<polygon fill="none" stroke="black" points="313,-446.5 313,-552.5 467,-552.5 467,-446.5 313,-446.5"/>
</a>
</g>
</g>
<!-- ndRuleVar&#45;&gt;ndRule -->
<g id="edge5" class="edge"><title>ndRuleVar&#45;&gt;ndRule</title>
<path fill="none" stroke="black" d="M390,-442.25C390,-394.252 390,-325.39 390,-276.165"/>
<polygon fill="black" stroke="black" points="390,-276.099 386,-270.099 390,-264.099 394,-270.098 390,-276.099"/>
</g>
<!-- ndRuleBodyCell -->
<g id="node6" class="node"><title>ndRuleBodyCell</title>
<g id="a_node6_7"><a xlink:href="https://github.com/Kindelia/HVM/blob/master/src/runtime/base/program.rs#:~:text=enum%20RuleBodyCell" xlink:title="&lt;TABLE&gt;">
<polygon fill="yellow" stroke="none" points="598,-514.5 598,-551.5 714,-551.5 714,-514.5 598,-514.5"/>
<polygon fill="none" stroke="black" points="598,-514.5 598,-551.5 714,-551.5 714,-514.5 598,-514.5"/>
<text text-anchor="start" x="609" y="-530.3" font-family="Arial" font-weight="bold" font-size="14.00">RuleBodyCell</text>
<polygon fill="white" stroke="none" points="598,-447.5 598,-514.5 714,-514.5 714,-447.5 598,-447.5"/>
<polygon fill="none" stroke="black" points="598,-447.5 598,-514.5 714,-514.5 714,-447.5 598,-447.5"/>
<text text-anchor="start" x="609" y="-492.3" font-family="Arial" font-size="14.00">Val</text>
<text text-anchor="start" x="609" y="-477.3" font-family="Arial" font-size="14.00">Var</text>
<text text-anchor="start" x="609" y="-462.3" font-family="Arial" font-size="14.00">Ptr</text>
<polygon fill="none" stroke="black" points="597,-446.5 597,-552.5 715,-552.5 715,-446.5 597,-446.5"/>
</a>
</g>
</g>
<!-- ndVisitObj -->
<g id="node7" class="node"><title>ndVisitObj</title>
<g id="a_node7_8"><a xlink:href="https://github.com/Kindelia/HVM/blob/master/src/runtime/base/program.rs#:~:text=struct%20VisitObj" xlink:title="&lt;TABLE&gt;">
<polygon fill="lightblue" stroke="none" points="751,-506.5 751,-543.5 928,-543.5 928,-506.5 751,-506.5"/>
<polygon fill="none" stroke="black" points="751,-506.5 751,-543.5 928,-543.5 928,-506.5 751,-506.5"/>
<text text-anchor="start" x="812" y="-522.3" font-family="Arial" font-weight="bold" font-size="14.00">VisitObj</text>
<polygon fill="white" stroke="none" points="751,-454.5 751,-506.5 928,-506.5 928,-454.5 751,-454.5"/>
<polygon fill="none" stroke="black" points="751,-454.5 751,-506.5 928,-506.5 928,-454.5 751,-454.5"/>
<text text-anchor="start" x="762" y="-484.3" font-family="Arial" font-size="14.00">+ strict_map: Vec&lt;bool&gt;</text>
<text text-anchor="start" x="762" y="-469.3" font-family="Arial" font-size="14.00">+ strict_idx: Vec&lt;u64&gt;</text>
<polygon fill="none" stroke="black" points="749.5,-454 749.5,-545 928.5,-545 928.5,-454 749.5,-454"/>
</a>
</g>
</g>
<!-- ndFunction -->
<g id="node9" class="node"><title>ndFunction</title>
<g id="a_node9_9"><a xlink:href="https://github.com/Kindelia/HVM/blob/master/src/runtime/base/program.rs#:~:text=enum%20Function" xlink:title="&lt;TABLE&gt;">
<polygon fill="yellow" stroke="none" points="964,-506.5 964,-543.5 1056,-543.5 1056,-506.5 964,-506.5"/>
<polygon fill="none" stroke="black" points="964,-506.5 964,-543.5 1056,-543.5 1056,-506.5 964,-506.5"/>
<text text-anchor="start" x="979" y="-522.3" font-family="Arial" font-weight="bold" font-size="14.00">Function</text>
<polygon fill="white" stroke="none" points="964,-454.5 964,-506.5 1056,-506.5 1056,-454.5 964,-454.5"/>
<polygon fill="none" stroke="black" points="964,-454.5 964,-506.5 1056,-506.5 1056,-454.5 964,-454.5"/>
<text text-anchor="start" x="975" y="-484.3" font-family="Arial" font-size="14.00">Interpreted</text>
<text text-anchor="start" x="975" y="-469.3" font-family="Arial" font-size="14.00">Compiled</text>
<polygon fill="none" stroke="black" points="963,-454 963,-545 1057,-545 1057,-454 963,-454"/>
</a>
</g>
</g>
<!-- ndProgram -->
<g id="node10" class="node"><title>ndProgram</title>
<g id="a_node10_10"><a xlink:href="https://github.com/Kindelia/HVM/blob/master/src/runtime/base/program.rs#:~:text=struct%20Program" xlink:title="&lt;TABLE&gt;">
<polygon fill="lightblue" stroke="none" points="1070,-229.5 1070,-266.5 1183,-266.5 1183,-229.5 1070,-229.5"/>
<polygon fill="none" stroke="black" points="1070,-229.5 1070,-266.5 1183,-266.5 1183,-229.5 1070,-229.5"/>
<text text-anchor="start" x="1096" y="-245.3" font-family="Arial" font-weight="bold" font-size="14.00">Program</text>
<polygon fill="white" stroke="none" points="1070,-162.5 1070,-229.5 1183,-229.5 1183,-162.5 1070,-162.5"/>
<polygon fill="none" stroke="black" points="1070,-162.5 1070,-229.5 1183,-229.5 1183,-162.5 1070,-162.5"/>
<text text-anchor="start" x="1081" y="-207.3" font-family="Arial" font-size="14.00">+ funs: Funs</text>
<text text-anchor="start" x="1081" y="-192.3" font-family="Arial" font-size="14.00">+ arit: Arit</text>
<text text-anchor="start" x="1081" y="-177.3" font-family="Arial" font-size="14.00">+ nams: Nams</text>
<polygon fill="none" stroke="black" points="1068.5,-161.5 1068.5,-267.5 1183.5,-267.5 1183.5,-161.5 1068.5,-161.5"/>
</a>
</g>
</g>
<!-- ndFunction&#45;&gt;ndProgram -->
<g id="edge6" class="edge"><title>ndFunction&#45;&gt;ndProgram</title>
<path fill="none" stroke="black" stroke-dasharray="5,2" d="M1029.94,-449.851C1049.03,-403.284 1077.96,-332.697 1099.09,-281.161"/>
<polygon fill="black" stroke="black" points="1102.94,-271.77 1103.31,-282.73 1101.04,-276.396 1099.14,-281.023 1099.14,-281.023 1099.14,-281.023 1101.04,-276.396 1094.98,-279.316 1102.94,-271.77 1102.94,-271.77"/>
</g>
<!-- ndReduceCtx -->
<g id="node11" class="node"><title>ndReduceCtx</title>
<g id="a_node11_11"><a xlink:href="https://github.com/Kindelia/HVM/blob/master/src/runtime/base/reducer.rs#:~:text=struct%20ReduceCtx" xlink:title="&lt;TABLE&gt;">
<polygon fill="lightblue" stroke="none" points="1428,-559.5 1428,-596.5 1598,-596.5 1598,-559.5 1428,-559.5"/>
<polygon fill="none" stroke="black" points="1428,-559.5 1428,-596.5 1598,-596.5 1598,-559.5 1428,-559.5"/>
<text text-anchor="start" x="1475" y="-575.3" font-family="Arial" font-weight="bold" font-size="14.00">ReduceCtx</text>
<polygon fill="white" stroke="none" points="1428,-402.5 1428,-559.5 1598,-559.5 1598,-402.5 1428,-402.5"/>
<polygon fill="none" stroke="black" points="1428,-402.5 1428,-559.5 1598,-559.5 1598,-402.5 1428,-402.5"/>
<text text-anchor="start" x="1439" y="-537.3" font-family="Arial" font-size="14.00">+ heap: &amp;&#39;a Heap</text>
<text text-anchor="start" x="1439" y="-522.3" font-family="Arial" font-size="14.00">+ prog: &amp;&#39;a Program</text>
<text text-anchor="start" x="1439" y="-507.3" font-family="Arial" font-size="14.00">+ tid: usize</text>
<text text-anchor="start" x="1439" y="-492.3" font-family="Arial" font-size="14.00">+ hold: bool</text>
<text text-anchor="start" x="1439" y="-477.3" font-family="Arial" font-size="14.00">+ term: Ptr</text>
<text text-anchor="start" x="1439" y="-462.3" font-family="Arial" font-size="14.00">+ visit: &amp;&#39;a VisitQueue</text>
<text text-anchor="start" x="1439" y="-447.3" font-family="Arial" font-size="14.00">+ redex: &amp;&#39;a RedexBag</text>
<text text-anchor="start" x="1439" y="-432.3" font-family="Arial" font-size="14.00">+ cont: &amp;&#39;a mut u64</text>
<text text-anchor="start" x="1439" y="-417.3" font-family="Arial" font-size="14.00">+ host: &amp;&#39;a mut u64</text>
<polygon fill="none" stroke="black" points="1427,-401.5 1427,-597.5 1599,-597.5 1599,-401.5 1427,-401.5"/>
</a>
</g>
</g>
<!-- ndLocalVars -->
<g id="node12" class="node"><title>ndLocalVars</title>
<g id="a_node12_12"><a xlink:href="https://github.com/Kindelia/HVM/blob/master/src/runtime/base/memory.rs#:~:text=struct%20LocalVars" xlink:title="&lt;TABLE&gt;">
<polygon fill="lightblue" stroke="none" points="1634,-544.5 1634,-581.5 1780,-581.5 1780,-544.5 1634,-544.5"/>
<polygon fill="none" stroke="black" points="1634,-544.5 1634,-581.5 1780,-581.5 1780,-544.5 1634,-544.5"/>
<text text-anchor="start" x="1672" y="-560.3" font-family="Arial" font-weight="bold" font-size="14.00">LocalVars</text>
<polygon fill="white" stroke="none" points="1634,-417.5 1634,-544.5 1780,-544.5 1780,-417.5 1634,-417.5"/>
<polygon fill="none" stroke="black" points="1634,-417.5 1634,-544.5 1780,-544.5 1780,-417.5 1634,-417.5"/>
<text text-anchor="start" x="1645" y="-522.3" font-family="Arial" font-size="14.00">+ tid: usize</text>
<text text-anchor="start" x="1645" y="-507.3" font-family="Arial" font-size="14.00">+ used: AtomicI64</text>
<text text-anchor="start" x="1645" y="-492.3" font-family="Arial" font-size="14.00">+ next: AtomicU64</text>
<text text-anchor="start" x="1645" y="-477.3" font-family="Arial" font-size="14.00">+ amin: AtomicU64</text>
<text text-anchor="start" x="1645" y="-462.3" font-family="Arial" font-size="14.00">+ amax: AtomicU64</text>
<text text-anchor="start" x="1645" y="-447.3" font-family="Arial" font-size="14.00">+ dups: AtomicU64</text>
<text text-anchor="start" x="1645" y="-432.3" font-family="Arial" font-size="14.00">+ cost: AtomicU64</text>
<polygon fill="none" stroke="black" points="1633,-416.5 1633,-582.5 1781,-582.5 1781,-416.5 1633,-416.5"/>
</a>
</g>
</g>
<!-- ndHeap -->
<g id="node13" class="node"><title>ndHeap</title>
<g id="a_node13_13"><a xlink:href="https://github.com/Kindelia/HVM/blob/master/src/runtime/base/memory.rs#:~:text=struct%20Heap" xlink:title="&lt;TABLE&gt;">
<polygon fill="lightblue" stroke="none" points="1825,-266.5 1825,-303.5 2109,-303.5 2109,-266.5 1825,-266.5"/>
<polygon fill="none" stroke="black" points="1825,-266.5 1825,-303.5 2109,-303.5 2109,-266.5 1825,-266.5"/>
<text text-anchor="start" x="1949" y="-282.3" font-family="Arial" font-weight="bold" font-size="14.00">Heap</text>
<polygon fill="white" stroke="none" points="1825,-124.5 1825,-266.5 2109,-266.5 2109,-124.5 1825,-124.5"/>
<polygon fill="none" stroke="black" points="1825,-124.5 1825,-266.5 2109,-266.5 2109,-124.5 1825,-124.5"/>
<text text-anchor="start" x="1836" y="-244.3" font-family="Arial" font-size="14.00">+ tids: usize</text>
<text text-anchor="start" x="1836" y="-229.3" font-family="Arial" font-size="14.00">+ node: Box&lt;[AtomicU64]&gt;</text>
<text text-anchor="start" x="1836" y="-214.3" font-family="Arial" font-size="14.00">+ lock: Box&lt;[AtomicU8]&gt;</text>
<text text-anchor="start" x="1836" y="-199.3" font-family="Arial" font-size="14.00">+ lvar: Box&lt;[CachePadded&lt;LocalVars&gt;]&gt;</text>
<text text-anchor="start" x="1836" y="-184.3" font-family="Arial" font-size="14.00">+ vstk: Box&lt;[VisitQueue]&gt;</text>
<text text-anchor="start" x="1836" y="-169.3" font-family="Arial" font-size="14.00">+ aloc: Box&lt;[Box&lt;[AtomicU64]&gt;]&gt;</text>
<text text-anchor="start" x="1836" y="-154.3" font-family="Arial" font-size="14.00">+ vbuf: Box&lt;[Box&lt;[AtomicU64]&gt;]&gt;</text>
<text text-anchor="start" x="1836" y="-139.3" font-family="Arial" font-size="14.00">+ rbag: RedexBag</text>
<polygon fill="none" stroke="black" points="1824,-124 1824,-305 2110,-305 2110,-124 1824,-124"/>
</a>
</g>
</g>
<!-- ndLocalVars&#45;&gt;ndHeap -->
<g id="edge7" class="edge"><title>ndLocalVars&#45;&gt;ndHeap</title>
<path fill="none" stroke="black" d="M1750.22,-412.487C1763.86,-389.34 1780.11,-365.155 1798,-345 1806.46,-335.477 1815.7,-326.171 1825.36,-317.197"/>
<polygon fill="black" stroke="black" points="1825.45,-317.114 1827.21,-310.12 1834.34,-309.052 1832.58,-316.046 1825.45,-317.114"/>
</g>
<!-- ndRedexBag -->
<g id="node14" class="node"><title>ndRedexBag</title>
<g id="a_node14_14"><a xlink:href="https://github.com/Kindelia/HVM/blob/master/src/runtime/data/redex_bag.rs#:~:text=struct%20RedexBag" xlink:title="&lt;TABLE&gt;">
<polygon fill="lightblue" stroke="none" points="1817,-514.5 1817,-551.5 2118,-551.5 2118,-514.5 1817,-514.5"/>
<polygon fill="none" stroke="black" points="1817,-514.5 1817,-551.5 2118,-551.5 2118,-514.5 1817,-514.5"/>
<text text-anchor="start" x="1931.5" y="-530.3" font-family="Arial" font-weight="bold" font-size="14.00">RedexBag</text>
<polygon fill="white" stroke="none" points="1817,-447.5 1817,-514.5 2118,-514.5 2118,-447.5 1817,-447.5"/>
<polygon fill="none" stroke="black" points="1817,-447.5 1817,-514.5 2118,-514.5 2118,-447.5 1817,-447.5"/>
<text text-anchor="start" x="1828" y="-492.3" font-family="Arial" font-size="14.00">&#45; tids: usize</text>
<text text-anchor="start" x="1828" y="-477.3" font-family="Arial" font-size="14.00">&#45; next: Box&lt;[CachePadded&lt;AtomicUsize&gt;]&gt;</text>
<text text-anchor="start" x="1828" y="-462.3" font-family="Arial" font-size="14.00">&#45; data: Box&lt;[AtomicU64]&gt;</text>
<polygon fill="none" stroke="black" points="1815.5,-446.5 1815.5,-552.5 2118.5,-552.5 2118.5,-446.5 1815.5,-446.5"/>
</a>
</g>
</g>
<!-- ndRedexBag&#45;&gt;ndHeap -->
<g id="edge8" class="edge"><title>ndRedexBag&#45;&gt;ndHeap</title>
<path fill="none" stroke="black" d="M1967,-442.25C1967,-407.699 1967,-362.338 1967,-321.272"/>
<polygon fill="black" stroke="black" points="1967,-321.251 1963,-315.251 1967,-309.251 1971,-315.251 1967,-321.251"/>
</g>
<!-- ndVisitQueue -->
<g id="node15" class="node"><title>ndVisitQueue</title>
<g id="a_node15_15"><a xlink:href="https://github.com/Kindelia/HVM/blob/master/src/runtime/data/visit_queue.rs#:~:text=struct%20VisitQueue" xlink:title="&lt;TABLE&gt;">
<polygon fill="lightblue" stroke="none" points="2154,-514.5 2154,-551.5 2405,-551.5 2405,-514.5 2154,-514.5"/>
<polygon fill="none" stroke="black" points="2154,-514.5 2154,-551.5 2405,-551.5 2405,-514.5 2154,-514.5"/>
<text text-anchor="start" x="2241.5" y="-530.3" font-family="Arial" font-weight="bold" font-size="14.00">VisitQueue</text>
<polygon fill="white" stroke="none" points="2154,-447.5 2154,-514.5 2405,-514.5 2405,-447.5 2154,-447.5"/>
<polygon fill="none" stroke="black" points="2154,-447.5 2154,-514.5 2405,-514.5 2405,-447.5 2154,-447.5"/>
<text text-anchor="start" x="2165" y="-492.3" font-family="Arial" font-size="14.00">+ init: CachePadded&lt;AtomicUsize&gt;</text>
<text text-anchor="start" x="2165" y="-477.3" font-family="Arial" font-size="14.00">+ last: CachePadded&lt;AtomicUsize&gt;</text>
<text text-anchor="start" x="2165" y="-462.3" font-family="Arial" font-size="14.00">+ data: Box&lt;[AtomicU64]&gt;</text>
<polygon fill="none" stroke="black" points="2152.5,-446.5 2152.5,-552.5 2405.5,-552.5 2405.5,-446.5 2152.5,-446.5"/>
</a>
</g>
</g>
<!-- ndVisitQueue&#45;&gt;ndHeap -->
<g id="edge9" class="edge"><title>ndVisitQueue&#45;&gt;ndHeap</title>
<path fill="none" stroke="black" d="M2230.39,-442.442C2203.38,-412.417 2168.55,-375.452 2135,-345 2124.67,-335.622 2113.71,-326.183 2102.55,-316.907"/>
<polygon fill="black" stroke="black" points="2102.4,-316.782 2095.22,-316.059 2093.13,-309.158 2100.3,-309.881 2102.4,-316.782"/>
</g>
<!-- ndU64Map -->
<g id="node16" class="node"><title>ndU64Map</title>
<g id="a_node16_16"><a xlink:href="https://github.com/Kindelia/HVM/blob/master/src/runtime/data/u64_map.rs#:~:text=struct%20U64Map" xlink:title="&lt;TABLE&gt;">
<polygon fill="lightblue" stroke="none" points="2441,-499.5 2441,-536.5 2620,-536.5 2620,-499.5 2441,-499.5"/>
<polygon fill="none" stroke="black" points="2441,-499.5 2441,-536.5 2620,-536.5 2620,-499.5 2441,-499.5"/>
<text text-anchor="start" x="2502" y="-515.3" font-family="Arial" font-weight="bold" font-size="14.00">U64Map</text>
<polygon fill="white" stroke="none" points="2441,-462.5 2441,-499.5 2620,-499.5 2620,-462.5 2441,-462.5"/>
<polygon fill="none" stroke="black" points="2441,-462.5 2441,-499.5 2620,-499.5 2620,-462.5 2441,-462.5"/>
<text text-anchor="start" x="2452" y="-477.3" font-family="Arial" font-size="14.00">+ data: Vec&lt;Option&lt;A&gt;&gt;</text>
<polygon fill="none" stroke="black" points="2439.5,-461.5 2439.5,-537.5 2620.5,-537.5 2620.5,-461.5 2439.5,-461.5"/>
</a>
</g>
</g>
<!-- ndAllocatorNext -->
<g id="node17" class="node"><title>ndAllocatorNext</title>
<g id="a_node17_17"><a xlink:href="https://github.com/Kindelia/HVM/blob/master/src/runtime/data/allocator.rs#:~:text=struct%20AllocatorNext" xlink:title="&lt;TABLE&gt;">
<polygon fill="lightblue" stroke="none" points="2656,-506.5 2656,-543.5 2796,-543.5 2796,-506.5 2656,-506.5"/>
<polygon fill="none" stroke="black" points="2656,-506.5 2656,-543.5 2796,-543.5 2796,-506.5 2656,-506.5"/>
<text text-anchor="start" x="2679" y="-522.3" font-family="Arial" font-weight="bold" font-size="14.00">AllocatorNext</text>
<polygon fill="white" stroke="none" points="2656,-454.5 2656,-506.5 2796,-506.5 2796,-454.5 2656,-454.5"/>
<polygon fill="none" stroke="black" points="2656,-454.5 2656,-506.5 2796,-506.5 2796,-454.5 2656,-454.5"/>
<text text-anchor="start" x="2667" y="-484.3" font-family="Arial" font-size="14.00">+ cell: AtomicU64</text>
<text text-anchor="start" x="2667" y="-469.3" font-family="Arial" font-size="14.00">+ area: AtomicU64</text>
<polygon fill="none" stroke="black" points="2655,-454 2655,-545 2797,-545 2797,-454 2655,-454"/>
</a>
</g>
</g>
<!-- ndAllocator -->
<g id="node18" class="node"><title>ndAllocator</title>
<g id="a_node18_18"><a xlink:href="https://github.com/Kindelia/HVM/blob/master/src/runtime/data/allocator.rs#:~:text=struct%20Allocator" xlink:title="&lt;TABLE&gt;">
<polygon fill="lightblue" stroke="none" points="2572,-236.5 2572,-273.5 2881,-273.5 2881,-236.5 2572,-236.5"/>
<polygon fill="none" stroke="black" points="2572,-236.5 2572,-273.5 2881,-273.5 2881,-236.5 2572,-236.5"/>
<text text-anchor="start" x="2695" y="-252.3" font-family="Arial" font-weight="bold" font-size="14.00">Allocator</text>
<polygon fill="white" stroke="none" points="2572,-154.5 2572,-236.5 2881,-236.5 2881,-154.5 2572,-154.5"/>
<polygon fill="none" stroke="black" points="2572,-154.5 2572,-236.5 2881,-236.5 2881,-154.5 2572,-154.5"/>
<text text-anchor="start" x="2583" y="-214.3" font-family="Arial" font-size="14.00">+ tids: usize</text>
<text text-anchor="start" x="2583" y="-199.3" font-family="Arial" font-size="14.00">+ data: Box&lt;[AtomicU64]&gt;</text>
<text text-anchor="start" x="2583" y="-184.3" font-family="Arial" font-size="14.00">+ used: Box&lt;[AtomicU64]&gt;</text>
<text text-anchor="start" x="2583" y="-169.3" font-family="Arial" font-size="14.00">+ next: Box&lt;[CachePadded&lt;AllocatorNext&gt;]&gt;</text>
<polygon fill="none" stroke="black" points="2570.5,-154 2570.5,-275 2881.5,-275 2881.5,-154 2570.5,-154"/>
</a>
</g>
</g>
<!-- ndAllocatorNext&#45;&gt;ndAllocator -->
<g id="edge10" class="edge"><title>ndAllocatorNext&#45;&gt;ndAllocator</title>
<path fill="none" stroke="black" d="M2726,-449.851C2726,-406.27 2726,-341.652 2726,-291.3"/>
<polygon fill="black" stroke="black" points="2726,-291.156 2722,-285.156 2726,-279.156 2730,-285.156 2726,-291.156"/>
</g>
<!-- ndRuleBook -->
<g id="node19" class="node"><title>ndRuleBook</title>
<g id="a_node19_19"><a xlink:href="https://github.com/Kindelia/HVM/blob/master/src/language/rulebook.rs#:~:text=struct%20RuleBook" xlink:title="&lt;TABLE&gt;">
<polygon fill="lightblue" stroke="none" points="1093,-536.5 1093,-573.5 1392,-573.5 1392,-536.5 1093,-536.5"/>
<polygon fill="none" stroke="black" points="1093,-536.5 1093,-573.5 1392,-573.5 1392,-536.5 1093,-536.5"/>
<text text-anchor="start" x="1208.5" y="-552.3" font-family="Arial" font-weight="bold" font-size="14.00">RuleBook</text>
<polygon fill="white" stroke="none" points="1093,-424.5 1093,-536.5 1392,-536.5 1392,-424.5 1093,-424.5"/>
<polygon fill="none" stroke="black" points="1093,-424.5 1093,-536.5 1392,-536.5 1392,-424.5 1093,-424.5"/>
<text text-anchor="start" x="1104" y="-514.3" font-family="Arial" font-size="14.00">+ rule_group: HashMap&lt;String, RuleGroup&gt;</text>
<text text-anchor="start" x="1104" y="-499.3" font-family="Arial" font-size="14.00">+ name_count: u64</text>
<text text-anchor="start" x="1104" y="-484.3" font-family="Arial" font-size="14.00">+ id_to_name: HashMap&lt;u64, String&gt;</text>
<text text-anchor="start" x="1104" y="-469.3" font-family="Arial" font-size="14.00">+ name_to_id: HashMap&lt;String, u64&gt;</text>
<text text-anchor="start" x="1104" y="-454.3" font-family="Arial" font-size="14.00">+ id_to_arit: HashMap&lt;u64, u64&gt;</text>
<text text-anchor="start" x="1104" y="-439.3" font-family="Arial" font-size="14.00">+ ctr_is_cal: HashMap&lt;String, bool&gt;</text>
<polygon fill="none" stroke="black" points="1091.5,-424 1091.5,-575 1392.5,-575 1392.5,-424 1091.5,-424"/>
</a>
</g>
</g>
<!-- ndRuleBook&#45;&gt;ndProgram -->
<g id="edge11" class="edge"><title>ndRuleBook&#45;&gt;ndProgram</title>
<path fill="none" stroke="black" stroke-dasharray="5,2" d="M1209.69,-419.669C1191.84,-376.122 1169.92,-322.652 1152.99,-281.356"/>
<polygon fill="black" stroke="black" points="1149.13,-271.938 1157.09,-279.484 1151.03,-276.564 1152.93,-281.191 1152.93,-281.191 1152.93,-281.191 1151.03,-276.564 1148.76,-282.898 1149.13,-271.938 1149.13,-271.938"/>
</g>
<!-- ndSanitizedRule -->
<g id="node20" class="node"><title>ndSanitizedRule</title>
<g id="a_node20_20"><a xlink:href="https://github.com/Kindelia/HVM/blob/master/src/language/rulebook.rs#:~:text=struct%20SanitizedRule" xlink:title="&lt;TABLE&gt;">
<polygon fill="lightblue" stroke="none" points="2833,-506.5 2833,-543.5 3050,-543.5 3050,-506.5 2833,-506.5"/>
<polygon fill="none" stroke="black" points="2833,-506.5 2833,-543.5 3050,-543.5 3050,-506.5 2833,-506.5"/>
<text text-anchor="start" x="2894" y="-522.3" font-family="Arial" font-weight="bold" font-size="14.00">SanitizedRule</text>
<polygon fill="white" stroke="none" points="2833,-454.5 2833,-506.5 3050,-506.5 3050,-454.5 2833,-454.5"/>
<polygon fill="none" stroke="black" points="2833,-454.5 2833,-506.5 3050,-506.5 3050,-454.5 2833,-454.5"/>
<text text-anchor="start" x="2844" y="-484.3" font-family="Arial" font-size="14.00">+ rule: language::syntax::Rule</text>
<text text-anchor="start" x="2844" y="-469.3" font-family="Arial" font-size="14.00">+ uses: HashMap&lt;String, u64&gt;</text>
<polygon fill="none" stroke="black" points="2831.5,-454 2831.5,-545 3050.5,-545 3050.5,-454 2831.5,-454"/>
</a>
</g>
</g>
<!-- ndState -->
<g id="node21" class="node"><title>ndState</title>
<g id="a_node21_21"><a xlink:href="https://github.com/Kindelia/HVM/blob/master/src/language/parser.rs#:~:text=struct%20State" xlink:title="&lt;TABLE&gt;">
<polygon fill="lightblue" stroke="none" points="3086,-506.5 3086,-543.5 3200,-543.5 3200,-506.5 3086,-506.5"/>
<polygon fill="none" stroke="black" points="3086,-506.5 3086,-543.5 3200,-543.5 3200,-506.5 3086,-506.5"/>
<text text-anchor="start" x="3125" y="-522.3" font-family="Arial" font-weight="bold" font-size="14.00">State</text>
<polygon fill="white" stroke="none" points="3086,-454.5 3086,-506.5 3200,-506.5 3200,-454.5 3086,-454.5"/>
<polygon fill="none" stroke="black" points="3086,-454.5 3086,-506.5 3200,-506.5 3200,-454.5 3086,-454.5"/>
<text text-anchor="start" x="3097" y="-484.3" font-family="Arial" font-size="14.00">+ code: &amp;&#39;a str</text>
<text text-anchor="start" x="3097" y="-469.3" font-family="Arial" font-size="14.00">+ index: usize</text>
<polygon fill="none" stroke="black" points="3085,-454 3085,-545 3201,-545 3201,-454 3085,-454"/>
</a>
</g>
</g>
<!-- ndTestree -->
<g id="node22" class="node"><title>ndTestree</title>
<g id="a_node22_22"><a xlink:href="https://github.com/Kindelia/HVM/blob/master/src/language/parser.rs#:~:text=enum%20Testree" xlink:title="&lt;TABLE&gt;">
<polygon fill="yellow" stroke="none" points="3237,-506.5 3237,-543.5 3312,-543.5 3312,-506.5 3237,-506.5"/>
<polygon fill="none" stroke="black" points="3237,-506.5 3237,-543.5 3312,-543.5 3312,-506.5 3237,-506.5"/>
<text text-anchor="start" x="3248" y="-522.3" font-family="Arial" font-weight="bold" font-size="14.00">Testree</text>
<polygon fill="white" stroke="none" points="3237,-454.5 3237,-506.5 3312,-506.5 3312,-454.5 3237,-454.5"/>
<polygon fill="none" stroke="black" points="3237,-454.5 3237,-506.5 3312,-506.5 3312,-454.5 3237,-454.5"/>
<text text-anchor="start" x="3248" y="-484.3" font-family="Arial" font-size="14.00">Node</text>
<text text-anchor="start" x="3248" y="-469.3" font-family="Arial" font-size="14.00">Leaf</text>
<polygon fill="none" stroke="black" points="3235.5,-454 3235.5,-545 3312.5,-545 3312.5,-454 3235.5,-454"/>
</a>
</g>
</g>
<!-- ndTerm -->
<g id="node23" class="node"><title>ndTerm</title>
<g id="a_node23_23"><a xlink:href="https://github.com/Kindelia/HVM/blob/master/src/language/syntax.rs#:~:text=enum%20Term" xlink:title="&lt;TABLE&gt;">
<polygon fill="yellow" stroke="none" points="503,-566.5 503,-603.5 562,-603.5 562,-566.5 503,-566.5"/>
<polygon fill="none" stroke="black" points="503,-566.5 503,-603.5 562,-603.5 562,-566.5 503,-566.5"/>
<text text-anchor="start" x="514" y="-582.3" font-family="Arial" font-weight="bold" font-size="14.00">Term</text>
<polygon fill="white" stroke="none" points="503,-394.5 503,-566.5 562,-566.5 562,-394.5 503,-394.5"/>
<polygon fill="none" stroke="black" points="503,-394.5 503,-566.5 562,-566.5 562,-394.5 503,-394.5"/>
<text text-anchor="start" x="514" y="-544.3" font-family="Arial" font-size="14.00">Var</text>
<text text-anchor="start" x="514" y="-529.3" font-family="Arial" font-size="14.00">Dup</text>
<text text-anchor="start" x="514" y="-514.3" font-family="Arial" font-size="14.00">Sup</text>
<text text-anchor="start" x="514" y="-499.3" font-family="Arial" font-size="14.00">Let</text>
<text text-anchor="start" x="514" y="-484.3" font-family="Arial" font-size="14.00">Lam</text>
<text text-anchor="start" x="514" y="-469.3" font-family="Arial" font-size="14.00">App</text>
<text text-anchor="start" x="514" y="-454.3" font-family="Arial" font-size="14.00">Ctr</text>
<text text-anchor="start" x="514" y="-439.3" font-family="Arial" font-size="14.00">U6O</text>
<text text-anchor="start" x="514" y="-424.3" font-family="Arial" font-size="14.00">F6O</text>
<text text-anchor="start" x="514" y="-409.3" font-family="Arial" font-size="14.00">Op2</text>
<polygon fill="none" stroke="black" points="501.5,-394 501.5,-605 562.5,-605 562.5,-394 501.5,-394"/>
</a>
</g>
</g>
<!-- ndTerm&#45;&gt;ndRule -->
<g id="edge12" class="edge"><title>ndTerm&#45;&gt;ndRule</title>
<path fill="none" stroke="black" d="M502.883,-389.815C497.374,-374.449 491.081,-359.097 484,-345 471.565,-320.242 454.553,-295.122 438.417,-273.678"/>
<polygon fill="black" stroke="black" points="438.379,-273.627 431.556,-271.294 431.085,-264.098 437.908,-266.431 438.379,-273.627"/>
</g>
<!-- ndOper -->
<g id="node24" class="node"><title>ndOper</title>
<g id="a_node24_24"><a xlink:href="https://github.com/Kindelia/HVM/blob/master/src/language/syntax.rs#:~:text=enum%20Oper" xlink:title="&lt;TABLE&gt;">
<polygon fill="yellow" stroke="none" points="3348,-611.5 3348,-648.5 3405,-648.5 3405,-611.5 3348,-611.5"/>
<polygon fill="none" stroke="black" points="3348,-611.5 3348,-648.5 3405,-648.5 3405,-611.5 3348,-611.5"/>
<text text-anchor="start" x="3359" y="-627.3" font-family="Arial" font-weight="bold" font-size="14.00">Oper</text>
<polygon fill="white" stroke="none" points="3348,-349.5 3348,-611.5 3405,-611.5 3405,-349.5 3348,-349.5"/>
<polygon fill="none" stroke="black" points="3348,-349.5 3348,-611.5 3405,-611.5 3405,-349.5 3348,-349.5"/>
<text text-anchor="start" x="3359" y="-589.3" font-family="Arial" font-size="14.00">Add</text>
<text text-anchor="start" x="3359" y="-574.3" font-family="Arial" font-size="14.00">Sub</text>
<text text-anchor="start" x="3359" y="-559.3" font-family="Arial" font-size="14.00">Mul</text>
<text text-anchor="start" x="3359" y="-544.3" font-family="Arial" font-size="14.00">Div</text>
<text text-anchor="start" x="3359" y="-529.3" font-family="Arial" font-size="14.00">Mod</text>
<text text-anchor="start" x="3359" y="-514.3" font-family="Arial" font-size="14.00">And</text>
<text text-anchor="start" x="3359" y="-499.3" font-family="Arial" font-size="14.00">Or</text>
<text text-anchor="start" x="3359" y="-484.3" font-family="Arial" font-size="14.00">Xor</text>
<text text-anchor="start" x="3359" y="-469.3" font-family="Arial" font-size="14.00">Shl</text>
<text text-anchor="start" x="3359" y="-454.3" font-family="Arial" font-size="14.00">Shr</text>
<text text-anchor="start" x="3359" y="-439.3" font-family="Arial" font-size="14.00">Lte</text>
<text text-anchor="start" x="3359" y="-424.3" font-family="Arial" font-size="14.00">Ltn</text>
<text text-anchor="start" x="3359" y="-409.3" font-family="Arial" font-size="14.00">Eql</text>
<text text-anchor="start" x="3359" y="-394.3" font-family="Arial" font-size="14.00">Gte</text>
<text text-anchor="start" x="3359" y="-379.3" font-family="Arial" font-size="14.00">Gtn</text>
<text text-anchor="start" x="3359" y="-364.3" font-family="Arial" font-size="14.00">Neq</text>
<polygon fill="none" stroke="black" points="3346.5,-349 3346.5,-650 3405.5,-650 3405.5,-349 3346.5,-349"/>
</a>
</g>
</g>
<!-- ndCli -->
<g id="node26" class="node"><title>ndCli</title>
<g id="a_node26_25"><a xlink:href="https://github.com/Kindelia/HVM/blob/master/src/main.rs#:~:text=struct%20Cli" xlink:title="&lt;TABLE&gt;">
<polygon fill="lightblue" stroke="none" points="3402,-214.5 3402,-251.5 3573,-251.5 3573,-214.5 3402,-214.5"/>
<polygon fill="none" stroke="black" points="3402,-214.5 3402,-251.5 3573,-251.5 3573,-214.5 3402,-214.5"/>
<text text-anchor="start" x="3478" y="-230.3" font-family="Arial" font-weight="bold" font-size="14.00">Cli</text>
<polygon fill="white" stroke="none" points="3402,-177.5 3402,-214.5 3573,-214.5 3573,-177.5 3402,-177.5"/>
<polygon fill="none" stroke="black" points="3402,-177.5 3402,-214.5 3573,-214.5 3573,-177.5 3402,-177.5"/>
<text text-anchor="start" x="3413" y="-192.3" font-family="Arial" font-size="14.00">+ command: Command</text>
<polygon fill="none" stroke="black" points="3400.5,-176.5 3400.5,-252.5 3573.5,-252.5 3573.5,-176.5 3400.5,-176.5"/>
</a>
</g>
</g>
<!-- ndCommand -->
<g id="node27" class="node"><title>ndCommand</title>
<g id="a_node27_26"><a xlink:href="https://github.com/Kindelia/HVM/blob/master/src/main.rs#:~:text=enum%20Command" xlink:title="&lt;TABLE&gt;">
<polygon fill="yellow" stroke="none" points="3440,-506.5 3440,-543.5 3534,-543.5 3534,-506.5 3440,-506.5"/>
<polygon fill="none" stroke="black" points="3440,-506.5 3440,-543.5 3534,-543.5 3534,-506.5 3440,-506.5"/>
<text text-anchor="start" x="3451" y="-522.3" font-family="Arial" font-weight="bold" font-size="14.00">Command</text>
<polygon fill="white" stroke="none" points="3440,-454.5 3440,-506.5 3534,-506.5 3534,-454.5 3440,-454.5"/>
<polygon fill="none" stroke="black" points="3440,-454.5 3440,-506.5 3534,-506.5 3534,-454.5 3440,-454.5"/>
<text text-anchor="start" x="3451" y="-484.3" font-family="Arial" font-size="14.00">Run</text>
<text text-anchor="start" x="3451" y="-469.3" font-family="Arial" font-size="14.00">Compile</text>
<polygon fill="none" stroke="black" points="3439,-454 3439,-545 3535,-545 3535,-454 3439,-454"/>
</a>
</g>
</g>
<!-- ndCommand&#45;&gt;ndCli -->
<g id="edge13" class="edge"><title>ndCommand&#45;&gt;ndCli</title>
<path fill="none" stroke="black" d="M3487,-449.851C3487,-399.482 3487,-321.009 3487,-268.941"/>
<polygon fill="black" stroke="black" points="3487,-268.631 3483,-262.631 3487,-256.631 3491,-262.631 3487,-268.631"/>
</g>
</g>
</svg>
