<?xml version="1.0" encoding="UTF-8" standalone="no"?>
<!DOCTYPE svg PUBLIC "-//W3C//DTD SVG 1.1//EN"
 "http://www.w3.org/Graphics/SVG/1.1/DTD/svg11.dtd">
<!-- Generated by graphviz version 2.38.0 (20140413.2041)
 -->
<!-- Title: ml Pages: 1 -->
<svg width="2326pt" height="221pt"
 viewBox="0.00 0.00 2326.00 221.00" xmlns="http://www.w3.org/2000/svg" xmlns:xlink="http://www.w3.org/1999/xlink">
<g id="graph0" class="graph" transform="scale(1 1) rotate(0) translate(4 217)">
<title>ml</title>
<polygon fill="white" stroke="none" points="-4,4 -4,-217 2322,-217 2322,4 -4,4"/>
<!-- ndPrecompFns -->
<g id="node1" class="node"><title>ndPrecompFns</title>
<g id="a_node1_0"><a xlink:href="https://github.com/Kindelia/HVM/blob/master/src/runtime/base/precomp.rs#:~:text=struct%20PrecompFns" xlink:title="&lt;TABLE&gt;">
<polygon fill="lightblue" stroke="none" points="9,-170.5 9,-207.5 121,-207.5 121,-170.5 9,-170.5"/>
<polygon fill="none" stroke="black" points="9,-170.5 9,-207.5 121,-207.5 121,-170.5 9,-170.5"/>
<text text-anchor="start" x="20" y="-186.3" font-family="Arial" font-weight="bold" font-size="14.00">PrecompFns</text>
<polygon fill="none" stroke="black" points="8,-170 8,-209 122,-209 122,-170 8,-170"/>
</a>
</g>
</g>
<!-- ndPrecomp -->
<g id="node2" class="node"><title>ndPrecomp</title>
<g id="a_node2_1"><a xlink:href="https://github.com/Kindelia/HVM/blob/master/src/runtime/base/precomp.rs#:~:text=struct%20Precomp" xlink:title="&lt;TABLE&gt;">
<polygon fill="lightblue" stroke="none" points="22,-87.5 22,-124.5 108,-124.5 108,-87.5 22,-87.5"/>
<polygon fill="none" stroke="black" points="22,-87.5 22,-124.5 108,-124.5 108,-87.5 22,-87.5"/>
<text text-anchor="start" x="33" y="-103.3" font-family="Arial" font-weight="bold" font-size="14.00">Precomp</text>
<polygon fill="none" stroke="black" points="21,-87 21,-126 109,-126 109,-87 21,-87"/>
</a>
</g>
</g>
<!-- ndPrecompFns&#45;&gt;ndPrecomp -->
<g id="edge1" class="edge"><title>ndPrecompFns&#45;&gt;ndPrecomp</title>
<path fill="none" stroke="black" d="M65,-165.937C65,-158.626 65,-150.337 65,-142.348"/>
<polygon fill="black" stroke="black" points="65.0001,-142.223 61,-136.223 65,-130.223 69,-136.223 65.0001,-142.223"/>
</g>
<!-- ndCore -->
<g id="node3" class="node"><title>ndCore</title>
<g id="a_node3_2"><a xlink:href="https://github.com/Kindelia/HVM/blob/master/src/runtime/base/program.rs#:~:text=enum%20Core" xlink:title="&lt;TABLE&gt;">
<polygon fill="yellow" stroke="none" points="157,-170.5 157,-207.5 213,-207.5 213,-170.5 157,-170.5"/>
<polygon fill="none" stroke="black" points="157,-170.5 157,-207.5 213,-207.5 213,-170.5 157,-170.5"/>
<text text-anchor="start" x="168" y="-186.3" font-family="Arial" font-weight="bold" font-size="14.00">Core</text>
<polygon fill="none" stroke="black" points="156,-170 156,-209 214,-209 214,-170 156,-170"/>
</a>
</g>
</g>
<!-- ndRule -->
<g id="node4" class="node"><title>ndRule</title>
<g id="a_node4_3"><a xlink:href="https://github.com/Kindelia/HVM/blob/master/src/language/syntax.rs#:~:text=struct%20Rule" xlink:title="&lt;TABLE&gt;">
<polygon fill="lightblue" stroke="none" points="262,-87.5 262,-124.5 315,-124.5 315,-87.5 262,-87.5"/>
<polygon fill="none" stroke="black" points="262,-87.5 262,-124.5 315,-124.5 315,-87.5 262,-87.5"/>
<text text-anchor="start" x="273" y="-103.3" font-family="Arial" font-weight="bold" font-size="14.00">Rule</text>
<polygon fill="none" stroke="black" points="260.5,-87 260.5,-126 315.5,-126 315.5,-87 260.5,-87"/>
</a>
</g>
</g>
<!-- ndCore&#45;&gt;ndRule -->
<g id="edge2" class="edge"><title>ndCore&#45;&gt;ndRule</title>
<path fill="none" stroke="black" d="M213.691,-165.937C224.759,-157.233 237.588,-147.144 249.44,-137.824"/>
<polygon fill="black" stroke="black" points="249.673,-137.641 251.916,-130.788 259.105,-130.223 256.862,-137.076 249.673,-137.641"/>
</g>
<!-- ndApplyObj -->
<g id="node8" class="node"><title>ndApplyObj</title>
<g id="a_node8_4"><a xlink:href="https://github.com/Kindelia/HVM/blob/master/src/runtime/base/program.rs#:~:text=struct%20ApplyObj" xlink:title="&lt;TABLE&gt;">
<polygon fill="lightblue" stroke="none" points="193,-4.5 193,-41.5 279,-41.5 279,-4.5 193,-4.5"/>
<polygon fill="none" stroke="black" points="193,-4.5 193,-41.5 279,-41.5 279,-4.5 193,-4.5"/>
<text text-anchor="start" x="204" y="-20.3" font-family="Arial" font-weight="bold" font-size="14.00">ApplyObj</text>
<polygon fill="none" stroke="black" points="192,-4 192,-43 280,-43 280,-4 192,-4"/>
</a>
</g>
</g>
<!-- ndRule&#45;&gt;ndApplyObj -->
<g id="edge3" class="edge"><title>ndRule&#45;&gt;ndApplyObj</title>
<path fill="none" stroke="black" d="M273.515,-82.937C268.43,-75.0164 262.609,-65.9488 257.094,-57.3574"/>
<polygon fill="black" stroke="black" points="257.07,-57.3212 250.463,-54.433 250.588,-47.2229 257.195,-50.1111 257.07,-57.3212"/>
</g>
<!-- ndFile -->
<g id="node25" class="node"><title>ndFile</title>
<g id="a_node25_5"><a xlink:href="https://github.com/Kindelia/HVM/blob/master/src/language/syntax.rs#:~:text=struct%20File" xlink:title="&lt;TABLE&gt;">
<polygon fill="lightblue" stroke="none" points="316,-4.5 316,-41.5 363,-41.5 363,-4.5 316,-4.5"/>
<polygon fill="none" stroke="black" points="316,-4.5 316,-41.5 363,-41.5 363,-4.5 316,-4.5"/>
<text text-anchor="start" x="327" y="-20.3" font-family="Arial" font-weight="bold" font-size="14.00">File</text>
<polygon fill="none" stroke="black" points="314.5,-4 314.5,-43 363.5,-43 363.5,-4 314.5,-4"/>
</a>
</g>
</g>
<!-- ndRule&#45;&gt;ndFile -->
<g id="edge4" class="edge"><title>ndRule&#45;&gt;ndFile</title>
<path fill="none" stroke="black" d="M302.206,-82.937C307.139,-75.1035 312.777,-66.148 318.134,-57.6408"/>
<polygon fill="black" stroke="black" points="318.299,-57.3778 318.111,-50.1691 324.693,-47.2229 324.881,-54.4316 318.299,-57.3778"/>
</g>
<!-- ndRuleVar -->
<g id="node5" class="node"><title>ndRuleVar</title>
<g id="a_node5_6"><a xlink:href="https://github.com/Kindelia/HVM/blob/master/src/runtime/base/program.rs#:~:text=struct%20RuleVar" xlink:title="&lt;TABLE&gt;">
<polygon fill="lightblue" stroke="none" points="250,-170.5 250,-207.5 327,-207.5 327,-170.5 250,-170.5"/>
<polygon fill="none" stroke="black" points="250,-170.5 250,-207.5 327,-207.5 327,-170.5 250,-170.5"/>
<text text-anchor="start" x="261" y="-186.3" font-family="Arial" font-weight="bold" font-size="14.00">RuleVar</text>
<polygon fill="none" stroke="black" points="248.5,-170 248.5,-209 327.5,-209 327.5,-170 248.5,-170"/>
</a>
</g>
</g>
<!-- ndRuleVar&#45;&gt;ndRule -->
<g id="edge5" class="edge"><title>ndRuleVar&#45;&gt;ndRule</title>
<path fill="none" stroke="black" d="M288,-165.937C288,-158.626 288,-150.337 288,-142.348"/>
<polygon fill="black" stroke="black" points="288,-142.223 284,-136.223 288,-130.223 292,-136.223 288,-142.223"/>
</g>
<!-- ndRuleBodyCell -->
<g id="node6" class="node"><title>ndRuleBodyCell</title>
<g id="a_node6_7"><a xlink:href="https://github.com/Kindelia/HVM/blob/master/src/runtime/base/program.rs#:~:text=enum%20RuleBodyCell" xlink:title="&lt;TABLE&gt;">
<polygon fill="yellow" stroke="none" points="458,-170.5 458,-207.5 574,-207.5 574,-170.5 458,-170.5"/>
<polygon fill="none" stroke="black" points="458,-170.5 458,-207.5 574,-207.5 574,-170.5 458,-170.5"/>
<text text-anchor="start" x="469" y="-186.3" font-family="Arial" font-weight="bold" font-size="14.00">RuleBodyCell</text>
<polygon fill="none" stroke="black" points="457,-170 457,-209 575,-209 575,-170 457,-170"/>
</a>
</g>
</g>
<!-- ndVisitObj -->
<g id="node7" class="node"><title>ndVisitObj</title>
<g id="a_node7_8"><a xlink:href="https://github.com/Kindelia/HVM/blob/master/src/runtime/base/program.rs#:~:text=struct%20VisitObj" xlink:title="&lt;TABLE&gt;">
<polygon fill="lightblue" stroke="none" points="611,-170.5 611,-207.5 688,-207.5 688,-170.5 611,-170.5"/>
<polygon fill="none" stroke="black" points="611,-170.5 611,-207.5 688,-207.5 688,-170.5 611,-170.5"/>
<text text-anchor="start" x="622" y="-186.3" font-family="Arial" font-weight="bold" font-size="14.00">VisitObj</text>
<polygon fill="none" stroke="black" points="609.5,-170 609.5,-209 688.5,-209 688.5,-170 609.5,-170"/>
</a>
</g>
</g>
<!-- ndFunction -->
<g id="node9" class="node"><title>ndFunction</title>
<g id="a_node9_9"><a xlink:href="https://github.com/Kindelia/HVM/blob/master/src/runtime/base/program.rs#:~:text=enum%20Function" xlink:title="&lt;TABLE&gt;">
<polygon fill="yellow" stroke="none" points="724,-170.5 724,-207.5 808,-207.5 808,-170.5 724,-170.5"/>
<polygon fill="none" stroke="black" points="724,-170.5 724,-207.5 808,-207.5 808,-170.5 724,-170.5"/>
<text text-anchor="start" x="735" y="-186.3" font-family="Arial" font-weight="bold" font-size="14.00">Function</text>
<polygon fill="none" stroke="black" points="723,-170 723,-209 809,-209 809,-170 723,-170"/>
</a>
</g>
</g>
<!-- ndProgram -->
<g id="node10" class="node"><title>ndProgram</title>
<g id="a_node10_10"><a xlink:href="https://github.com/Kindelia/HVM/blob/master/src/runtime/base/program.rs#:~:text=struct%20Program" xlink:title="&lt;TABLE&gt;">
<polygon fill="lightblue" stroke="none" points="786,-87.5 786,-124.5 869,-124.5 869,-87.5 786,-87.5"/>
<polygon fill="none" stroke="black" points="786,-87.5 786,-124.5 869,-124.5 869,-87.5 786,-87.5"/>
<text text-anchor="start" x="797" y="-103.3" font-family="Arial" font-weight="bold" font-size="14.00">Program</text>
<polygon fill="none" stroke="black" points="784.5,-87 784.5,-126 869.5,-126 869.5,-87 784.5,-87"/>
</a>
</g>
</g>
<!-- ndFunction&#45;&gt;ndProgram -->
<g id="edge6" class="edge"><title>ndFunction&#45;&gt;ndProgram</title>
<path fill="none" stroke="black" stroke-dasharray="5,2" d="M782.992,-165.937C789.416,-157.407 796.841,-147.547 803.742,-138.384"/>
<polygon fill="black" stroke="black" points="809.888,-130.223 807.467,-140.918 806.88,-134.217 803.872,-138.211 803.872,-138.211 803.872,-138.211 806.88,-134.217 800.277,-135.504 809.888,-130.223 809.888,-130.223"/>
</g>
<!-- ndReduceCtx -->
<g id="node11" class="node"><title>ndReduceCtx</title>
<g id="a_node11_11"><a xlink:href="https://github.com/Kindelia/HVM/blob/master/src/runtime/base/reducer.rs#:~:text=struct%20ReduceCtx" xlink:title="&lt;TABLE&gt;">
<polygon fill="lightblue" stroke="none" points="970,-170.5 970,-207.5 1068,-207.5 1068,-170.5 970,-170.5"/>
<polygon fill="none" stroke="black" points="970,-170.5 970,-207.5 1068,-207.5 1068,-170.5 970,-170.5"/>
<text text-anchor="start" x="981" y="-186.3" font-family="Arial" font-weight="bold" font-size="14.00">ReduceCtx</text>
<polygon fill="none" stroke="black" points="969,-170 969,-209 1069,-209 1069,-170 969,-170"/>
</a>
</g>
</g>
<!-- ndLocalVars -->
<g id="node12" class="node"><title>ndLocalVars</title>
<g id="a_node12_12"><a xlink:href="https://github.com/Kindelia/HVM/blob/master/src/runtime/base/memory.rs#:~:text=struct%20LocalVars" xlink:title="&lt;TABLE&gt;">
<polygon fill="lightblue" stroke="none" points="1104,-170.5 1104,-207.5 1196,-207.5 1196,-170.5 1104,-170.5"/>
<polygon fill="none" stroke="black" points="1104,-170.5 1104,-207.5 1196,-207.5 1196,-170.5 1104,-170.5"/>
<text text-anchor="start" x="1115" y="-186.3" font-family="Arial" font-weight="bold" font-size="14.00">LocalVars</text>
<polygon fill="none" stroke="black" points="1103,-170 1103,-209 1197,-209 1197,-170 1103,-170"/>
</a>
</g>
</g>
<!-- ndHeap -->
<g id="node13" class="node"><title>ndHeap</title>
<g id="a_node13_13"><a xlink:href="https://github.com/Kindelia/HVM/blob/master/src/runtime/base/memory.rs#:~:text=struct%20Heap" xlink:title="&lt;TABLE&gt;">
<polygon fill="lightblue" stroke="none" points="1250,-87.5 1250,-124.5 1308,-124.5 1308,-87.5 1250,-87.5"/>
<polygon fill="none" stroke="black" points="1250,-87.5 1250,-124.5 1308,-124.5 1308,-87.5 1250,-87.5"/>
<text text-anchor="start" x="1261" y="-103.3" font-family="Arial" font-weight="bold" font-size="14.00">Heap</text>
<polygon fill="none" stroke="black" points="1249,-87 1249,-126 1309,-126 1309,-87 1249,-87"/>
</a>
</g>
</g>
<!-- ndLocalVars&#45;&gt;ndHeap -->
<g id="edge7" class="edge"><title>ndLocalVars&#45;&gt;ndHeap</title>
<path fill="none" stroke="black" d="M1185.93,-165.937C1200.35,-156.885 1217.15,-146.335 1232.48,-136.709"/>
<polygon fill="black" stroke="black" points="1232.65,-136.604 1235.6,-130.026 1242.81,-130.223 1239.86,-136.801 1232.65,-136.604"/>
</g>
<!-- ndRedexBag -->
<g id="node14" class="node"><title>ndRedexBag</title>
<g id="a_node14_14"><a xlink:href="https://github.com/Kindelia/HVM/blob/master/src/runtime/data/redex_bag.rs#:~:text=struct%20RedexBag" xlink:title="&lt;TABLE&gt;">
<polygon fill="lightblue" stroke="none" points="1232,-170.5 1232,-207.5 1326,-207.5 1326,-170.5 1232,-170.5"/>
<polygon fill="none" stroke="black" points="1232,-170.5 1232,-207.5 1326,-207.5 1326,-170.5 1232,-170.5"/>
<text text-anchor="start" x="1243" y="-186.3" font-family="Arial" font-weight="bold" font-size="14.00">RedexBag</text>
<polygon fill="none" stroke="black" points="1231,-170 1231,-209 1327,-209 1327,-170 1231,-170"/>
</a>
</g>
</g>
<!-- ndRedexBag&#45;&gt;ndHeap -->
<g id="edge8" class="edge"><title>ndRedexBag&#45;&gt;ndHeap</title>
<path fill="none" stroke="black" d="M1279,-165.937C1279,-158.626 1279,-150.337 1279,-142.348"/>
<polygon fill="black" stroke="black" points="1279,-142.223 1275,-136.223 1279,-130.223 1283,-136.223 1279,-142.223"/>
</g>
<!-- ndVisitQueue -->
<g id="node15" class="node"><title>ndVisitQueue</title>
<g id="a_node15_15"><a xlink:href="https://github.com/Kindelia/HVM/blob/master/src/runtime/data/visit_queue.rs#:~:text=struct%20VisitQueue" xlink:title="&lt;TABLE&gt;">
<polygon fill="lightblue" stroke="none" points="1362,-170.5 1362,-207.5 1460,-207.5 1460,-170.5 1362,-170.5"/>
<polygon fill="none" stroke="black" points="1362,-170.5 1362,-207.5 1460,-207.5 1460,-170.5 1362,-170.5"/>
<text text-anchor="start" x="1373" y="-186.3" font-family="Arial" font-weight="bold" font-size="14.00">VisitQueue</text>
<polygon fill="none" stroke="black" points="1361,-170 1361,-209 1461,-209 1461,-170 1361,-170"/>
</a>
</g>
</g>
<!-- ndVisitQueue&#45;&gt;ndHeap -->
<g id="edge9" class="edge"><title>ndVisitQueue&#45;&gt;ndHeap</title>
<path fill="none" stroke="black" d="M1374.23,-165.937C1359.48,-156.885 1342.29,-146.335 1326.6,-136.709"/>
<polygon fill="black" stroke="black" points="1326.26,-136.499 1319.05,-136.77 1316.03,-130.223 1323.24,-129.952 1326.26,-136.499"/>
</g>
<!-- ndU64Map -->
<g id="node16" class="node"><title>ndU64Map</title>
<g id="a_node16_16"><a xlink:href="https://github.com/Kindelia/HVM/blob/master/src/runtime/data/u64_map.rs#:~:text=struct%20U64Map" xlink:title="&lt;TABLE&gt;">
<polygon fill="lightblue" stroke="none" points="1496,-170.5 1496,-207.5 1575,-207.5 1575,-170.5 1496,-170.5"/>
<polygon fill="none" stroke="black" points="1496,-170.5 1496,-207.5 1575,-207.5 1575,-170.5 1496,-170.5"/>
<text text-anchor="start" x="1507" y="-186.3" font-family="Arial" font-weight="bold" font-size="14.00">U64Map</text>
<polygon fill="none" stroke="black" points="1494.5,-170 1494.5,-209 1575.5,-209 1575.5,-170 1494.5,-170"/>
</a>
</g>
</g>
<!-- ndAllocatorNext -->
<g id="node17" class="node"><title>ndAllocatorNext</title>
<g id="a_node17_17"><a xlink:href="https://github.com/Kindelia/HVM/blob/master/src/runtime/data/allocator.rs#:~:text=struct%20AllocatorNext" xlink:title="&lt;TABLE&gt;">
<polygon fill="lightblue" stroke="none" points="1611,-170.5 1611,-207.5 1727,-207.5 1727,-170.5 1611,-170.5"/>
<polygon fill="none" stroke="black" points="1611,-170.5 1611,-207.5 1727,-207.5 1727,-170.5 1611,-170.5"/>
<text text-anchor="start" x="1622" y="-186.3" font-family="Arial" font-weight="bold" font-size="14.00">AllocatorNext</text>
<polygon fill="none" stroke="black" points="1610,-170 1610,-209 1728,-209 1728,-170 1610,-170"/>
</a>
</g>
</g>
<!-- ndAllocator -->
<g id="node18" class="node"><title>ndAllocator</title>
<g id="a_node18_18"><a xlink:href="https://github.com/Kindelia/HVM/blob/master/src/runtime/data/allocator.rs#:~:text=struct%20Allocator" xlink:title="&lt;TABLE&gt;">
<polygon fill="lightblue" stroke="none" points="1627,-87.5 1627,-124.5 1712,-124.5 1712,-87.5 1627,-87.5"/>
<polygon fill="none" stroke="black" points="1627,-87.5 1627,-124.5 1712,-124.5 1712,-87.5 1627,-87.5"/>
<text text-anchor="start" x="1638" y="-103.3" font-family="Arial" font-weight="bold" font-size="14.00">Allocator</text>
<polygon fill="none" stroke="black" points="1625.5,-87 1625.5,-126 1712.5,-126 1712.5,-87 1625.5,-87"/>
</a>
</g>
</g>
<!-- ndAllocatorNext&#45;&gt;ndAllocator -->
<g id="edge10" class="edge"><title>ndAllocatorNext&#45;&gt;ndAllocator</title>
<path fill="none" stroke="black" d="M1669,-165.937C1669,-158.626 1669,-150.337 1669,-142.348"/>
<polygon fill="black" stroke="black" points="1669,-142.223 1665,-136.223 1669,-130.223 1673,-136.223 1669,-142.223"/>
</g>
<!-- ndRuleBook -->
<g id="node19" class="node"><title>ndRuleBook</title>
<g id="a_node19_19"><a xlink:href="https://github.com/Kindelia/HVM/blob/master/src/language/rulebook.rs#:~:text=struct%20RuleBook" xlink:title="&lt;TABLE&gt;">
<polygon fill="lightblue" stroke="none" points="844,-170.5 844,-207.5 934,-207.5 934,-170.5 844,-170.5"/>
<polygon fill="none" stroke="black" points="844,-170.5 844,-207.5 934,-207.5 934,-170.5 844,-170.5"/>
<text text-anchor="start" x="855" y="-186.3" font-family="Arial" font-weight="bold" font-size="14.00">RuleBook</text>
<polygon fill="none" stroke="black" points="843,-170 843,-209 935,-209 935,-170 843,-170"/>
</a>
</g>
</g>
<!-- ndRuleBook&#45;&gt;ndProgram -->
<g id="edge11" class="edge"><title>ndRuleBook&#45;&gt;ndProgram</title>
<path fill="none" stroke="black" stroke-dasharray="5,2" d="M871.73,-165.937C865.201,-157.407 857.653,-147.547 850.64,-138.384"/>
<polygon fill="black" stroke="black" points="844.393,-130.223 854.044,-135.429 847.432,-134.193 850.471,-138.164 850.471,-138.164 850.471,-138.164 847.432,-134.193 846.898,-140.899 844.393,-130.223 844.393,-130.223"/>
</g>
<!-- ndSanitizedRule -->
<g id="node20" class="node"><title>ndSanitizedRule</title>
<g id="a_node20_20"><a xlink:href="https://github.com/Kindelia/HVM/blob/master/src/language/rulebook.rs#:~:text=struct%20SanitizedRule" xlink:title="&lt;TABLE&gt;">
<polygon fill="lightblue" stroke="none" points="1764,-170.5 1764,-207.5 1881,-207.5 1881,-170.5 1764,-170.5"/>
<polygon fill="none" stroke="black" points="1764,-170.5 1764,-207.5 1881,-207.5 1881,-170.5 1764,-170.5"/>
<text text-anchor="start" x="1775" y="-186.3" font-family="Arial" font-weight="bold" font-size="14.00">SanitizedRule</text>
<polygon fill="none" stroke="black" points="1762.5,-170 1762.5,-209 1881.5,-209 1881.5,-170 1762.5,-170"/>
</a>
</g>
</g>
<!-- ndState -->
<g id="node21" class="node"><title>ndState</title>
<g id="a_node21_21"><a xlink:href="https://github.com/Kindelia/HVM/blob/master/src/language/parser.rs#:~:text=struct%20State" xlink:title="&lt;TABLE&gt;">
<polygon fill="lightblue" stroke="none" points="1917,-170.5 1917,-207.5 1975,-207.5 1975,-170.5 1917,-170.5"/>
<polygon fill="none" stroke="black" points="1917,-170.5 1917,-207.5 1975,-207.5 1975,-170.5 1917,-170.5"/>
<text text-anchor="start" x="1928" y="-186.3" font-family="Arial" font-weight="bold" font-size="14.00">State</text>
<polygon fill="none" stroke="black" points="1916,-170 1916,-209 1976,-209 1976,-170 1916,-170"/>
</a>
</g>
</g>
<!-- ndTestree -->
<g id="node22" class="node"><title>ndTestree</title>
<g id="a_node22_22"><a xlink:href="https://github.com/Kindelia/HVM/blob/master/src/language/parser.rs#:~:text=enum%20Testree" xlink:title="&lt;TABLE&gt;">
<polygon fill="yellow" stroke="none" points="2012,-170.5 2012,-207.5 2087,-207.5 2087,-170.5 2012,-170.5"/>
<polygon fill="none" stroke="black" points="2012,-170.5 2012,-207.5 2087,-207.5 2087,-170.5 2012,-170.5"/>
<text text-anchor="start" x="2023" y="-186.3" font-family="Arial" font-weight="bold" font-size="14.00">Testree</text>
<polygon fill="none" stroke="black" points="2010.5,-170 2010.5,-209 2087.5,-209 2087.5,-170 2010.5,-170"/>
</a>
</g>
</g>
<!-- ndTerm -->
<g id="node23" class="node"><title>ndTerm</title>
<g id="a_node23_23"><a xlink:href="https://github.com/Kindelia/HVM/blob/master/src/language/syntax.rs#:~:text=enum%20Term" xlink:title="&lt;TABLE&gt;">
<polygon fill="yellow" stroke="none" points="363,-170.5 363,-207.5 422,-207.5 422,-170.5 363,-170.5"/>
<polygon fill="none" stroke="black" points="363,-170.5 363,-207.5 422,-207.5 422,-170.5 363,-170.5"/>
<text text-anchor="start" x="374" y="-186.3" font-family="Arial" font-weight="bold" font-size="14.00">Term</text>
<polygon fill="none" stroke="black" points="361.5,-170 361.5,-209 422.5,-209 422.5,-170 361.5,-170"/>
</a>
</g>
</g>
<!-- ndTerm&#45;&gt;ndRule -->
<g id="edge12" class="edge"><title>ndTerm&#45;&gt;ndRule</title>
<path fill="none" stroke="black" d="M363.03,-165.937C351.855,-157.233 338.901,-147.144 326.934,-137.824"/>
<polygon fill="black" stroke="black" points="326.642,-137.597 319.451,-137.066 317.175,-130.223 324.367,-130.754 326.642,-137.597"/>
</g>
<!-- ndOper -->
<g id="node24" class="node"><title>ndOper</title>
<g id="a_node24_24"><a xlink:href="https://github.com/Kindelia/HVM/blob/master/src/language/syntax.rs#:~:text=enum%20Oper" xlink:title="&lt;TABLE&gt;">
<polygon fill="yellow" stroke="none" points="2123,-170.5 2123,-207.5 2180,-207.5 2180,-170.5 2123,-170.5"/>
<polygon fill="none" stroke="black" points="2123,-170.5 2123,-207.5 2180,-207.5 2180,-170.5 2123,-170.5"/>
<text text-anchor="start" x="2134" y="-186.3" font-family="Arial" font-weight="bold" font-size="14.00">Oper</text>
<polygon fill="none" stroke="black" points="2121.5,-170 2121.5,-209 2180.5,-209 2180.5,-170 2121.5,-170"/>
</a>
</g>
</g>
<!-- ndCli -->
<g id="node26" class="node"><title>ndCli</title>
<g id="a_node26_25"><a xlink:href="https://github.com/Kindelia/HVM/blob/master/src/main.rs#:~:text=struct%20Cli" xlink:title="&lt;TABLE&gt;">
<polygon fill="lightblue" stroke="none" points="2242,-87.5 2242,-124.5 2283,-124.5 2283,-87.5 2242,-87.5"/>
<polygon fill="none" stroke="black" points="2242,-87.5 2242,-124.5 2283,-124.5 2283,-87.5 2242,-87.5"/>
<text text-anchor="start" x="2253" y="-103.3" font-family="Arial" font-weight="bold" font-size="14.00">Cli</text>
<polygon fill="none" stroke="black" points="2240.5,-87 2240.5,-126 2283.5,-126 2283.5,-87 2240.5,-87"/>
</a>
</g>
</g>
<!-- ndCommand -->
<g id="node27" class="node"><title>ndCommand</title>
<g id="a_node27_26"><a xlink:href="https://github.com/Kindelia/HVM/blob/master/src/main.rs#:~:text=enum%20Command" xlink:title="&lt;TABLE&gt;">
<polygon fill="yellow" stroke="none" points="2215,-170.5 2215,-207.5 2309,-207.5 2309,-170.5 2215,-170.5"/>
<polygon fill="none" stroke="black" points="2215,-170.5 2215,-207.5 2309,-207.5 2309,-170.5 2215,-170.5"/>
<text text-anchor="start" x="2226" y="-186.3" font-family="Arial" font-weight="bold" font-size="14.00">Command</text>
<polygon fill="none" stroke="black" points="2214,-170 2214,-209 2310,-209 2310,-170 2214,-170"/>
</a>
</g>
</g>
<!-- ndCommand&#45;&gt;ndCli -->
<g id="edge13" class="edge"><title>ndCommand&#45;&gt;ndCli</title>
<path fill="none" stroke="black" d="M2262,-165.937C2262,-158.626 2262,-150.337 2262,-142.348"/>
<polygon fill="black" stroke="black" points="2262,-142.223 2258,-136.223 2262,-130.223 2266,-136.223 2262,-142.223"/>
</g>
</g>
</svg>
