<?xml version="1.0" encoding="UTF-8" standalone="no"?>
<!DOCTYPE svg PUBLIC "-//W3C//DTD SVG 1.1//EN"
 "http://www.w3.org/Graphics/SVG/1.1/DTD/svg11.dtd">
<!-- Generated by graphviz version 2.38.0 (20140413.2041)
 -->
<!-- Title: ml Pages: 1 -->
<svg width="4892pt" height="773pt"
 viewBox="0.00 0.00 4891.50 773.00" xmlns="http://www.w3.org/2000/svg" xmlns:xlink="http://www.w3.org/1999/xlink">
<g id="graph0" class="graph" transform="scale(1 1) rotate(0) translate(4 769)">
<title>ml</title>
<polygon fill="white" stroke="none" points="-4,4 -4,-769 4887.5,-769 4887.5,4 -4,4"/>
<!-- ndPrecompFns -->
<g id="node1" class="node"><title>ndPrecompFns</title>
<g id="a_node1_0"><a xlink:href="https://github.com/Kindelia/HVM/blob/master/src/runtime/base/precomp.rs#:~:text=struct%20PrecompFns" xlink:title="&lt;TABLE&gt;">
<polygon fill="lightblue" stroke="none" points="51,-599 51,-636 186,-636 186,-599 51,-599"/>
<polygon fill="none" stroke="black" points="51,-599 51,-636 186,-636 186,-599 51,-599"/>
<text text-anchor="start" x="73.5" y="-614.8" font-family="Arial" font-weight="bold" font-size="14.00">PrecompFns</text>
<polygon fill="white" stroke="none" points="51,-547 51,-599 186,-599 186,-547 51,-547"/>
<polygon fill="none" stroke="black" points="51,-547 51,-599 186,-599 186,-547 51,-547"/>
<text text-anchor="start" x="62" y="-576.8" font-family="Arial" font-size="14.00">+ visit: VisitFun</text>
<text text-anchor="start" x="62" y="-561.8" font-family="Arial" font-size="14.00">+ apply: ApplyFun</text>
<polygon fill="none" stroke="black" points="49.5,-546.5 49.5,-637.5 186.5,-637.5 186.5,-546.5 49.5,-546.5"/>
</a>
</g>
</g>
<!-- ndPrecomp -->
<g id="node2" class="node"><title>ndPrecomp</title>
<g id="a_node2_1"><a xlink:href="https://github.com/Kindelia/HVM/blob/master/src/runtime/base/precomp.rs#:~:text=struct%20Precomp" xlink:title="&lt;TABLE&gt;">
<polygon fill="lightblue" stroke="none" points="9,-292 9,-329 227,-329 227,-292 9,-292"/>
<polygon fill="none" stroke="black" points="9,-292 9,-329 227,-329 227,-292 9,-292"/>
<text text-anchor="start" x="86" y="-307.8" font-family="Arial" font-weight="bold" font-size="14.00">Precomp</text>
<polygon fill="white" stroke="none" points="9,-210 9,-292 227,-292 227,-210 9,-210"/>
<polygon fill="none" stroke="black" points="9,-210 9,-292 227,-292 227,-210 9,-210"/>
<text text-anchor="start" x="20" y="-269.8" font-family="Arial" font-size="14.00">+ id: u64</text>
<text text-anchor="start" x="20" y="-254.8" font-family="Arial" font-size="14.00">+ name: &amp;&#39;static str</text>
<text text-anchor="start" x="20" y="-239.8" font-family="Arial" font-size="14.00">+ arity: usize</text>
<text text-anchor="start" x="20" y="-224.8" font-family="Arial" font-size="14.00">+ funcs: Option&lt;PrecompFns&gt;</text>
<polygon fill="none" stroke="black" points="8,-209.5 8,-330.5 228,-330.5 228,-209.5 8,-209.5"/>
</a>
</g>
</g>
<!-- ndPrecompFns&#45;&gt;ndPrecomp -->
<g id="edge1" class="edge"><title>ndPrecompFns&#45;&gt;ndPrecomp</title>
<path fill="none" stroke="black" d="M118,-542.399C118,-490.465 118,-407.444 118,-346.886"/>
<polygon fill="black" stroke="black" points="118,-346.708 114,-340.708 118,-334.708 122,-340.708 118,-346.708"/>
</g>
<!-- ndCore -->
<g id="node3" class="node"><title>ndCore</title>
<g id="a_node3_2"><a xlink:href="https://github.com/Kindelia/HVM/blob/master/src/runtime/base/program.rs#:~:text=enum%20Core" xlink:title="&lt;TABLE&gt;">
<polygon fill="yellow" stroke="none" points="300,-674 300,-711 356,-711 356,-674 300,-674"/>
<polygon fill="none" stroke="black" points="300,-674 300,-711 356,-711 356,-674 300,-674"/>
<text text-anchor="start" x="311" y="-689.8" font-family="Arial" font-weight="bold" font-size="14.00">Core</text>
<polygon fill="white" stroke="none" points="300,-472 300,-674 356,-674 356,-472 300,-472"/>
<polygon fill="none" stroke="black" points="300,-472 300,-674 356,-674 356,-472 300,-472"/>
<text text-anchor="start" x="311" y="-651.8" font-family="Arial" font-size="14.00">Var</text>
<text text-anchor="start" x="311" y="-636.8" font-family="Arial" font-size="14.00">Glo</text>
<text text-anchor="start" x="311" y="-621.8" font-family="Arial" font-size="14.00">Dup</text>
<text text-anchor="start" x="311" y="-606.8" font-family="Arial" font-size="14.00">Sup</text>
<text text-anchor="start" x="311" y="-591.8" font-family="Arial" font-size="14.00">Let</text>
<text text-anchor="start" x="311" y="-576.8" font-family="Arial" font-size="14.00">Lam</text>
<text text-anchor="start" x="311" y="-561.8" font-family="Arial" font-size="14.00">App</text>
<text text-anchor="start" x="311" y="-546.8" font-family="Arial" font-size="14.00">Fun</text>
<text text-anchor="start" x="311" y="-531.8" font-family="Arial" font-size="14.00">Ctr</text>
<text text-anchor="start" x="311" y="-516.8" font-family="Arial" font-size="14.00">U6O</text>
<text text-anchor="start" x="311" y="-501.8" font-family="Arial" font-size="14.00">F6O</text>
<text text-anchor="start" x="311" y="-486.8" font-family="Arial" font-size="14.00">Op2</text>
<polygon fill="none" stroke="black" points="299,-471.5 299,-712.5 357,-712.5 357,-471.5 299,-471.5"/>
</a>
</g>
</g>
<!-- ndRule -->
<g id="node4" class="node"><title>ndRule</title>
<g id="a_node4_3"><a xlink:href="https://github.com/Kindelia/HVM/blob/master/src/language/syntax.rs#:~:text=struct%20Rule" xlink:title="&lt;TABLE&gt;">
<polygon fill="lightblue" stroke="none" points="264,-296 264,-333 673,-333 673,-296 264,-296"/>
<polygon fill="none" stroke="black" points="264,-296 264,-333 673,-333 673,-296 264,-296"/>
<text text-anchor="start" x="453" y="-311.8" font-family="Arial" font-weight="bold" font-size="14.00">Rule</text>
<polygon fill="white" stroke="none" points="264,-244 264,-296 673,-296 673,-244 264,-244"/>
<polygon fill="none" stroke="black" points="264,-244 264,-296 673,-296 673,-244 264,-244"/>
<text text-anchor="start" x="275" y="-273.8" font-family="Arial" font-size="14.00">+ lhs: Box&lt;Term&gt;</text>
<text text-anchor="start" x="275" y="-258.8" font-family="Arial" font-size="14.00">+ rhs: Box&lt;Term&gt;</text>
<polygon fill="white" stroke="none" points="264,-207 264,-244 673,-244 673,-207 264,-207"/>
<polygon fill="none" stroke="black" points="264,-207 264,-244 673,-244 673,-207 264,-207"/>
<text text-anchor="start" x="275" y="-221.8" font-family="Arial" font-size="14.00">&#45; fmt(&amp;self, f: &amp;mut std::fmt::Formatter&lt;&#39;_&gt;) &#45;&gt; std::fmt::Result</text>
<polygon fill="none" stroke="black" points="262.5,-206 262.5,-334 673.5,-334 673.5,-206 262.5,-206"/>
</a>
</g>
</g>
<!-- ndCore&#45;&gt;ndRule -->
<g id="edge2" class="edge"><title>ndCore&#45;&gt;ndRule</title>
<path fill="none" stroke="black" d="M356.193,-467.28C361.367,-450.774 367.292,-434.284 374,-419 384.508,-395.059 398.547,-370.521 412.565,-348.483"/>
<polygon fill="black" stroke="black" points="412.691,-348.288 412.592,-341.078 419.209,-338.213 419.309,-345.423 412.691,-348.288"/>
</g>
<!-- ndApplyObj -->
<g id="node8" class="node"><title>ndApplyObj</title>
<g id="a_node8_4"><a xlink:href="https://github.com/Kindelia/HVM/blob/master/src/runtime/base/program.rs#:~:text=struct%20ApplyObj" xlink:title="&lt;TABLE&gt;">
<polygon fill="lightblue" stroke="none" points="241,-60.5 241,-97.5 384,-97.5 384,-60.5 241,-60.5"/>
<polygon fill="none" stroke="black" points="241,-60.5 241,-97.5 384,-97.5 384,-60.5 241,-60.5"/>
<text text-anchor="start" x="280.5" y="-76.3" font-family="Arial" font-weight="bold" font-size="14.00">ApplyObj</text>
<polygon fill="white" stroke="none" points="241,-23.5 241,-60.5 384,-60.5 384,-23.5 241,-23.5"/>
<polygon fill="none" stroke="black" points="241,-23.5 241,-60.5 384,-60.5 384,-23.5 241,-23.5"/>
<text text-anchor="start" x="252" y="-38.3" font-family="Arial" font-size="14.00">+ rules: Vec&lt;Rule&gt;</text>
<polygon fill="none" stroke="black" points="239.5,-22.5 239.5,-98.5 384.5,-98.5 384.5,-22.5 239.5,-22.5"/>
</a>
</g>
</g>
<!-- ndRule&#45;&gt;ndApplyObj -->
<g id="edge3" class="edge"><title>ndRule&#45;&gt;ndApplyObj</title>
<path fill="none" stroke="black" d="M417.567,-201.917C395.685,-172.811 370.481,-139.287 350.189,-112.296"/>
<polygon fill="black" stroke="black" points="350.161,-112.259 343.359,-109.867 342.95,-102.668 349.753,-105.06 350.161,-112.259"/>
</g>
<!-- ndFile -->
<g id="node25" class="node"><title>ndFile</title>
<g id="a_node25_5"><a xlink:href="https://github.com/Kindelia/HVM/blob/master/src/language/syntax.rs#:~:text=struct%20File" xlink:title="&lt;TABLE&gt;">
<polygon fill="lightblue" stroke="none" points="420,-78.5 420,-115.5 829,-115.5 829,-78.5 420,-78.5"/>
<polygon fill="none" stroke="black" points="420,-78.5 420,-115.5 829,-115.5 829,-78.5 420,-78.5"/>
<text text-anchor="start" x="612" y="-94.3" font-family="Arial" font-weight="bold" font-size="14.00">File</text>
<polygon fill="white" stroke="none" points="420,-41.5 420,-78.5 829,-78.5 829,-41.5 420,-41.5"/>
<polygon fill="none" stroke="black" points="420,-41.5 420,-78.5 829,-78.5 829,-41.5 420,-41.5"/>
<text text-anchor="start" x="431" y="-56.3" font-family="Arial" font-size="14.00">+ rules: Vec&lt;Rule&gt;</text>
<polygon fill="white" stroke="none" points="420,-4.5 420,-41.5 829,-41.5 829,-4.5 420,-4.5"/>
<polygon fill="none" stroke="black" points="420,-4.5 420,-41.5 829,-41.5 829,-4.5 420,-4.5"/>
<text text-anchor="start" x="431" y="-19.3" font-family="Arial" font-size="14.00">&#45; fmt(&amp;self, f: &amp;mut std::fmt::Formatter&lt;&#39;_&gt;) &#45;&gt; std::fmt::Result</text>
<polygon fill="none" stroke="black" points="418.5,-4 418.5,-117 829.5,-117 829.5,-4 418.5,-4"/>
</a>
</g>
</g>
<!-- ndRule&#45;&gt;ndFile -->
<g id="edge4" class="edge"><title>ndRule&#45;&gt;ndFile</title>
<path fill="none" stroke="black" d="M518.433,-201.917C535.569,-179.124 554.743,-153.621 571.999,-130.668"/>
<polygon fill="black" stroke="black" points="572.055,-130.594 572.463,-123.395 579.266,-121.002 578.857,-128.202 572.055,-130.594"/>
</g>
<!-- ndRuleVar -->
<g id="node5" class="node"><title>ndRuleVar</title>
<g id="a_node5_6"><a xlink:href="https://github.com/Kindelia/HVM/blob/master/src/runtime/base/program.rs#:~:text=struct%20RuleVar" xlink:title="&lt;TABLE&gt;">
<polygon fill="lightblue" stroke="none" points="392,-607 392,-644 544,-644 544,-607 392,-607"/>
<polygon fill="none" stroke="black" points="392,-607 392,-644 544,-644 544,-607 392,-607"/>
<text text-anchor="start" x="440.5" y="-622.8" font-family="Arial" font-weight="bold" font-size="14.00">RuleVar</text>
<polygon fill="white" stroke="none" points="392,-540 392,-607 544,-607 544,-540 392,-540"/>
<polygon fill="none" stroke="black" points="392,-540 392,-607 544,-607 544,-540 392,-540"/>
<text text-anchor="start" x="403" y="-584.8" font-family="Arial" font-size="14.00">+ param: u64</text>
<text text-anchor="start" x="403" y="-569.8" font-family="Arial" font-size="14.00">+ field: Option&lt;u64&gt;</text>
<text text-anchor="start" x="403" y="-554.8" font-family="Arial" font-size="14.00">+ erase: bool</text>
<polygon fill="none" stroke="black" points="391,-539 391,-645 545,-645 545,-539 391,-539"/>
</a>
</g>
</g>
<!-- ndRuleVar&#45;&gt;ndRule -->
<g id="edge5" class="edge"><title>ndRuleVar&#45;&gt;ndRule</title>
<path fill="none" stroke="black" d="M468,-534.894C468,-483.794 468,-407.785 468,-350.448"/>
<polygon fill="black" stroke="black" points="468,-350.145 464,-344.145 468,-338.145 472,-344.145 468,-350.145"/>
</g>
<!-- ndRuleBodyCell -->
<g id="node6" class="node"><title>ndRuleBodyCell</title>
<g id="a_node6_7"><a xlink:href="https://github.com/Kindelia/HVM/blob/master/src/runtime/base/program.rs#:~:text=enum%20RuleBodyCell" xlink:title="&lt;TABLE&gt;">
<polygon fill="yellow" stroke="none" points="1026,-607 1026,-644 1142,-644 1142,-607 1026,-607"/>
<polygon fill="none" stroke="black" points="1026,-607 1026,-644 1142,-644 1142,-607 1026,-607"/>
<text text-anchor="start" x="1037" y="-622.8" font-family="Arial" font-weight="bold" font-size="14.00">RuleBodyCell</text>
<polygon fill="white" stroke="none" points="1026,-540 1026,-607 1142,-607 1142,-540 1026,-540"/>
<polygon fill="none" stroke="black" points="1026,-540 1026,-607 1142,-607 1142,-540 1026,-540"/>
<text text-anchor="start" x="1037" y="-584.8" font-family="Arial" font-size="14.00">Val</text>
<text text-anchor="start" x="1037" y="-569.8" font-family="Arial" font-size="14.00">Var</text>
<text text-anchor="start" x="1037" y="-554.8" font-family="Arial" font-size="14.00">Ptr</text>
<polygon fill="none" stroke="black" points="1025,-539 1025,-645 1143,-645 1143,-539 1025,-539"/>
</a>
</g>
</g>
<!-- ndVisitObj -->
<g id="node7" class="node"><title>ndVisitObj</title>
<g id="a_node7_8"><a xlink:href="https://github.com/Kindelia/HVM/blob/master/src/runtime/base/program.rs#:~:text=struct%20VisitObj" xlink:title="&lt;TABLE&gt;">
<polygon fill="lightblue" stroke="none" points="1179,-599 1179,-636 1356,-636 1356,-599 1179,-599"/>
<polygon fill="none" stroke="black" points="1179,-599 1179,-636 1356,-636 1356,-599 1179,-599"/>
<text text-anchor="start" x="1240" y="-614.8" font-family="Arial" font-weight="bold" font-size="14.00">VisitObj</text>
<polygon fill="white" stroke="none" points="1179,-547 1179,-599 1356,-599 1356,-547 1179,-547"/>
<polygon fill="none" stroke="black" points="1179,-547 1179,-599 1356,-599 1356,-547 1179,-547"/>
<text text-anchor="start" x="1190" y="-576.8" font-family="Arial" font-size="14.00">+ strict_map: Vec&lt;bool&gt;</text>
<text text-anchor="start" x="1190" y="-561.8" font-family="Arial" font-size="14.00">+ strict_idx: Vec&lt;u64&gt;</text>
<polygon fill="none" stroke="black" points="1177.5,-546.5 1177.5,-637.5 1356.5,-637.5 1356.5,-546.5 1177.5,-546.5"/>
</a>
</g>
</g>
<!-- ndFunction -->
<g id="node9" class="node"><title>ndFunction</title>
<g id="a_node9_9"><a xlink:href="https://github.com/Kindelia/HVM/blob/master/src/runtime/base/program.rs#:~:text=enum%20Function" xlink:title="&lt;TABLE&gt;">
<polygon fill="yellow" stroke="none" points="1392,-599 1392,-636 1484,-636 1484,-599 1392,-599"/>
<polygon fill="none" stroke="black" points="1392,-599 1392,-636 1484,-636 1484,-599 1392,-599"/>
<text text-anchor="start" x="1407" y="-614.8" font-family="Arial" font-weight="bold" font-size="14.00">Function</text>
<polygon fill="white" stroke="none" points="1392,-547 1392,-599 1484,-599 1484,-547 1392,-547"/>
<polygon fill="none" stroke="black" points="1392,-547 1392,-599 1484,-599 1484,-547 1392,-547"/>
<text text-anchor="start" x="1403" y="-576.8" font-family="Arial" font-size="14.00">Interpreted</text>
<text text-anchor="start" x="1403" y="-561.8" font-family="Arial" font-size="14.00">Compiled</text>
<polygon fill="none" stroke="black" points="1391,-546.5 1391,-637.5 1485,-637.5 1485,-546.5 1391,-546.5"/>
</a>
</g>
</g>
<!-- ndProgram -->
<g id="node10" class="node"><title>ndProgram</title>
<g id="a_node10_10"><a xlink:href="https://github.com/Kindelia/HVM/blob/master/src/runtime/base/program.rs#:~:text=struct%20Program" xlink:title="&lt;TABLE&gt;">
<polygon fill="lightblue" stroke="none" points="1349,-318 1349,-355 1759,-355 1759,-318 1349,-318"/>
<polygon fill="none" stroke="black" points="1349,-318 1349,-355 1759,-355 1759,-318 1349,-318"/>
<text text-anchor="start" x="1523.5" y="-333.8" font-family="Arial" font-weight="bold" font-size="14.00">Program</text>
<polygon fill="white" stroke="none" points="1349,-251 1349,-318 1759,-318 1759,-251 1349,-251"/>
<polygon fill="none" stroke="black" points="1349,-251 1349,-318 1759,-318 1759,-251 1349,-251"/>
<text text-anchor="start" x="1360" y="-295.8" font-family="Arial" font-size="14.00">+ funs: Funs</text>
<text text-anchor="start" x="1360" y="-280.8" font-family="Arial" font-size="14.00">+ arit: Arit</text>
<text text-anchor="start" x="1360" y="-265.8" font-family="Arial" font-size="14.00">+ nams: Nams</text>
<polygon fill="white" stroke="none" points="1349,-184 1349,-251 1759,-251 1759,-184 1349,-184"/>
<polygon fill="none" stroke="black" points="1349,-184 1349,-251 1759,-251 1759,-184 1349,-184"/>
<text text-anchor="start" x="1360" y="-228.8" font-family="Arial" font-size="14.00">&#45; new() &#45;&gt; Program</text>
<text text-anchor="start" x="1360" y="-213.8" font-family="Arial" font-size="14.00">&#45; add_book(&amp;mut self, book: &amp;language::rulebook::RuleBook)</text>
<text text-anchor="start" x="1360" y="-198.8" font-family="Arial" font-size="14.00">&#45; add_function(&amp;mut self, name: String, function: Function)</text>
<polygon fill="none" stroke="black" points="1348,-183.5 1348,-356.5 1760,-356.5 1760,-183.5 1348,-183.5"/>
</a>
</g>
</g>
<!-- ndFunction&#45;&gt;ndProgram -->
<g id="edge6" class="edge"><title>ndFunction&#45;&gt;ndProgram</title>
<path fill="none" stroke="black" stroke-dasharray="5,2" d="M1455.62,-542.399C1472.13,-496.853 1497.31,-427.398 1518.06,-370.154"/>
<polygon fill="black" stroke="black" points="1521.48,-360.713 1522.3,-371.648 1519.77,-365.414 1518.07,-370.114 1518.07,-370.114 1518.07,-370.114 1519.77,-365.414 1513.84,-368.581 1521.48,-360.713 1521.48,-360.713"/>
</g>
<!-- ndReduceCtx -->
<g id="node11" class="node"><title>ndReduceCtx</title>
<g id="a_node11_11"><a xlink:href="https://github.com/Kindelia/HVM/blob/master/src/runtime/base/reducer.rs#:~:text=struct%20ReduceCtx" xlink:title="&lt;TABLE&gt;">
<polygon fill="lightblue" stroke="none" points="1856,-652 1856,-689 2026,-689 2026,-652 1856,-652"/>
<polygon fill="none" stroke="black" points="1856,-652 1856,-689 2026,-689 2026,-652 1856,-652"/>
<text text-anchor="start" x="1903" y="-667.8" font-family="Arial" font-weight="bold" font-size="14.00">ReduceCtx</text>
<polygon fill="white" stroke="none" points="1856,-495 1856,-652 2026,-652 2026,-495 1856,-495"/>
<polygon fill="none" stroke="black" points="1856,-495 1856,-652 2026,-652 2026,-495 1856,-495"/>
<text text-anchor="start" x="1867" y="-629.8" font-family="Arial" font-size="14.00">+ heap: &amp;&#39;a Heap</text>
<text text-anchor="start" x="1867" y="-614.8" font-family="Arial" font-size="14.00">+ prog: &amp;&#39;a Program</text>
<text text-anchor="start" x="1867" y="-599.8" font-family="Arial" font-size="14.00">+ tid: usize</text>
<text text-anchor="start" x="1867" y="-584.8" font-family="Arial" font-size="14.00">+ hold: bool</text>
<text text-anchor="start" x="1867" y="-569.8" font-family="Arial" font-size="14.00">+ term: Ptr</text>
<text text-anchor="start" x="1867" y="-554.8" font-family="Arial" font-size="14.00">+ visit: &amp;&#39;a VisitQueue</text>
<text text-anchor="start" x="1867" y="-539.8" font-family="Arial" font-size="14.00">+ redex: &amp;&#39;a RedexBag</text>
<text text-anchor="start" x="1867" y="-524.8" font-family="Arial" font-size="14.00">+ cont: &amp;&#39;a mut u64</text>
<text text-anchor="start" x="1867" y="-509.8" font-family="Arial" font-size="14.00">+ host: &amp;&#39;a mut u64</text>
<polygon fill="none" stroke="black" points="1855,-494 1855,-690 2027,-690 2027,-494 1855,-494"/>
</a>
</g>
</g>
<!-- ndLocalVars -->
<g id="node12" class="node"><title>ndLocalVars</title>
<g id="a_node12_12"><a xlink:href="https://github.com/Kindelia/HVM/blob/master/src/runtime/base/memory.rs#:~:text=struct%20LocalVars" xlink:title="&lt;TABLE&gt;">
<polygon fill="lightblue" stroke="none" points="2062,-637 2062,-674 2208,-674 2208,-637 2062,-637"/>
<polygon fill="none" stroke="black" points="2062,-637 2062,-674 2208,-674 2208,-637 2062,-637"/>
<text text-anchor="start" x="2100" y="-652.8" font-family="Arial" font-weight="bold" font-size="14.00">LocalVars</text>
<polygon fill="white" stroke="none" points="2062,-510 2062,-637 2208,-637 2208,-510 2062,-510"/>
<polygon fill="none" stroke="black" points="2062,-510 2062,-637 2208,-637 2208,-510 2062,-510"/>
<text text-anchor="start" x="2073" y="-614.8" font-family="Arial" font-size="14.00">+ tid: usize</text>
<text text-anchor="start" x="2073" y="-599.8" font-family="Arial" font-size="14.00">+ used: AtomicI64</text>
<text text-anchor="start" x="2073" y="-584.8" font-family="Arial" font-size="14.00">+ next: AtomicU64</text>
<text text-anchor="start" x="2073" y="-569.8" font-family="Arial" font-size="14.00">+ amin: AtomicU64</text>
<text text-anchor="start" x="2073" y="-554.8" font-family="Arial" font-size="14.00">+ amax: AtomicU64</text>
<text text-anchor="start" x="2073" y="-539.8" font-family="Arial" font-size="14.00">+ dups: AtomicU64</text>
<text text-anchor="start" x="2073" y="-524.8" font-family="Arial" font-size="14.00">+ cost: AtomicU64</text>
<polygon fill="none" stroke="black" points="2061,-509 2061,-675 2209,-675 2209,-509 2061,-509"/>
</a>
</g>
</g>
<!-- ndHeap -->
<g id="node13" class="node"><title>ndHeap</title>
<g id="a_node13_13"><a xlink:href="https://github.com/Kindelia/HVM/blob/master/src/runtime/base/memory.rs#:~:text=struct%20Heap" xlink:title="&lt;TABLE&gt;">
<polygon fill="lightblue" stroke="none" points="2276,-322 2276,-359 2560,-359 2560,-322 2276,-322"/>
<polygon fill="none" stroke="black" points="2276,-322 2276,-359 2560,-359 2560,-322 2276,-322"/>
<text text-anchor="start" x="2400" y="-337.8" font-family="Arial" font-weight="bold" font-size="14.00">Heap</text>
<polygon fill="white" stroke="none" points="2276,-180 2276,-322 2560,-322 2560,-180 2276,-180"/>
<polygon fill="none" stroke="black" points="2276,-180 2276,-322 2560,-322 2560,-180 2276,-180"/>
<text text-anchor="start" x="2287" y="-299.8" font-family="Arial" font-size="14.00">+ tids: usize</text>
<text text-anchor="start" x="2287" y="-284.8" font-family="Arial" font-size="14.00">+ node: Box&lt;[AtomicU64]&gt;</text>
<text text-anchor="start" x="2287" y="-269.8" font-family="Arial" font-size="14.00">+ lock: Box&lt;[AtomicU8]&gt;</text>
<text text-anchor="start" x="2287" y="-254.8" font-family="Arial" font-size="14.00">+ lvar: Box&lt;[CachePadded&lt;LocalVars&gt;]&gt;</text>
<text text-anchor="start" x="2287" y="-239.8" font-family="Arial" font-size="14.00">+ vstk: Box&lt;[VisitQueue]&gt;</text>
<text text-anchor="start" x="2287" y="-224.8" font-family="Arial" font-size="14.00">+ aloc: Box&lt;[Box&lt;[AtomicU64]&gt;]&gt;</text>
<text text-anchor="start" x="2287" y="-209.8" font-family="Arial" font-size="14.00">+ vbuf: Box&lt;[Box&lt;[AtomicU64]&gt;]&gt;</text>
<text text-anchor="start" x="2287" y="-194.8" font-family="Arial" font-size="14.00">+ rbag: RedexBag</text>
<polygon fill="none" stroke="black" points="2275,-179.5 2275,-360.5 2561,-360.5 2561,-179.5 2275,-179.5"/>
</a>
</g>
</g>
<!-- ndLocalVars&#45;&gt;ndHeap -->
<g id="edge7" class="edge"><title>ndLocalVars&#45;&gt;ndHeap</title>
<path fill="none" stroke="black" d="M2171.6,-504.688C2186.14,-475.771 2204.55,-444.443 2226,-419 2239.62,-402.845 2255.28,-387.334 2271.66,-372.836"/>
<polygon fill="black" stroke="black" points="2271.76,-372.751 2273.67,-365.798 2280.82,-364.888 2278.91,-371.841 2271.76,-372.751"/>
</g>
<!-- ndRedexBag -->
<g id="node14" class="node"><title>ndRedexBag</title>
<g id="a_node14_14"><a xlink:href="https://github.com/Kindelia/HVM/blob/master/src/runtime/data/redex_bag.rs#:~:text=struct%20RedexBag" xlink:title="&lt;TABLE&gt;">
<polygon fill="lightblue" stroke="none" points="2244,-640 2244,-677 2592,-677 2592,-640 2244,-640"/>
<polygon fill="none" stroke="black" points="2244,-640 2244,-677 2592,-677 2592,-640 2244,-640"/>
<text text-anchor="start" x="2382" y="-655.8" font-family="Arial" font-weight="bold" font-size="14.00">RedexBag</text>
<polygon fill="white" stroke="none" points="2244,-573 2244,-640 2592,-640 2592,-573 2244,-573"/>
<polygon fill="none" stroke="black" points="2244,-573 2244,-640 2592,-640 2592,-573 2244,-573"/>
<text text-anchor="start" x="2255" y="-617.8" font-family="Arial" font-size="14.00">&#45; tids: usize</text>
<text text-anchor="start" x="2255" y="-602.8" font-family="Arial" font-size="14.00">&#45; next: Box&lt;[CachePadded&lt;AtomicUsize&gt;]&gt;</text>
<text text-anchor="start" x="2255" y="-587.8" font-family="Arial" font-size="14.00">&#45; data: Box&lt;[AtomicU64]&gt;</text>
<polygon fill="white" stroke="none" points="2244,-506 2244,-573 2592,-573 2592,-506 2244,-506"/>
<polygon fill="none" stroke="black" points="2244,-506 2244,-573 2592,-573 2592,-506 2244,-506"/>
<text text-anchor="start" x="2255" y="-550.8" font-family="Arial" font-size="14.00">&#45; new(tids: usize) &#45;&gt; RedexBag</text>
<text text-anchor="start" x="2255" y="-535.8" font-family="Arial" font-size="14.00">&#45; insert(&amp;self, tid: usize, redex: u64) &#45;&gt; u64</text>
<text text-anchor="start" x="2255" y="-520.8" font-family="Arial" font-size="14.00">&#45; complete(&amp;self, index: u64) &#45;&gt; Option&lt;(u64, u64)&gt;</text>
<polygon fill="none" stroke="black" points="2243,-505.5 2243,-678.5 2593,-678.5 2593,-505.5 2243,-505.5"/>
</a>
</g>
</g>
<!-- ndRedexBag&#45;&gt;ndHeap -->
<g id="edge8" class="edge"><title>ndRedexBag&#45;&gt;ndHeap</title>
<path fill="none" stroke="black" d="M2418,-501.437C2418,-462.73 2418,-417.152 2418,-376.793"/>
<polygon fill="black" stroke="black" points="2418,-376.728 2414,-370.728 2418,-364.728 2422,-370.728 2418,-376.728"/>
</g>
<!-- ndVisitQueue -->
<g id="node15" class="node"><title>ndVisitQueue</title>
<g id="a_node15_15"><a xlink:href="https://github.com/Kindelia/HVM/blob/master/src/runtime/data/visit_queue.rs#:~:text=struct%20VisitQueue" xlink:title="&lt;TABLE&gt;">
<polygon fill="lightblue" stroke="none" points="2629,-648 2629,-685 2880,-685 2880,-648 2629,-648"/>
<polygon fill="none" stroke="black" points="2629,-648 2629,-685 2880,-685 2880,-648 2629,-648"/>
<text text-anchor="start" x="2716.5" y="-663.8" font-family="Arial" font-weight="bold" font-size="14.00">VisitQueue</text>
<polygon fill="white" stroke="none" points="2629,-581 2629,-648 2880,-648 2880,-581 2629,-581"/>
<polygon fill="none" stroke="black" points="2629,-581 2629,-648 2880,-648 2880,-581 2629,-581"/>
<text text-anchor="start" x="2640" y="-625.8" font-family="Arial" font-size="14.00">+ init: CachePadded&lt;AtomicUsize&gt;</text>
<text text-anchor="start" x="2640" y="-610.8" font-family="Arial" font-size="14.00">+ last: CachePadded&lt;AtomicUsize&gt;</text>
<text text-anchor="start" x="2640" y="-595.8" font-family="Arial" font-size="14.00">+ data: Box&lt;[AtomicU64]&gt;</text>
<polygon fill="white" stroke="none" points="2629,-499 2629,-581 2880,-581 2880,-499 2629,-499"/>
<polygon fill="none" stroke="black" points="2629,-499 2629,-581 2880,-581 2880,-499 2629,-499"/>
<text text-anchor="start" x="2640" y="-558.8" font-family="Arial" font-size="14.00">&#45; new() &#45;&gt; VisitQueue</text>
<text text-anchor="start" x="2640" y="-543.8" font-family="Arial" font-size="14.00">&#45; push(&amp;self, value: u64)</text>
<text text-anchor="start" x="2640" y="-528.8" font-family="Arial" font-size="14.00">&#45; pop(&amp;self) &#45;&gt; Option&lt;(u64, u64)&gt;</text>
<text text-anchor="start" x="2640" y="-513.8" font-family="Arial" font-size="14.00">&#45; steal(&amp;self) &#45;&gt; Option&lt;(u64, u64)&gt;</text>
<polygon fill="none" stroke="black" points="2627.5,-498 2627.5,-686 2880.5,-686 2880.5,-498 2627.5,-498"/>
</a>
</g>
</g>
<!-- ndVisitQueue&#45;&gt;ndHeap -->
<g id="edge9" class="edge"><title>ndVisitQueue&#45;&gt;ndHeap</title>
<path fill="none" stroke="black" d="M2679.04,-493.988C2657.77,-468.596 2633.87,-441.931 2610,-419 2593.45,-403.101 2575.23,-387.259 2556.82,-372.171"/>
<polygon fill="black" stroke="black" points="2556.79,-372.151 2549.61,-371.478 2547.47,-364.592 2554.65,-365.265 2556.79,-372.151"/>
</g>
<!-- ndU64Map -->
<g id="node16" class="node"><title>ndU64Map</title>
<g id="a_node16_16"><a xlink:href="https://github.com/Kindelia/HVM/blob/master/src/runtime/data/u64_map.rs#:~:text=struct%20U64Map" xlink:title="&lt;TABLE&gt;">
<polygon fill="lightblue" stroke="none" points="2916,-640 2916,-677 3469,-677 3469,-640 2916,-640"/>
<polygon fill="none" stroke="black" points="2916,-640 2916,-677 3469,-677 3469,-640 2916,-640"/>
<text text-anchor="start" x="3164" y="-655.8" font-family="Arial" font-weight="bold" font-size="14.00">U64Map</text>
<polygon fill="white" stroke="none" points="2916,-603 2916,-640 3469,-640 3469,-603 2916,-603"/>
<polygon fill="none" stroke="black" points="2916,-603 2916,-640 3469,-640 3469,-603 2916,-603"/>
<text text-anchor="start" x="2927" y="-617.8" font-family="Arial" font-size="14.00">+ data: Vec&lt;Option&lt;A&gt;&gt;</text>
<polygon fill="white" stroke="none" points="2916,-506 2916,-603 3469,-603 3469,-506 2916,-506"/>
<polygon fill="none" stroke="black" points="2916,-506 2916,-603 3469,-603 3469,-506 2916,-506"/>
<text text-anchor="start" x="2927" y="-580.8" font-family="Arial" font-size="14.00">&#45; new() &#45;&gt; U64Map&lt;A&gt;</text>
<text text-anchor="start" x="2927" y="-565.8" font-family="Arial" font-size="14.00">&#45; from_hashmap(old_map: &amp;mut std::collections::HashMap&lt;u64, A&gt;) &#45;&gt; U64Map&lt;A&gt;</text>
<text text-anchor="start" x="2927" y="-550.8" font-family="Arial" font-size="14.00">&#45; push(&amp;mut self, val: A) &#45;&gt; u64</text>
<text text-anchor="start" x="2927" y="-535.8" font-family="Arial" font-size="14.00">&#45; insert(&amp;mut self, key: u64, val: A)</text>
<text text-anchor="start" x="2927" y="-520.8" font-family="Arial" font-size="14.00">&#45; get(&amp;self, key: &amp;u64) &#45;&gt; Option&lt;&amp;A&gt;</text>
<polygon fill="none" stroke="black" points="2914.5,-505.5 2914.5,-678.5 3469.5,-678.5 3469.5,-505.5 2914.5,-505.5"/>
</a>
</g>
</g>
<!-- ndAllocatorNext -->
<g id="node17" class="node"><title>ndAllocatorNext</title>
<g id="a_node17_17"><a xlink:href="https://github.com/Kindelia/HVM/blob/master/src/runtime/data/allocator.rs#:~:text=struct%20AllocatorNext" xlink:title="&lt;TABLE&gt;">
<polygon fill="lightblue" stroke="none" points="3505,-599 3505,-636 3645,-636 3645,-599 3505,-599"/>
<polygon fill="none" stroke="black" points="3505,-599 3505,-636 3645,-636 3645,-599 3505,-599"/>
<text text-anchor="start" x="3528" y="-614.8" font-family="Arial" font-weight="bold" font-size="14.00">AllocatorNext</text>
<polygon fill="white" stroke="none" points="3505,-547 3505,-599 3645,-599 3645,-547 3505,-547"/>
<polygon fill="none" stroke="black" points="3505,-547 3505,-599 3645,-599 3645,-547 3505,-547"/>
<text text-anchor="start" x="3516" y="-576.8" font-family="Arial" font-size="14.00">+ cell: AtomicU64</text>
<text text-anchor="start" x="3516" y="-561.8" font-family="Arial" font-size="14.00">+ area: AtomicU64</text>
<polygon fill="none" stroke="black" points="3504,-546.5 3504,-637.5 3646,-637.5 3646,-546.5 3504,-546.5"/>
</a>
</g>
</g>
<!-- ndAllocator -->
<g id="node18" class="node"><title>ndAllocator</title>
<g id="a_node18_18"><a xlink:href="https://github.com/Kindelia/HVM/blob/master/src/runtime/data/allocator.rs#:~:text=struct%20Allocator" xlink:title="&lt;TABLE&gt;">
<polygon fill="lightblue" stroke="none" points="3412,-341 3412,-378 3739,-378 3739,-341 3412,-341"/>
<polygon fill="none" stroke="black" points="3412,-341 3412,-378 3739,-378 3739,-341 3412,-341"/>
<text text-anchor="start" x="3544" y="-356.8" font-family="Arial" font-weight="bold" font-size="14.00">Allocator</text>
<polygon fill="white" stroke="none" points="3412,-259 3412,-341 3739,-341 3739,-259 3412,-259"/>
<polygon fill="none" stroke="black" points="3412,-259 3412,-341 3739,-341 3739,-259 3412,-259"/>
<text text-anchor="start" x="3423" y="-318.8" font-family="Arial" font-size="14.00">+ tids: usize</text>
<text text-anchor="start" x="3423" y="-303.8" font-family="Arial" font-size="14.00">+ data: Box&lt;[AtomicU64]&gt;</text>
<text text-anchor="start" x="3423" y="-288.8" font-family="Arial" font-size="14.00">+ used: Box&lt;[AtomicU64]&gt;</text>
<text text-anchor="start" x="3423" y="-273.8" font-family="Arial" font-size="14.00">+ next: Box&lt;[CachePadded&lt;AllocatorNext&gt;]&gt;</text>
<polygon fill="white" stroke="none" points="3412,-162 3412,-259 3739,-259 3739,-162 3412,-162"/>
<polygon fill="none" stroke="black" points="3412,-162 3412,-259 3739,-259 3739,-162 3412,-162"/>
<text text-anchor="start" x="3423" y="-236.8" font-family="Arial" font-size="14.00">&#45; new(tids: usize) &#45;&gt; Allocator</text>
<text text-anchor="start" x="3423" y="-221.8" font-family="Arial" font-size="14.00">&#45; alloc(&amp;self, tid: usize, arity: u64) &#45;&gt; u64</text>
<text text-anchor="start" x="3423" y="-206.8" font-family="Arial" font-size="14.00">&#45; free(&amp;self, tid: usize, loc: u64, arity: u64)</text>
<text text-anchor="start" x="3423" y="-191.8" font-family="Arial" font-size="14.00">&#45; arena_alloc(&amp;self, tid: usize, arity: u64) &#45;&gt; u64</text>
<text text-anchor="start" x="3423" y="-176.8" font-family="Arial" font-size="14.00">&#45; arena_free(&amp;self, tid: usize, loc: u64, arity: u64)</text>
<polygon fill="none" stroke="black" points="3410.5,-161 3410.5,-379 3739.5,-379 3739.5,-161 3410.5,-161"/>
</a>
</g>
</g>
<!-- ndAllocatorNext&#45;&gt;ndAllocator -->
<g id="edge10" class="edge"><title>ndAllocatorNext&#45;&gt;ndAllocator</title>
<path fill="none" stroke="black" d="M3575,-542.399C3575,-503.389 3575,-446.841 3575,-395.447"/>
<polygon fill="black" stroke="black" points="3575,-395.198 3571,-389.198 3575,-383.198 3579,-389.198 3575,-395.198"/>
</g>
<!-- ndRuleBook -->
<g id="node19" class="node"><title>ndRuleBook</title>
<g id="a_node19_19"><a xlink:href="https://github.com/Kindelia/HVM/blob/master/src/language/rulebook.rs#:~:text=struct%20RuleBook" xlink:title="&lt;TABLE&gt;">
<polygon fill="lightblue" stroke="none" points="1521,-629 1521,-666 1820,-666 1820,-629 1521,-629"/>
<polygon fill="none" stroke="black" points="1521,-629 1521,-666 1820,-666 1820,-629 1521,-629"/>
<text text-anchor="start" x="1636.5" y="-644.8" font-family="Arial" font-weight="bold" font-size="14.00">RuleBook</text>
<polygon fill="white" stroke="none" points="1521,-517 1521,-629 1820,-629 1820,-517 1521,-517"/>
<polygon fill="none" stroke="black" points="1521,-517 1521,-629 1820,-629 1820,-517 1521,-517"/>
<text text-anchor="start" x="1532" y="-606.8" font-family="Arial" font-size="14.00">+ rule_group: HashMap&lt;String, RuleGroup&gt;</text>
<text text-anchor="start" x="1532" y="-591.8" font-family="Arial" font-size="14.00">+ name_count: u64</text>
<text text-anchor="start" x="1532" y="-576.8" font-family="Arial" font-size="14.00">+ id_to_name: HashMap&lt;u64, String&gt;</text>
<text text-anchor="start" x="1532" y="-561.8" font-family="Arial" font-size="14.00">+ name_to_id: HashMap&lt;String, u64&gt;</text>
<text text-anchor="start" x="1532" y="-546.8" font-family="Arial" font-size="14.00">+ id_to_arit: HashMap&lt;u64, u64&gt;</text>
<text text-anchor="start" x="1532" y="-531.8" font-family="Arial" font-size="14.00">+ ctr_is_cal: HashMap&lt;String, bool&gt;</text>
<polygon fill="none" stroke="black" points="1519.5,-516.5 1519.5,-667.5 1820.5,-667.5 1820.5,-516.5 1519.5,-516.5"/>
</a>
</g>
</g>
<!-- ndRuleBook&#45;&gt;ndProgram -->
<g id="edge11" class="edge"><title>ndRuleBook&#45;&gt;ndProgram</title>
<path fill="none" stroke="black" stroke-dasharray="5,2" d="M1641.47,-512.309C1625.94,-469.463 1606.57,-416.021 1590.01,-370.329"/>
<polygon fill="black" stroke="black" points="1586.52,-360.703 1594.16,-368.571 1588.22,-365.404 1589.93,-370.104 1589.93,-370.104 1589.93,-370.104 1588.22,-365.404 1585.69,-371.638 1586.52,-360.703 1586.52,-360.703"/>
</g>
<!-- ndSanitizedRule -->
<g id="node20" class="node"><title>ndSanitizedRule</title>
<g id="a_node20_20"><a xlink:href="https://github.com/Kindelia/HVM/blob/master/src/language/rulebook.rs#:~:text=struct%20SanitizedRule" xlink:title="&lt;TABLE&gt;">
<polygon fill="lightblue" stroke="none" points="3682,-599 3682,-636 3899,-636 3899,-599 3682,-599"/>
<polygon fill="none" stroke="black" points="3682,-599 3682,-636 3899,-636 3899,-599 3682,-599"/>
<text text-anchor="start" x="3743" y="-614.8" font-family="Arial" font-weight="bold" font-size="14.00">SanitizedRule</text>
<polygon fill="white" stroke="none" points="3682,-547 3682,-599 3899,-599 3899,-547 3682,-547"/>
<polygon fill="none" stroke="black" points="3682,-547 3682,-599 3899,-599 3899,-547 3682,-547"/>
<text text-anchor="start" x="3693" y="-576.8" font-family="Arial" font-size="14.00">+ rule: language::syntax::Rule</text>
<text text-anchor="start" x="3693" y="-561.8" font-family="Arial" font-size="14.00">+ uses: HashMap&lt;String, u64&gt;</text>
<polygon fill="none" stroke="black" points="3680.5,-546.5 3680.5,-637.5 3899.5,-637.5 3899.5,-546.5 3680.5,-546.5"/>
</a>
</g>
</g>
<!-- ndState -->
<g id="node21" class="node"><title>ndState</title>
<g id="a_node21_21"><a xlink:href="https://github.com/Kindelia/HVM/blob/master/src/language/parser.rs#:~:text=struct%20State" xlink:title="&lt;TABLE&gt;">
<polygon fill="lightblue" stroke="none" points="3935,-618 3935,-655 4150,-655 4150,-618 3935,-618"/>
<polygon fill="none" stroke="black" points="3935,-618 3935,-655 4150,-655 4150,-618 3935,-618"/>
<text text-anchor="start" x="4024.5" y="-633.8" font-family="Arial" font-weight="bold" font-size="14.00">State</text>
<polygon fill="white" stroke="none" points="3935,-566 3935,-618 4150,-618 4150,-566 3935,-566"/>
<polygon fill="none" stroke="black" points="3935,-566 3935,-618 4150,-618 4150,-566 3935,-566"/>
<text text-anchor="start" x="3946" y="-595.8" font-family="Arial" font-size="14.00">+ code: &amp;&#39;a str</text>
<text text-anchor="start" x="3946" y="-580.8" font-family="Arial" font-size="14.00">+ index: usize</text>
<polygon fill="white" stroke="none" points="3935,-529 3935,-566 4150,-566 4150,-529 3935,-529"/>
<polygon fill="none" stroke="black" points="3935,-529 3935,-566 4150,-566 4150,-529 3935,-529"/>
<text text-anchor="start" x="3946" y="-543.8" font-family="Arial" font-size="14.00">&#45; rest(&amp;self) &#45;&gt; Option&lt;&amp;&#39;a str&gt;</text>
<polygon fill="none" stroke="black" points="3933.5,-528 3933.5,-656 4150.5,-656 4150.5,-528 3933.5,-528"/>
</a>
</g>
</g>
<!-- ndTestree -->
<g id="node22" class="node"><title>ndTestree</title>
<g id="a_node22_22"><a xlink:href="https://github.com/Kindelia/HVM/blob/master/src/language/parser.rs#:~:text=enum%20Testree" xlink:title="&lt;TABLE&gt;">
<polygon fill="yellow" stroke="none" points="4186,-599 4186,-636 4261,-636 4261,-599 4186,-599"/>
<polygon fill="none" stroke="black" points="4186,-599 4186,-636 4261,-636 4261,-599 4186,-599"/>
<text text-anchor="start" x="4197" y="-614.8" font-family="Arial" font-weight="bold" font-size="14.00">Testree</text>
<polygon fill="white" stroke="none" points="4186,-547 4186,-599 4261,-599 4261,-547 4186,-547"/>
<polygon fill="none" stroke="black" points="4186,-547 4186,-599 4261,-599 4261,-547 4186,-547"/>
<text text-anchor="start" x="4197" y="-576.8" font-family="Arial" font-size="14.00">Node</text>
<text text-anchor="start" x="4197" y="-561.8" font-family="Arial" font-size="14.00">Leaf</text>
<polygon fill="none" stroke="black" points="4184.5,-546.5 4184.5,-637.5 4261.5,-637.5 4261.5,-546.5 4184.5,-546.5"/>
</a>
</g>
</g>
<!-- ndTerm -->
<g id="node23" class="node"><title>ndTerm</title>
<g id="a_node23_23"><a xlink:href="https://github.com/Kindelia/HVM/blob/master/src/language/syntax.rs#:~:text=enum%20Term" xlink:title="&lt;TABLE&gt;">
<polygon fill="yellow" stroke="none" points="581,-678 581,-715 990,-715 990,-678 581,-678"/>
<polygon fill="none" stroke="black" points="581,-678 581,-715 990,-715 990,-678 581,-678"/>
<text text-anchor="start" x="767" y="-693.8" font-family="Arial" font-weight="bold" font-size="14.00">Term</text>
<polygon fill="white" stroke="none" points="581,-506 581,-678 990,-678 990,-506 581,-506"/>
<polygon fill="none" stroke="black" points="581,-506 581,-678 990,-678 990,-506 581,-506"/>
<text text-anchor="start" x="592" y="-655.8" font-family="Arial" font-size="14.00">Var</text>
<text text-anchor="start" x="592" y="-640.8" font-family="Arial" font-size="14.00">Dup</text>
<text text-anchor="start" x="592" y="-625.8" font-family="Arial" font-size="14.00">Sup</text>
<text text-anchor="start" x="592" y="-610.8" font-family="Arial" font-size="14.00">Let</text>
<text text-anchor="start" x="592" y="-595.8" font-family="Arial" font-size="14.00">Lam</text>
<text text-anchor="start" x="592" y="-580.8" font-family="Arial" font-size="14.00">App</text>
<text text-anchor="start" x="592" y="-565.8" font-family="Arial" font-size="14.00">Ctr</text>
<text text-anchor="start" x="592" y="-550.8" font-family="Arial" font-size="14.00">U6O</text>
<text text-anchor="start" x="592" y="-535.8" font-family="Arial" font-size="14.00">F6O</text>
<text text-anchor="start" x="592" y="-520.8" font-family="Arial" font-size="14.00">Op2</text>
<polygon fill="white" stroke="none" points="581,-469 581,-506 990,-506 990,-469 581,-469"/>
<polygon fill="none" stroke="black" points="581,-469 581,-506 990,-506 990,-469 581,-469"/>
<text text-anchor="start" x="592" y="-483.8" font-family="Arial" font-size="14.00">&#45; fmt(&amp;self, f: &amp;mut std::fmt::Formatter&lt;&#39;_&gt;) &#45;&gt; std::fmt::Result</text>
<polygon fill="none" stroke="black" points="579.5,-468 579.5,-716 990.5,-716 990.5,-468 579.5,-468"/>
</a>
</g>
</g>
<!-- ndTerm&#45;&gt;ndRule -->
<g id="edge12" class="edge"><title>ndTerm&#45;&gt;ndRule</title>
<path fill="none" stroke="black" d="M658.802,-463.608C619.647,-424.082 577.744,-381.783 543.21,-346.922"/>
<polygon fill="black" stroke="black" points="543.041,-346.751 535.976,-345.303 534.595,-338.226 541.66,-339.673 543.041,-346.751"/>
</g>
<!-- ndOper -->
<g id="node24" class="node"><title>ndOper</title>
<g id="a_node24_24"><a xlink:href="https://github.com/Kindelia/HVM/blob/master/src/language/syntax.rs#:~:text=enum%20Oper" xlink:title="&lt;TABLE&gt;">
<polygon fill="yellow" stroke="none" points="4297,-723 4297,-760 4706,-760 4706,-723 4297,-723"/>
<polygon fill="none" stroke="black" points="4297,-723 4297,-760 4706,-760 4706,-723 4297,-723"/>
<text text-anchor="start" x="4484" y="-738.8" font-family="Arial" font-weight="bold" font-size="14.00">Oper</text>
<polygon fill="white" stroke="none" points="4297,-461 4297,-723 4706,-723 4706,-461 4297,-461"/>
<polygon fill="none" stroke="black" points="4297,-461 4297,-723 4706,-723 4706,-461 4297,-461"/>
<text text-anchor="start" x="4308" y="-700.8" font-family="Arial" font-size="14.00">Add</text>
<text text-anchor="start" x="4308" y="-685.8" font-family="Arial" font-size="14.00">Sub</text>
<text text-anchor="start" x="4308" y="-670.8" font-family="Arial" font-size="14.00">Mul</text>
<text text-anchor="start" x="4308" y="-655.8" font-family="Arial" font-size="14.00">Div</text>
<text text-anchor="start" x="4308" y="-640.8" font-family="Arial" font-size="14.00">Mod</text>
<text text-anchor="start" x="4308" y="-625.8" font-family="Arial" font-size="14.00">And</text>
<text text-anchor="start" x="4308" y="-610.8" font-family="Arial" font-size="14.00">Or</text>
<text text-anchor="start" x="4308" y="-595.8" font-family="Arial" font-size="14.00">Xor</text>
<text text-anchor="start" x="4308" y="-580.8" font-family="Arial" font-size="14.00">Shl</text>
<text text-anchor="start" x="4308" y="-565.8" font-family="Arial" font-size="14.00">Shr</text>
<text text-anchor="start" x="4308" y="-550.8" font-family="Arial" font-size="14.00">Lte</text>
<text text-anchor="start" x="4308" y="-535.8" font-family="Arial" font-size="14.00">Ltn</text>
<text text-anchor="start" x="4308" y="-520.8" font-family="Arial" font-size="14.00">Eql</text>
<text text-anchor="start" x="4308" y="-505.8" font-family="Arial" font-size="14.00">Gte</text>
<text text-anchor="start" x="4308" y="-490.8" font-family="Arial" font-size="14.00">Gtn</text>
<text text-anchor="start" x="4308" y="-475.8" font-family="Arial" font-size="14.00">Neq</text>
<polygon fill="white" stroke="none" points="4297,-424 4297,-461 4706,-461 4706,-424 4297,-424"/>
<polygon fill="none" stroke="black" points="4297,-424 4297,-461 4706,-461 4706,-424 4297,-424"/>
<text text-anchor="start" x="4308" y="-438.8" font-family="Arial" font-size="14.00">&#45; fmt(&amp;self, f: &amp;mut std::fmt::Formatter&lt;&#39;_&gt;) &#45;&gt; std::fmt::Result</text>
<polygon fill="none" stroke="black" points="4295.5,-423 4295.5,-761 4706.5,-761 4706.5,-423 4295.5,-423"/>
</a>
</g>
</g>
<!-- ndCli -->
<g id="node26" class="node"><title>ndCli</title>
<g id="a_node26_25"><a xlink:href="https://github.com/Kindelia/HVM/blob/master/src/main.rs#:~:text=struct%20Cli" xlink:title="&lt;TABLE&gt;">
<polygon fill="lightblue" stroke="none" points="4704,-270 4704,-307 4875,-307 4875,-270 4704,-270"/>
<polygon fill="none" stroke="black" points="4704,-270 4704,-307 4875,-307 4875,-270 4704,-270"/>
<text text-anchor="start" x="4780" y="-285.8" font-family="Arial" font-weight="bold" font-size="14.00">Cli</text>
<polygon fill="white" stroke="none" points="4704,-233 4704,-270 4875,-270 4875,-233 4704,-233"/>
<polygon fill="none" stroke="black" points="4704,-233 4704,-270 4875,-270 4875,-233 4704,-233"/>
<text text-anchor="start" x="4715" y="-247.8" font-family="Arial" font-size="14.00">+ command: Command</text>
<polygon fill="none" stroke="black" points="4702.5,-232 4702.5,-308 4875.5,-308 4875.5,-232 4702.5,-232"/>
</a>
</g>
</g>
<!-- ndCommand -->
<g id="node27" class="node"><title>ndCommand</title>
<g id="a_node27_26"><a xlink:href="https://github.com/Kindelia/HVM/blob/master/src/main.rs#:~:text=enum%20Command" xlink:title="&lt;TABLE&gt;">
<polygon fill="yellow" stroke="none" points="4742,-599 4742,-636 4836,-636 4836,-599 4742,-599"/>
<polygon fill="none" stroke="black" points="4742,-599 4742,-636 4836,-636 4836,-599 4742,-599"/>
<text text-anchor="start" x="4753" y="-614.8" font-family="Arial" font-weight="bold" font-size="14.00">Command</text>
<polygon fill="white" stroke="none" points="4742,-547 4742,-599 4836,-599 4836,-547 4742,-547"/>
<polygon fill="none" stroke="black" points="4742,-547 4742,-599 4836,-599 4836,-547 4742,-547"/>
<text text-anchor="start" x="4753" y="-576.8" font-family="Arial" font-size="14.00">Run</text>
<text text-anchor="start" x="4753" y="-561.8" font-family="Arial" font-size="14.00">Compile</text>
<polygon fill="none" stroke="black" points="4741,-546.5 4741,-637.5 4837,-637.5 4837,-546.5 4741,-546.5"/>
</a>
</g>
</g>
<!-- ndCommand&#45;&gt;ndCli -->
<g id="edge13" class="edge"><title>ndCommand&#45;&gt;ndCli</title>
<path fill="none" stroke="black" d="M4789,-542.399C4789,-483.676 4789,-385.21 4789,-324.411"/>
<polygon fill="black" stroke="black" points="4789,-324.407 4785,-318.407 4789,-312.407 4793,-318.407 4789,-324.407"/>
</g>
</g>
</svg>
