<?xml version="1.0" encoding="UTF-8" standalone="no"?>
<!DOCTYPE svg PUBLIC "-//W3C//DTD SVG 1.1//EN"
 "http://www.w3.org/Graphics/SVG/1.1/DTD/svg11.dtd">
<!-- Generated by graphviz version 2.38.0 (20140413.2041)
 -->
<!-- Title: ml Pages: 1 -->
<svg width="246pt" height="55pt"
 viewBox="0.00 0.00 246.00 55.00" xmlns="http://www.w3.org/2000/svg" xmlns:xlink="http://www.w3.org/1999/xlink">
<g id="graph0" class="graph" transform="scale(1 1) rotate(0) translate(4 51)">
<title>ml</title>
<polygon fill="white" stroke="none" points="-4,4 -4,-51 242,-51 242,4 -4,4"/>
<!-- ndQueryParams -->
<g id="node1" class="node"><title>ndQueryParams</title>
<g id="a_node1_0"><a xlink:href="https://github.com/Kindelia/Kindelia//blob/master/src/lib.rs#:~:text=struct%20QueryParams" xlink:title="&lt;TABLE&gt;">
<polygon fill="lightblue" stroke="none" points="9.5,-4.5 9.5,-41.5 128.5,-41.5 128.5,-4.5 9.5,-4.5"/>
<polygon fill="none" stroke="black" points="9.5,-4.5 9.5,-41.5 128.5,-41.5 128.5,-4.5 9.5,-4.5"/>
<text text-anchor="start" x="20.5" y="-20.3" font-family="Arial" font-weight="bold" font-size="14.00">QueryParams</text>
<polygon fill="none" stroke="black" points="8,-4 8,-43 129,-43 129,-4 8,-4"/>
</a>
</g>
</g>
<!-- ndQuery -->
<g id="node2" class="node"><title>ndQuery</title>
<g id="a_node2_1"><a xlink:href="https://github.com/Kindelia/Kindelia//blob/master/src/lib.rs#:~:text=struct%20Query" xlink:title="&lt;TABLE&gt;">
<polygon fill="lightblue" stroke="none" points="164.5,-4.5 164.5,-41.5 229.5,-41.5 229.5,-4.5 164.5,-4.5"/>
<polygon fill="none" stroke="black" points="164.5,-4.5 164.5,-41.5 229.5,-41.5 229.5,-4.5 164.5,-4.5"/>
<text text-anchor="start" x="175.5" y="-20.3" font-family="Arial" font-weight="bold" font-size="14.00">Query</text>
<polygon fill="none" stroke="black" points="163,-4 163,-43 230,-43 230,-4 163,-4"/>
</a>
</g>
</g>
</g>
</svg>
