<?xml version="1.0" encoding="UTF-8" standalone="no"?>
<!DOCTYPE svg PUBLIC "-//W3C//DTD SVG 1.1//EN"
 "http://www.w3.org/Graphics/SVG/1.1/DTD/svg11.dtd">
<!-- Generated by graphviz version 2.38.0 (20140413.2041)
 -->
<!-- Title: ml Pages: 1 -->
<svg width="652pt" height="399pt"
 viewBox="0.00 0.00 652.00 399.00" xmlns="http://www.w3.org/2000/svg" xmlns:xlink="http://www.w3.org/1999/xlink">
<g id="graph0" class="graph" transform="scale(1 1) rotate(0) translate(4 395)">
<title>ml</title>
<polygon fill="white" stroke="none" points="-4,4 -4,-395 648,-395 648,4 -4,4"/>
<!-- ndApiClient -->
<g id="node1" class="node"><title>ndApiClient</title>
<g id="a_node1_0"><a xlink:href="https://github.com/Kindelia/Kindelia//blob/master/src/lib.rs#:~:text=struct%20ApiClient" xlink:title="&lt;TABLE&gt;">
<polygon fill="lightblue" stroke="none" points="9,-348.5 9,-385.5 635,-385.5 635,-348.5 9,-348.5"/>
<polygon fill="none" stroke="black" points="9,-348.5 9,-385.5 635,-385.5 635,-348.5 9,-348.5"/>
<text text-anchor="start" x="290.5" y="-364.3" font-family="Arial" font-weight="bold" font-size="14.00">ApiClient</text>
<polygon fill="white" stroke="none" points="9,-296.5 9,-348.5 635,-348.5 635,-296.5 9,-296.5"/>
<polygon fill="none" stroke="black" points="9,-296.5 9,-348.5 635,-348.5 635,-296.5 9,-296.5"/>
<text text-anchor="start" x="20" y="-326.3" font-family="Arial" font-size="14.00">&#45; client: reqwest::Client</text>
<text text-anchor="start" x="20" y="-311.3" font-family="Arial" font-size="14.00">&#45; base_url: Url</text>
<polygon fill="white" stroke="none" points="9,-4.5 9,-296.5 635,-296.5 635,-4.5 9,-4.5"/>
<polygon fill="none" stroke="black" points="9,-4.5 9,-296.5 635,-296.5 635,-4.5 9,-4.5"/>
<text text-anchor="start" x="20" y="-274.3" font-family="Arial" font-size="14.00">&#45; deref(&amp;self) &#45;&gt; &amp;Url</text>
<text text-anchor="start" x="20" y="-259.3" font-family="Arial" font-size="14.00">&#45; new(base_url: U, client: Option&lt;Client&gt;) &#45;&gt; Result&lt;Self, reqwest::Error&gt;</text>
<text text-anchor="start" x="20" y="-244.3" font-family="Arial" font-size="14.00">&#45; base_request(&amp;self, method: Method, path: &amp;str) &#45;&gt; RequestBuilder</text>
<text text-anchor="start" x="20" y="-229.3" font-family="Arial" font-size="14.00">&#45; base_get(&amp;self, path: &amp;str) &#45;&gt; RequestBuilder</text>
<text text-anchor="start" x="20" y="-214.3" font-family="Arial" font-size="14.00">&#45; req(&amp;self, method: Method, path: &amp;str, body: Option&lt;B&gt;) &#45;&gt; Result&lt;T, String&gt;</text>
<text text-anchor="start" x="20" y="-199.3" font-family="Arial" font-size="14.00">&#45; get(&amp;self, path: &amp;str) &#45;&gt; ApiResult&lt;T&gt;</text>
<text text-anchor="start" x="20" y="-184.3" font-family="Arial" font-size="14.00">&#45; get_stats(&amp;self) &#45;&gt; ApiResult&lt;Stats&gt;</text>
<text text-anchor="start" x="20" y="-169.3" font-family="Arial" font-size="14.00">&#45; get_blocks(&amp;self) &#45;&gt; ApiResult&lt;Vec&lt;BlockInfo&gt;&gt;</text>
<text text-anchor="start" x="20" y="-154.3" font-family="Arial" font-size="14.00">&#45; get_block_hash(&amp;self, index: u64) &#45;&gt; ApiResult&lt;String&gt;</text>
<text text-anchor="start" x="20" y="-139.3" font-family="Arial" font-size="14.00">&#45; get_block(&amp;self, id: Hash) &#45;&gt; ApiResult&lt;Option&lt;BlockInfo&gt;&gt;</text>
<text text-anchor="start" x="20" y="-124.3" font-family="Arial" font-size="14.00">&#45; get_functions(&amp;self) &#45;&gt; ApiResult&lt;Vec&lt;Name&gt;&gt;</text>
<text text-anchor="start" x="20" y="-109.3" font-family="Arial" font-size="14.00">&#45; get_function(&amp;self, name: Name) &#45;&gt; ApiResult&lt;FuncInfo&gt;</text>
<text text-anchor="start" x="20" y="-94.3" font-family="Arial" font-size="14.00">&#45; get_function_state(&amp;self, name: Name) &#45;&gt; ApiResult&lt;ast::Term&gt;</text>
<text text-anchor="start" x="20" y="-79.3" font-family="Arial" font-size="14.00">&#45; get_constructor(&amp;self, name: Name) &#45;&gt; ApiResult&lt;CtrInfo&gt;</text>
<text text-anchor="start" x="20" y="-64.3" font-family="Arial" font-size="14.00">&#45; run_code(&amp;self, code: Vec&lt;HexStatement&gt;) &#45;&gt; ApiResult&lt;Vec&lt;runtime::StatementInfo&gt;&gt;</text>
<text text-anchor="start" x="20" y="-49.3" font-family="Arial" font-size="14.00">&#45; publish_code(&amp;self, code: Vec&lt;HexStatement&gt;) &#45;&gt; ApiResult&lt;Vec&lt;Result&lt;(), PublishError&gt;&gt;&gt;</text>
<text text-anchor="start" x="20" y="-34.3" font-family="Arial" font-size="14.00">&#45; get_peers(&amp;self, all: bool) &#45;&gt; ApiResult&lt;Vec&lt;node::Peer&lt;C::Address&gt;&gt;&gt;</text>
<text text-anchor="start" x="20" y="-19.3" font-family="Arial" font-size="14.00">&#45; get_reg_info(&amp;self, name: &amp;str) &#45;&gt; ApiResult&lt;RegInfo&gt;</text>
<polygon fill="none" stroke="black" points="8,-4 8,-387 636,-387 636,-4 8,-4"/>
</a>
</g>
</g>
</g>
</svg>
