<?xml version="1.0" encoding="UTF-8" standalone="no"?>
<!DOCTYPE svg PUBLIC "-//W3C//DTD SVG 1.1//EN"
 "http://www.w3.org/Graphics/SVG/1.1/DTD/svg11.dtd">
<!-- Generated by graphviz version 2.38.0 (20140413.2041)
 -->
<!-- Title: ml Pages: 1 -->
<svg width="2221pt" height="138pt"
 viewBox="0.00 0.00 2221.00 138.00" xmlns="http://www.w3.org/2000/svg" xmlns:xlink="http://www.w3.org/1999/xlink">
<g id="graph0" class="graph" transform="scale(1 1) rotate(0) translate(4 134)">
<title>ml</title>
<polygon fill="white" stroke="none" points="-4,4 -4,-134 2217,-134 2217,4 -4,4"/>
<!-- ndCli -->
<g id="node1" class="node"><title>ndCli</title>
<g id="a_node1_0"><a xlink:href="https://github.com/Kindelia/Kindelia//blob/master/src/cli.rs#:~:text=struct%20Cli" xlink:title="&lt;TABLE&gt;">
<polygon fill="lightblue" stroke="none" points="45,-4.5 45,-41.5 86,-41.5 86,-4.5 45,-4.5"/>
<polygon fill="none" stroke="black" points="45,-4.5 45,-41.5 86,-41.5 86,-4.5 45,-4.5"/>
<text text-anchor="start" x="56" y="-20.3" font-family="Arial" font-weight="bold" font-size="14.00">Cli</text>
<polygon fill="none" stroke="black" points="43.5,-4 43.5,-43 86.5,-43 86.5,-4 43.5,-4"/>
</a>
</g>
</g>
<!-- ndCliCommand -->
<g id="node2" class="node"><title>ndCliCommand</title>
<g id="a_node2_1"><a xlink:href="https://github.com/Kindelia/Kindelia//blob/master/src/cli.rs#:~:text=enum%20CliCommand" xlink:title="&lt;TABLE&gt;">
<polygon fill="yellow" stroke="none" points="9,-87.5 9,-124.5 121,-124.5 121,-87.5 9,-87.5"/>
<polygon fill="none" stroke="black" points="9,-87.5 9,-124.5 121,-124.5 121,-87.5 9,-87.5"/>
<text text-anchor="start" x="20" y="-103.3" font-family="Arial" font-weight="bold" font-size="14.00">CliCommand</text>
<polygon fill="none" stroke="black" points="8,-87 8,-126 122,-126 122,-87 8,-87"/>
</a>
</g>
</g>
<!-- ndCliCommand&#45;&gt;ndCli -->
<g id="edge1" class="edge"><title>ndCliCommand&#45;&gt;ndCli</title>
<path fill="none" stroke="black" d="M65,-82.937C65,-75.6257 65,-67.3371 65,-59.3477"/>
<polygon fill="black" stroke="black" points="65.0001,-59.2229 61,-53.223 65,-47.2229 69,-53.2229 65.0001,-59.2229"/>
</g>
<!-- ndNodeCommand -->
<g id="node3" class="node"><title>ndNodeCommand</title>
<g id="a_node3_2"><a xlink:href="https://github.com/Kindelia/Kindelia//blob/master/src/cli.rs#:~:text=enum%20NodeCommand" xlink:title="&lt;TABLE&gt;">
<polygon fill="yellow" stroke="none" points="157,-87.5 157,-124.5 287,-124.5 287,-87.5 157,-87.5"/>
<polygon fill="none" stroke="black" points="157,-87.5 157,-124.5 287,-124.5 287,-87.5 157,-87.5"/>
<text text-anchor="start" x="168" y="-103.3" font-family="Arial" font-weight="bold" font-size="14.00">NodeCommand</text>
<polygon fill="none" stroke="black" points="156,-87 156,-126 288,-126 288,-87 156,-87"/>
</a>
</g>
</g>
<!-- ndNodeCleanCommand -->
<g id="node4" class="node"><title>ndNodeCleanCommand</title>
<g id="a_node4_3"><a xlink:href="https://github.com/Kindelia/Kindelia//blob/master/src/cli.rs#:~:text=enum%20NodeCleanCommand" xlink:title="&lt;TABLE&gt;">
<polygon fill="yellow" stroke="none" points="323,-87.5 323,-124.5 493,-124.5 493,-87.5 323,-87.5"/>
<polygon fill="none" stroke="black" points="323,-87.5 323,-124.5 493,-124.5 493,-87.5 323,-87.5"/>
<text text-anchor="start" x="334" y="-103.3" font-family="Arial" font-weight="bold" font-size="14.00">NodeCleanCommand</text>
<polygon fill="none" stroke="black" points="322,-87 322,-126 494,-126 494,-87 322,-87"/>
</a>
</g>
</g>
<!-- ndNodeCleanBlocksCommand -->
<g id="node5" class="node"><title>ndNodeCleanBlocksCommand</title>
<g id="a_node5_4"><a xlink:href="https://github.com/Kindelia/Kindelia//blob/master/src/cli.rs#:~:text=enum%20NodeCleanBlocksCommand" xlink:title="&lt;TABLE&gt;">
<polygon fill="yellow" stroke="none" points="529,-87.5 529,-124.5 747,-124.5 747,-87.5 529,-87.5"/>
<polygon fill="none" stroke="black" points="529,-87.5 529,-124.5 747,-124.5 747,-87.5 529,-87.5"/>
<text text-anchor="start" x="540" y="-103.3" font-family="Arial" font-weight="bold" font-size="14.00">NodeCleanBlocksCommand</text>
<polygon fill="none" stroke="black" points="528,-87 528,-126 748,-126 748,-87 528,-87"/>
</a>
</g>
</g>
<!-- ndUtilCommand -->
<g id="node6" class="node"><title>ndUtilCommand</title>
<g id="a_node6_5"><a xlink:href="https://github.com/Kindelia/Kindelia//blob/master/src/cli.rs#:~:text=enum%20UtilCommand" xlink:title="&lt;TABLE&gt;">
<polygon fill="yellow" stroke="none" points="783,-87.5 783,-124.5 899,-124.5 899,-87.5 783,-87.5"/>
<polygon fill="none" stroke="black" points="783,-87.5 783,-124.5 899,-124.5 899,-87.5 783,-87.5"/>
<text text-anchor="start" x="794" y="-103.3" font-family="Arial" font-weight="bold" font-size="14.00">UtilCommand</text>
<polygon fill="none" stroke="black" points="782,-87 782,-126 900,-126 900,-87 782,-87"/>
</a>
</g>
</g>
<!-- ndCheckCommand -->
<g id="node7" class="node"><title>ndCheckCommand</title>
<g id="a_node7_6"><a xlink:href="https://github.com/Kindelia/Kindelia//blob/master/src/cli.rs#:~:text=enum%20CheckCommand" xlink:title="&lt;TABLE&gt;">
<polygon fill="yellow" stroke="none" points="935,-87.5 935,-124.5 1073,-124.5 1073,-87.5 935,-87.5"/>
<polygon fill="none" stroke="black" points="935,-87.5 935,-124.5 1073,-124.5 1073,-87.5 935,-87.5"/>
<text text-anchor="start" x="946" y="-103.3" font-family="Arial" font-weight="bold" font-size="14.00">CheckCommand</text>
<polygon fill="none" stroke="black" points="934,-87 934,-126 1074,-126 1074,-87 934,-87"/>
</a>
</g>
</g>
<!-- ndGetKind -->
<g id="node8" class="node"><title>ndGetKind</title>
<g id="a_node8_7"><a xlink:href="https://github.com/Kindelia/Kindelia//blob/master/src/cli.rs#:~:text=enum%20GetKind" xlink:title="&lt;TABLE&gt;">
<polygon fill="yellow" stroke="none" points="1110,-87.5 1110,-124.5 1189,-124.5 1189,-87.5 1110,-87.5"/>
<polygon fill="none" stroke="black" points="1110,-87.5 1110,-124.5 1189,-124.5 1189,-87.5 1110,-87.5"/>
<text text-anchor="start" x="1121" y="-103.3" font-family="Arial" font-weight="bold" font-size="14.00">GetKind</text>
<polygon fill="none" stroke="black" points="1108.5,-87 1108.5,-126 1189.5,-126 1189.5,-87 1108.5,-87"/>
</a>
</g>
</g>
<!-- ndGetFunKind -->
<g id="node9" class="node"><title>ndGetFunKind</title>
<g id="a_node9_8"><a xlink:href="https://github.com/Kindelia/Kindelia//blob/master/src/cli.rs#:~:text=enum%20GetFunKind" xlink:title="&lt;TABLE&gt;">
<polygon fill="yellow" stroke="none" points="1225,-87.5 1225,-124.5 1331,-124.5 1331,-87.5 1225,-87.5"/>
<polygon fill="none" stroke="black" points="1225,-87.5 1225,-124.5 1331,-124.5 1331,-87.5 1225,-87.5"/>
<text text-anchor="start" x="1236" y="-103.3" font-family="Arial" font-weight="bold" font-size="14.00">GetFunKind</text>
<polygon fill="none" stroke="black" points="1224,-87 1224,-126 1332,-126 1332,-87 1224,-87"/>
</a>
</g>
</g>
<!-- ndGetRegKind -->
<g id="node10" class="node"><title>ndGetRegKind</title>
<g id="a_node10_9"><a xlink:href="https://github.com/Kindelia/Kindelia//blob/master/src/cli.rs#:~:text=enum%20GetRegKind" xlink:title="&lt;TABLE&gt;">
<polygon fill="yellow" stroke="none" points="1367,-87.5 1367,-124.5 1473,-124.5 1473,-87.5 1367,-87.5"/>
<polygon fill="none" stroke="black" points="1367,-87.5 1367,-124.5 1473,-124.5 1473,-87.5 1367,-87.5"/>
<text text-anchor="start" x="1378" y="-103.3" font-family="Arial" font-weight="bold" font-size="14.00">GetRegKind</text>
<polygon fill="none" stroke="black" points="1366,-87 1366,-126 1474,-126 1474,-87 1366,-87"/>
</a>
</g>
</g>
<!-- ndGetCtrKind -->
<g id="node11" class="node"><title>ndGetCtrKind</title>
<g id="a_node11_10"><a xlink:href="https://github.com/Kindelia/Kindelia//blob/master/src/cli.rs#:~:text=enum%20GetCtrKind" xlink:title="&lt;TABLE&gt;">
<polygon fill="yellow" stroke="none" points="1509,-87.5 1509,-124.5 1609,-124.5 1609,-87.5 1509,-87.5"/>
<polygon fill="none" stroke="black" points="1509,-87.5 1509,-124.5 1609,-124.5 1609,-87.5 1509,-87.5"/>
<text text-anchor="start" x="1520" y="-103.3" font-family="Arial" font-weight="bold" font-size="14.00">GetCtrKind</text>
<polygon fill="none" stroke="black" points="1508,-87 1508,-126 1610,-126 1610,-87 1508,-87"/>
</a>
</g>
</g>
<!-- ndGetStatsKind -->
<g id="node12" class="node"><title>ndGetStatsKind</title>
<g id="a_node12_11"><a xlink:href="https://github.com/Kindelia/Kindelia//blob/master/src/cli.rs#:~:text=enum%20GetStatsKind" xlink:title="&lt;TABLE&gt;">
<polygon fill="yellow" stroke="none" points="1645,-87.5 1645,-124.5 1759,-124.5 1759,-87.5 1645,-87.5"/>
<polygon fill="none" stroke="black" points="1645,-87.5 1645,-124.5 1759,-124.5 1759,-87.5 1645,-87.5"/>
<text text-anchor="start" x="1656" y="-103.3" font-family="Arial" font-weight="bold" font-size="14.00">GetStatsKind</text>
<polygon fill="none" stroke="black" points="1644,-87 1644,-126 1760,-126 1760,-87 1644,-87"/>
</a>
</g>
</g>
<!-- ndFileInput -->
<g id="node13" class="node"><title>ndFileInput</title>
<g id="a_node13_12"><a xlink:href="https://github.com/Kindelia/Kindelia//blob/master/src/files.rs#:~:text=enum%20FileInput" xlink:title="&lt;TABLE&gt;">
<polygon fill="yellow" stroke="none" points="1796,-87.5 1796,-124.5 1879,-124.5 1879,-87.5 1796,-87.5"/>
<polygon fill="none" stroke="black" points="1796,-87.5 1796,-124.5 1879,-124.5 1879,-87.5 1796,-87.5"/>
<text text-anchor="start" x="1807" y="-103.3" font-family="Arial" font-weight="bold" font-size="14.00">FileInput</text>
<polygon fill="none" stroke="black" points="1794.5,-87 1794.5,-126 1879.5,-126 1879.5,-87 1794.5,-87"/>
</a>
</g>
</g>
<!-- ndConfigSettings -->
<g id="node14" class="node"><title>ndConfigSettings</title>
<g id="a_node14_13"><a xlink:href="https://github.com/Kindelia/Kindelia//blob/master/src/config.rs#:~:text=struct%20ConfigSettings" xlink:title="&lt;TABLE&gt;">
<polygon fill="lightblue" stroke="none" points="1915,-87.5 1915,-124.5 2040,-124.5 2040,-87.5 1915,-87.5"/>
<polygon fill="none" stroke="black" points="1915,-87.5 1915,-124.5 2040,-124.5 2040,-87.5 1915,-87.5"/>
<text text-anchor="start" x="1926" y="-103.3" font-family="Arial" font-weight="bold" font-size="14.00">ConfigSettings</text>
<polygon fill="none" stroke="black" points="1913.5,-87 1913.5,-126 2040.5,-126 2040.5,-87 1913.5,-87"/>
</a>
</g>
</g>
<!-- ndArgumentFrom -->
<g id="node15" class="node"><title>ndArgumentFrom</title>
<g id="a_node15_14"><a xlink:href="https://github.com/Kindelia/Kindelia//blob/master/src/config.rs#:~:text=trait%20ArgumentFrom" xlink:title="&lt;TABLE&gt;">
<polygon fill="lightgreen" stroke="none" points="2076,-87.5 2076,-124.5 2204,-124.5 2204,-87.5 2076,-87.5"/>
<polygon fill="none" stroke="black" points="2076,-87.5 2076,-124.5 2204,-124.5 2204,-87.5 2076,-87.5"/>
<text text-anchor="start" x="2087" y="-103.3" font-family="Arial" font-weight="bold" font-size="14.00">ArgumentFrom</text>
<polygon fill="none" stroke="black" points="2075,-87 2075,-126 2205,-126 2205,-87 2075,-87"/>
</a>
</g>
</g>
</g>
</svg>
