<?xml version="1.0" encoding="UTF-8" standalone="no"?>
<!DOCTYPE svg PUBLIC "-//W3C//DTD SVG 1.1//EN"
 "http://www.w3.org/Graphics/SVG/1.1/DTD/svg11.dtd">
<!-- Generated by graphviz version 2.38.0 (20140413.2041)
 -->
<!-- Title: ml Pages: 1 -->
<svg width="752pt" height="160pt"
 viewBox="0.00 0.00 752.00 160.00" xmlns="http://www.w3.org/2000/svg" xmlns:xlink="http://www.w3.org/1999/xlink">
<g id="graph0" class="graph" transform="scale(1 1) rotate(0) translate(4 156)">
<title>ml</title>
<polygon fill="white" stroke="none" points="-4,4 -4,-156 748,-156 748,4 -4,4"/>
<!-- ndNotFound -->
<g id="node1" class="node"><title>ndNotFound</title>
<g id="a_node1_0"><a xlink:href="https://github.com/Kindelia/Kindelia//blob/master/src/lib.rs#:~:text=struct%20NotFound" xlink:title="&lt;TABLE&gt;">
<polygon fill="lightblue" stroke="none" points="9,-102 9,-139 227,-139 227,-102 9,-102"/>
<polygon fill="none" stroke="black" points="9,-102 9,-139 227,-139 227,-102 9,-102"/>
<text text-anchor="start" x="83.5" y="-117.8" font-family="Arial" font-weight="bold" font-size="14.00">NotFound</text>
<polygon fill="white" stroke="none" points="9,-65 9,-102 227,-102 227,-65 9,-65"/>
<polygon fill="none" stroke="black" points="9,-65 9,-102 227,-102 227,-65 9,-65"/>
<text text-anchor="start" x="20" y="-79.8" font-family="Arial" font-size="14.00">&#45; message: String</text>
<polygon fill="white" stroke="none" points="9,-12 9,-65 227,-65 227,-12 9,-12"/>
<polygon fill="none" stroke="black" points="9,-12 9,-65 227,-65 227,-12 9,-12"/>
<text text-anchor="start" x="20" y="-42.8" font-family="Arial" font-size="14.00">&#45; from(message: String) &#45;&gt; Self</text>
<polygon fill="none" stroke="black" points="8,-11.5 8,-140.5 228,-140.5 228,-11.5 8,-11.5"/>
</a>
</g>
</g>
<!-- ndInvalidParameter -->
<g id="node2" class="node"><title>ndInvalidParameter</title>
<g id="a_node2_1"><a xlink:href="https://github.com/Kindelia/Kindelia//blob/master/src/lib.rs#:~:text=struct%20InvalidParameter" xlink:title="&lt;TABLE&gt;">
<polygon fill="lightblue" stroke="none" points="263,-110 263,-147 481,-147 481,-110 263,-110"/>
<polygon fill="none" stroke="black" points="263,-110 263,-147 481,-147 481,-110 263,-110"/>
<text text-anchor="start" x="313" y="-125.8" font-family="Arial" font-weight="bold" font-size="14.00">InvalidParameter</text>
<polygon fill="white" stroke="none" points="263,-58 263,-110 481,-110 481,-58 263,-58"/>
<polygon fill="none" stroke="black" points="263,-58 263,-110 481,-110 481,-58 263,-58"/>
<text text-anchor="start" x="274" y="-87.8" font-family="Arial" font-size="14.00">&#45; name: Option&lt;String&gt;</text>
<text text-anchor="start" x="274" y="-72.8" font-family="Arial" font-size="14.00">&#45; message: String</text>
<polygon fill="white" stroke="none" points="263,-5 263,-58 481,-58 481,-5 263,-5"/>
<polygon fill="none" stroke="black" points="263,-5 263,-58 481,-58 481,-5 263,-5"/>
<text text-anchor="start" x="274" y="-35.8" font-family="Arial" font-size="14.00">&#45; from(message: String) &#45;&gt; Self</text>
<polygon fill="none" stroke="black" points="262,-4 262,-148 482,-148 482,-4 262,-4"/>
</a>
</g>
</g>
<!-- ndTermTooBig -->
<g id="node3" class="node"><title>ndTermTooBig</title>
<g id="a_node3_2"><a xlink:href="https://github.com/Kindelia/Kindelia//blob/master/src/lib.rs#:~:text=struct%20TermTooBig" xlink:title="&lt;TABLE&gt;">
<polygon fill="lightblue" stroke="none" points="517,-102 517,-139 735,-139 735,-102 517,-102"/>
<polygon fill="none" stroke="black" points="517,-102 517,-139 735,-139 735,-102 517,-102"/>
<text text-anchor="start" x="582.5" y="-117.8" font-family="Arial" font-weight="bold" font-size="14.00">TermTooBig</text>
<polygon fill="white" stroke="none" points="517,-65 517,-102 735,-102 735,-65 517,-65"/>
<polygon fill="none" stroke="black" points="517,-65 517,-102 735,-102 735,-65 517,-65"/>
<text text-anchor="start" x="528" y="-79.8" font-family="Arial" font-size="14.00">&#45; message: String</text>
<polygon fill="white" stroke="none" points="517,-12 517,-65 735,-65 735,-12 517,-12"/>
<polygon fill="none" stroke="black" points="517,-12 517,-65 735,-65 735,-12 517,-12"/>
<text text-anchor="start" x="528" y="-42.8" font-family="Arial" font-size="14.00">&#45; from(message: String) &#45;&gt; Self</text>
<polygon fill="none" stroke="black" points="516,-11.5 516,-140.5 736,-140.5 736,-11.5 516,-11.5"/>
</a>
</g>
</g>
</g>
</svg>
