<?xml version="1.0" encoding="UTF-8" standalone="no"?>
<!DOCTYPE svg PUBLIC "-//W3C//DTD SVG 1.1//EN"
 "http://www.w3.org/Graphics/SVG/1.1/DTD/svg11.dtd">
<!-- Generated by graphviz version 2.38.0 (20140413.2041)
 -->
<!-- Title: ml Pages: 1 -->
<svg width="2336pt" height="437pt"
 viewBox="0.00 0.00 2336.00 437.00" xmlns="http://www.w3.org/2000/svg" xmlns:xlink="http://www.w3.org/1999/xlink">
<g id="graph0" class="graph" transform="scale(1 1) rotate(0) translate(4 433)">
<title>ml</title>
<polygon fill="white" stroke="none" points="-4,4 -4,-433 2332,-433 2332,4 -4,4"/>
<!-- ndCli -->
<g id="node1" class="node"><title>ndCli</title>
<g id="a_node1_0"><a xlink:href="https://github.com/Kindelia/Kindelia//blob/master/src/cli.rs#:~:text=struct%20Cli" xlink:title="&lt;TABLE&gt;">
<polygon fill="lightblue" stroke="none" points="9,-72 9,-109 199,-109 199,-72 9,-72"/>
<polygon fill="none" stroke="black" points="9,-72 9,-109 199,-109 199,-72 9,-72"/>
<text text-anchor="start" x="94.5" y="-87.8" font-family="Arial" font-weight="bold" font-size="14.00">Cli</text>
<polygon fill="white" stroke="none" points="9,-5 9,-72 199,-72 199,-5 9,-5"/>
<polygon fill="none" stroke="black" points="9,-5 9,-72 199,-72 199,-5 9,-5"/>
<text text-anchor="start" x="20" y="-49.8" font-family="Arial" font-size="14.00">+ command: CliCommand</text>
<text text-anchor="start" x="20" y="-34.8" font-family="Arial" font-size="14.00">+ config: Option&lt;PathBuf&gt;</text>
<text text-anchor="start" x="20" y="-19.8" font-family="Arial" font-size="14.00">+ api: Option&lt;String&gt;</text>
<polygon fill="none" stroke="black" points="8,-4 8,-110 200,-110 200,-4 8,-4"/>
</a>
</g>
</g>
<!-- ndCliCommand -->
<g id="node2" class="node"><title>ndCliCommand</title>
<g id="a_node2_1"><a xlink:href="https://github.com/Kindelia/Kindelia//blob/master/src/cli.rs#:~:text=enum%20CliCommand" xlink:title="&lt;TABLE&gt;">
<polygon fill="yellow" stroke="none" points="48,-386.5 48,-423.5 160,-423.5 160,-386.5 48,-386.5"/>
<polygon fill="none" stroke="black" points="48,-386.5 48,-423.5 160,-423.5 160,-386.5 48,-386.5"/>
<text text-anchor="start" x="59" y="-402.3" font-family="Arial" font-weight="bold" font-size="14.00">CliCommand</text>
<polygon fill="white" stroke="none" points="48,-154.5 48,-386.5 160,-386.5 160,-154.5 48,-154.5"/>
<polygon fill="none" stroke="black" points="48,-154.5 48,-386.5 160,-386.5 160,-154.5 48,-154.5"/>
<text text-anchor="start" x="59" y="-364.3" font-family="Arial" font-size="14.00">Test</text>
<text text-anchor="start" x="59" y="-349.3" font-family="Arial" font-size="14.00">Check</text>
<text text-anchor="start" x="59" y="-334.3" font-family="Arial" font-size="14.00">Serialize</text>
<text text-anchor="start" x="59" y="-319.3" font-family="Arial" font-size="14.00">Deserialize</text>
<text text-anchor="start" x="59" y="-304.3" font-family="Arial" font-size="14.00">Unserialize</text>
<text text-anchor="start" x="59" y="-289.3" font-family="Arial" font-size="14.00">Sign</text>
<text text-anchor="start" x="59" y="-274.3" font-family="Arial" font-size="14.00">RunRemote</text>
<text text-anchor="start" x="59" y="-259.3" font-family="Arial" font-size="14.00">Publish</text>
<text text-anchor="start" x="59" y="-244.3" font-family="Arial" font-size="14.00">Post</text>
<text text-anchor="start" x="59" y="-229.3" font-family="Arial" font-size="14.00">Get</text>
<text text-anchor="start" x="59" y="-214.3" font-family="Arial" font-size="14.00">Init</text>
<text text-anchor="start" x="59" y="-199.3" font-family="Arial" font-size="14.00">Node</text>
<text text-anchor="start" x="59" y="-184.3" font-family="Arial" font-size="14.00">Completion</text>
<text text-anchor="start" x="59" y="-169.3" font-family="Arial" font-size="14.00">Util</text>
<polygon fill="none" stroke="black" points="47,-154 47,-425 161,-425 161,-154 47,-154"/>
</a>
</g>
</g>
<!-- ndCliCommand&#45;&gt;ndCli -->
<g id="edge1" class="edge"><title>ndCliCommand&#45;&gt;ndCli</title>
<path fill="none" stroke="black" d="M104,-149.762C104,-141.663 104,-133.725 104,-126.119"/>
<polygon fill="black" stroke="black" points="104,-126.065 100,-120.065 104,-114.065 108,-120.065 104,-126.065"/>
</g>
<!-- ndNodeCommand -->
<g id="node3" class="node"><title>ndNodeCommand</title>
<g id="a_node3_2"><a xlink:href="https://github.com/Kindelia/Kindelia//blob/master/src/cli.rs#:~:text=enum%20NodeCommand" xlink:title="&lt;TABLE&gt;">
<polygon fill="yellow" stroke="none" points="196,-296.5 196,-333.5 326,-333.5 326,-296.5 196,-296.5"/>
<polygon fill="none" stroke="black" points="196,-296.5 196,-333.5 326,-333.5 326,-296.5 196,-296.5"/>
<text text-anchor="start" x="207" y="-312.3" font-family="Arial" font-weight="bold" font-size="14.00">NodeCommand</text>
<polygon fill="white" stroke="none" points="196,-244.5 196,-296.5 326,-296.5 326,-244.5 196,-244.5"/>
<polygon fill="none" stroke="black" points="196,-244.5 196,-296.5 326,-296.5 326,-244.5 196,-244.5"/>
<text text-anchor="start" x="207" y="-274.3" font-family="Arial" font-size="14.00">Clean</text>
<text text-anchor="start" x="207" y="-259.3" font-family="Arial" font-size="14.00">Start</text>
<polygon fill="none" stroke="black" points="195,-244 195,-335 327,-335 327,-244 195,-244"/>
</a>
</g>
</g>
<!-- ndNodeCleanCommand -->
<g id="node4" class="node"><title>ndNodeCleanCommand</title>
<g id="a_node4_3"><a xlink:href="https://github.com/Kindelia/Kindelia//blob/master/src/cli.rs#:~:text=enum%20NodeCleanCommand" xlink:title="&lt;TABLE&gt;">
<polygon fill="yellow" stroke="none" points="362,-296.5 362,-333.5 532,-333.5 532,-296.5 362,-296.5"/>
<polygon fill="none" stroke="black" points="362,-296.5 362,-333.5 532,-333.5 532,-296.5 362,-296.5"/>
<text text-anchor="start" x="373" y="-312.3" font-family="Arial" font-weight="bold" font-size="14.00">NodeCleanCommand</text>
<polygon fill="white" stroke="none" points="362,-244.5 362,-296.5 532,-296.5 532,-244.5 362,-244.5"/>
<polygon fill="none" stroke="black" points="362,-244.5 362,-296.5 532,-296.5 532,-244.5 362,-244.5"/>
<text text-anchor="start" x="373" y="-274.3" font-family="Arial" font-size="14.00">All</text>
<text text-anchor="start" x="373" y="-259.3" font-family="Arial" font-size="14.00">Blocks</text>
<polygon fill="none" stroke="black" points="361,-244 361,-335 533,-335 533,-244 361,-244"/>
</a>
</g>
</g>
<!-- ndNodeCleanBlocksCommand -->
<g id="node5" class="node"><title>ndNodeCleanBlocksCommand</title>
<g id="a_node5_4"><a xlink:href="https://github.com/Kindelia/Kindelia//blob/master/src/cli.rs#:~:text=enum%20NodeCleanBlocksCommand" xlink:title="&lt;TABLE&gt;">
<polygon fill="yellow" stroke="none" points="568,-304.5 568,-341.5 786,-341.5 786,-304.5 568,-304.5"/>
<polygon fill="none" stroke="black" points="568,-304.5 568,-341.5 786,-341.5 786,-304.5 568,-304.5"/>
<text text-anchor="start" x="579" y="-320.3" font-family="Arial" font-weight="bold" font-size="14.00">NodeCleanBlocksCommand</text>
<polygon fill="white" stroke="none" points="568,-237.5 568,-304.5 786,-304.5 786,-237.5 568,-237.5"/>
<polygon fill="none" stroke="black" points="568,-237.5 568,-304.5 786,-304.5 786,-237.5 568,-237.5"/>
<text text-anchor="start" x="579" y="-282.3" font-family="Arial" font-size="14.00">All</text>
<text text-anchor="start" x="579" y="-267.3" font-family="Arial" font-size="14.00">Half</text>
<text text-anchor="start" x="579" y="-252.3" font-family="Arial" font-size="14.00">N</text>
<polygon fill="none" stroke="black" points="567,-236.5 567,-342.5 787,-342.5 787,-236.5 567,-236.5"/>
</a>
</g>
</g>
<!-- ndUtilCommand -->
<g id="node6" class="node"><title>ndUtilCommand</title>
<g id="a_node6_5"><a xlink:href="https://github.com/Kindelia/Kindelia//blob/master/src/cli.rs#:~:text=enum%20UtilCommand" xlink:title="&lt;TABLE&gt;">
<polygon fill="yellow" stroke="none" points="822,-289.5 822,-326.5 938,-326.5 938,-289.5 822,-289.5"/>
<polygon fill="none" stroke="black" points="822,-289.5 822,-326.5 938,-326.5 938,-289.5 822,-289.5"/>
<text text-anchor="start" x="833" y="-305.3" font-family="Arial" font-weight="bold" font-size="14.00">UtilCommand</text>
<polygon fill="white" stroke="none" points="822,-252.5 822,-289.5 938,-289.5 938,-252.5 822,-252.5"/>
<polygon fill="none" stroke="black" points="822,-252.5 822,-289.5 938,-289.5 938,-252.5 822,-252.5"/>
<text text-anchor="start" x="833" y="-267.3" font-family="Arial" font-size="14.00">DecodeName</text>
<polygon fill="none" stroke="black" points="821,-251.5 821,-327.5 939,-327.5 939,-251.5 821,-251.5"/>
</a>
</g>
</g>
<!-- ndCheckCommand -->
<g id="node7" class="node"><title>ndCheckCommand</title>
<g id="a_node7_6"><a xlink:href="https://github.com/Kindelia/Kindelia//blob/master/src/cli.rs#:~:text=enum%20CheckCommand" xlink:title="&lt;TABLE&gt;">
<polygon fill="yellow" stroke="none" points="974,-289.5 974,-326.5 1112,-326.5 1112,-289.5 974,-289.5"/>
<polygon fill="none" stroke="black" points="974,-289.5 974,-326.5 1112,-326.5 1112,-289.5 974,-289.5"/>
<text text-anchor="start" x="985" y="-305.3" font-family="Arial" font-weight="bold" font-size="14.00">CheckCommand</text>
<polygon fill="white" stroke="none" points="974,-252.5 974,-289.5 1112,-289.5 1112,-252.5 974,-252.5"/>
<polygon fill="none" stroke="black" points="974,-252.5 974,-289.5 1112,-289.5 1112,-252.5 974,-252.5"/>
<text text-anchor="start" x="985" y="-267.3" font-family="Arial" font-size="14.00">Transaction</text>
<polygon fill="none" stroke="black" points="973,-251.5 973,-327.5 1113,-327.5 1113,-251.5 973,-251.5"/>
</a>
</g>
</g>
<!-- ndGetKind -->
<g id="node8" class="node"><title>ndGetKind</title>
<g id="a_node8_7"><a xlink:href="https://github.com/Kindelia/Kindelia//blob/master/src/cli.rs#:~:text=enum%20GetKind" xlink:title="&lt;TABLE&gt;">
<polygon fill="yellow" stroke="none" points="1148,-334.5 1148,-371.5 1238,-371.5 1238,-334.5 1148,-334.5"/>
<polygon fill="none" stroke="black" points="1148,-334.5 1148,-371.5 1238,-371.5 1238,-334.5 1148,-334.5"/>
<text text-anchor="start" x="1164.5" y="-350.3" font-family="Arial" font-weight="bold" font-size="14.00">GetKind</text>
<polygon fill="white" stroke="none" points="1148,-207.5 1148,-334.5 1238,-334.5 1238,-207.5 1148,-207.5"/>
<polygon fill="none" stroke="black" points="1148,-207.5 1148,-334.5 1238,-334.5 1238,-207.5 1148,-207.5"/>
<text text-anchor="start" x="1159" y="-312.3" font-family="Arial" font-size="14.00">Ctr</text>
<text text-anchor="start" x="1159" y="-297.3" font-family="Arial" font-size="14.00">Block</text>
<text text-anchor="start" x="1159" y="-282.3" font-family="Arial" font-size="14.00">Fun</text>
<text text-anchor="start" x="1159" y="-267.3" font-family="Arial" font-size="14.00">Reg</text>
<text text-anchor="start" x="1159" y="-252.3" font-family="Arial" font-size="14.00">BlockHash</text>
<text text-anchor="start" x="1159" y="-237.3" font-family="Arial" font-size="14.00">Stats</text>
<text text-anchor="start" x="1159" y="-222.3" font-family="Arial" font-size="14.00">Peers</text>
<polygon fill="none" stroke="black" points="1147,-206.5 1147,-372.5 1239,-372.5 1239,-206.5 1147,-206.5"/>
</a>
</g>
</g>
<!-- ndGetFunKind -->
<g id="node9" class="node"><title>ndGetFunKind</title>
<g id="a_node9_8"><a xlink:href="https://github.com/Kindelia/Kindelia//blob/master/src/cli.rs#:~:text=enum%20GetFunKind" xlink:title="&lt;TABLE&gt;">
<polygon fill="yellow" stroke="none" points="1274,-304.5 1274,-341.5 1380,-341.5 1380,-304.5 1274,-304.5"/>
<polygon fill="none" stroke="black" points="1274,-304.5 1274,-341.5 1380,-341.5 1380,-304.5 1274,-304.5"/>
<text text-anchor="start" x="1285" y="-320.3" font-family="Arial" font-weight="bold" font-size="14.00">GetFunKind</text>
<polygon fill="white" stroke="none" points="1274,-237.5 1274,-304.5 1380,-304.5 1380,-237.5 1274,-237.5"/>
<polygon fill="none" stroke="black" points="1274,-237.5 1274,-304.5 1380,-304.5 1380,-237.5 1274,-237.5"/>
<text text-anchor="start" x="1285" y="-282.3" font-family="Arial" font-size="14.00">Code</text>
<text text-anchor="start" x="1285" y="-267.3" font-family="Arial" font-size="14.00">State</text>
<text text-anchor="start" x="1285" y="-252.3" font-family="Arial" font-size="14.00">Slots</text>
<polygon fill="none" stroke="black" points="1273,-236.5 1273,-342.5 1381,-342.5 1381,-236.5 1273,-236.5"/>
</a>
</g>
</g>
<!-- ndGetRegKind -->
<g id="node10" class="node"><title>ndGetRegKind</title>
<g id="a_node10_9"><a xlink:href="https://github.com/Kindelia/Kindelia//blob/master/src/cli.rs#:~:text=enum%20GetRegKind" xlink:title="&lt;TABLE&gt;">
<polygon fill="yellow" stroke="none" points="1416,-296.5 1416,-333.5 1522,-333.5 1522,-296.5 1416,-296.5"/>
<polygon fill="none" stroke="black" points="1416,-296.5 1416,-333.5 1522,-333.5 1522,-296.5 1416,-296.5"/>
<text text-anchor="start" x="1427" y="-312.3" font-family="Arial" font-weight="bold" font-size="14.00">GetRegKind</text>
<polygon fill="white" stroke="none" points="1416,-244.5 1416,-296.5 1522,-296.5 1522,-244.5 1416,-244.5"/>
<polygon fill="none" stroke="black" points="1416,-244.5 1416,-296.5 1522,-296.5 1522,-244.5 1416,-244.5"/>
<text text-anchor="start" x="1427" y="-274.3" font-family="Arial" font-size="14.00">Owner</text>
<text text-anchor="start" x="1427" y="-259.3" font-family="Arial" font-size="14.00">List</text>
<polygon fill="none" stroke="black" points="1415,-244 1415,-335 1523,-335 1523,-244 1415,-244"/>
</a>
</g>
</g>
<!-- ndGetCtrKind -->
<g id="node11" class="node"><title>ndGetCtrKind</title>
<g id="a_node11_10"><a xlink:href="https://github.com/Kindelia/Kindelia//blob/master/src/cli.rs#:~:text=enum%20GetCtrKind" xlink:title="&lt;TABLE&gt;">
<polygon fill="yellow" stroke="none" points="1558,-296.5 1558,-333.5 1658,-333.5 1658,-296.5 1558,-296.5"/>
<polygon fill="none" stroke="black" points="1558,-296.5 1558,-333.5 1658,-333.5 1658,-296.5 1558,-296.5"/>
<text text-anchor="start" x="1569" y="-312.3" font-family="Arial" font-weight="bold" font-size="14.00">GetCtrKind</text>
<polygon fill="white" stroke="none" points="1558,-244.5 1558,-296.5 1658,-296.5 1658,-244.5 1558,-244.5"/>
<polygon fill="none" stroke="black" points="1558,-244.5 1558,-296.5 1658,-296.5 1658,-244.5 1558,-244.5"/>
<text text-anchor="start" x="1569" y="-274.3" font-family="Arial" font-size="14.00">Code</text>
<text text-anchor="start" x="1569" y="-259.3" font-family="Arial" font-size="14.00">Arity</text>
<polygon fill="none" stroke="black" points="1557,-244 1557,-335 1659,-335 1659,-244 1557,-244"/>
</a>
</g>
</g>
<!-- ndGetStatsKind -->
<g id="node12" class="node"><title>ndGetStatsKind</title>
<g id="a_node12_11"><a xlink:href="https://github.com/Kindelia/Kindelia//blob/master/src/cli.rs#:~:text=enum%20GetStatsKind" xlink:title="&lt;TABLE&gt;">
<polygon fill="yellow" stroke="none" points="1694,-326.5 1694,-363.5 1808,-363.5 1808,-326.5 1694,-326.5"/>
<polygon fill="none" stroke="black" points="1694,-326.5 1694,-363.5 1808,-363.5 1808,-326.5 1694,-326.5"/>
<text text-anchor="start" x="1705" y="-342.3" font-family="Arial" font-weight="bold" font-size="14.00">GetStatsKind</text>
<polygon fill="white" stroke="none" points="1694,-214.5 1694,-326.5 1808,-326.5 1808,-214.5 1694,-214.5"/>
<polygon fill="none" stroke="black" points="1694,-214.5 1694,-326.5 1808,-326.5 1808,-214.5 1694,-214.5"/>
<text text-anchor="start" x="1705" y="-304.3" font-family="Arial" font-size="14.00">Tick</text>
<text text-anchor="start" x="1705" y="-289.3" font-family="Arial" font-size="14.00">Mana</text>
<text text-anchor="start" x="1705" y="-274.3" font-family="Arial" font-size="14.00">Space</text>
<text text-anchor="start" x="1705" y="-259.3" font-family="Arial" font-size="14.00">FunCount</text>
<text text-anchor="start" x="1705" y="-244.3" font-family="Arial" font-size="14.00">CtrCount</text>
<text text-anchor="start" x="1705" y="-229.3" font-family="Arial" font-size="14.00">RegCount</text>
<polygon fill="none" stroke="black" points="1693,-214 1693,-365 1809,-365 1809,-214 1693,-214"/>
</a>
</g>
</g>
<!-- ndFileInput -->
<g id="node13" class="node"><title>ndFileInput</title>
<g id="a_node13_12"><a xlink:href="https://github.com/Kindelia/Kindelia//blob/master/src/files.rs#:~:text=enum%20FileInput" xlink:title="&lt;TABLE&gt;">
<polygon fill="yellow" stroke="none" points="1845,-296.5 1845,-333.5 1928,-333.5 1928,-296.5 1845,-296.5"/>
<polygon fill="none" stroke="black" points="1845,-296.5 1845,-333.5 1928,-333.5 1928,-296.5 1845,-296.5"/>
<text text-anchor="start" x="1856" y="-312.3" font-family="Arial" font-weight="bold" font-size="14.00">FileInput</text>
<polygon fill="white" stroke="none" points="1845,-244.5 1845,-296.5 1928,-296.5 1928,-244.5 1845,-244.5"/>
<polygon fill="none" stroke="black" points="1845,-244.5 1845,-296.5 1928,-296.5 1928,-244.5 1845,-244.5"/>
<text text-anchor="start" x="1856" y="-274.3" font-family="Arial" font-size="14.00">Stdin</text>
<text text-anchor="start" x="1856" y="-259.3" font-family="Arial" font-size="14.00">Path</text>
<polygon fill="none" stroke="black" points="1843.5,-244 1843.5,-335 1928.5,-335 1928.5,-244 1843.5,-244"/>
</a>
</g>
</g>
<!-- ndConfigSettings -->
<g id="node14" class="node"><title>ndConfigSettings</title>
<g id="a_node14_13"><a xlink:href="https://github.com/Kindelia/Kindelia//blob/master/src/config.rs#:~:text=struct%20ConfigSettings" xlink:title="&lt;TABLE&gt;">
<polygon fill="lightblue" stroke="none" points="1964,-304.5 1964,-341.5 2155,-341.5 2155,-304.5 1964,-304.5"/>
<polygon fill="none" stroke="black" points="1964,-304.5 1964,-341.5 2155,-341.5 2155,-304.5 1964,-304.5"/>
<text text-anchor="start" x="2008" y="-320.3" font-family="Arial" font-weight="bold" font-size="14.00">ConfigSettings</text>
<polygon fill="white" stroke="none" points="1964,-237.5 1964,-304.5 2155,-304.5 2155,-237.5 1964,-237.5"/>
<polygon fill="none" stroke="black" points="1964,-237.5 1964,-304.5 2155,-304.5 2155,-237.5 1964,-237.5"/>
<text text-anchor="start" x="1975" y="-282.3" font-family="Arial" font-size="14.00">&#45; env: Option&lt;&amp;&#39;static str&gt;</text>
<text text-anchor="start" x="1975" y="-267.3" font-family="Arial" font-size="14.00">&#45; prop: Option&lt;&amp;&#39;static str&gt;</text>
<text text-anchor="start" x="1975" y="-252.3" font-family="Arial" font-size="14.00">&#45; default_value: F</text>
<polygon fill="none" stroke="black" points="1962.5,-236.5 1962.5,-342.5 2155.5,-342.5 2155.5,-236.5 1962.5,-236.5"/>
</a>
</g>
</g>
<!-- ndArgumentFrom -->
<g id="node15" class="node"><title>ndArgumentFrom</title>
<g id="a_node15_14"><a xlink:href="https://github.com/Kindelia/Kindelia//blob/master/src/config.rs#:~:text=trait%20ArgumentFrom" xlink:title="&lt;TABLE&gt;">
<polygon fill="lightgreen" stroke="none" points="2191,-270.5 2191,-307.5 2319,-307.5 2319,-270.5 2191,-270.5"/>
<polygon fill="none" stroke="black" points="2191,-270.5 2191,-307.5 2319,-307.5 2319,-270.5 2191,-270.5"/>
<text text-anchor="start" x="2202" y="-286.3" font-family="Arial" font-weight="bold" font-size="14.00">ArgumentFrom</text>
<polygon fill="none" stroke="black" points="2190,-270 2190,-309 2320,-309 2320,-270 2190,-270"/>
</a>
</g>
</g>
</g>
</svg>
