<?xml version="1.0" encoding="UTF-8" standalone="no"?>
<!DOCTYPE svg PUBLIC "-//W3C//DTD SVG 1.1//EN"
 "http://www.w3.org/Graphics/SVG/1.1/DTD/svg11.dtd">
<!-- Generated by graphviz version 2.38.0 (20140413.2041)
 -->
<!-- Title: ml Pages: 1 -->
<svg width="536pt" height="107pt"
 viewBox="0.00 0.00 536.00 107.00" xmlns="http://www.w3.org/2000/svg" xmlns:xlink="http://www.w3.org/1999/xlink">
<g id="graph0" class="graph" transform="scale(1 1) rotate(0) translate(4 103)">
<title>ml</title>
<polygon fill="white" stroke="none" points="-4,4 -4,-103 532,-103 532,4 -4,4"/>
<!-- ndNotFound -->
<g id="node1" class="node"><title>ndNotFound</title>
<g id="a_node1_0"><a xlink:href="https://github.com/Kindelia/Kindelia//blob/master/src/lib.rs#:~:text=struct%20NotFound" xlink:title="&lt;TABLE&gt;">
<polygon fill="lightblue" stroke="none" points="9,-49.5 9,-86.5 143,-86.5 143,-49.5 9,-49.5"/>
<polygon fill="none" stroke="black" points="9,-49.5 9,-86.5 143,-86.5 143,-49.5 9,-49.5"/>
<text text-anchor="start" x="41.5" y="-65.3" font-family="Arial" font-weight="bold" font-size="14.00">NotFound</text>
<polygon fill="white" stroke="none" points="9,-12.5 9,-49.5 143,-49.5 143,-12.5 9,-12.5"/>
<polygon fill="none" stroke="black" points="9,-12.5 9,-49.5 143,-49.5 143,-12.5 9,-12.5"/>
<text text-anchor="start" x="20" y="-27.3" font-family="Arial" font-size="14.00">&#45; message: String</text>
<polygon fill="none" stroke="black" points="8,-11.5 8,-87.5 144,-87.5 144,-11.5 8,-11.5"/>
</a>
</g>
</g>
<!-- ndInvalidParameter -->
<g id="node2" class="node"><title>ndInvalidParameter</title>
<g id="a_node2_1"><a xlink:href="https://github.com/Kindelia/Kindelia//blob/master/src/lib.rs#:~:text=struct%20InvalidParameter" xlink:title="&lt;TABLE&gt;">
<polygon fill="lightblue" stroke="none" points="180,-56.5 180,-93.5 349,-93.5 349,-56.5 180,-56.5"/>
<polygon fill="none" stroke="black" points="180,-56.5 180,-93.5 349,-93.5 349,-56.5 180,-56.5"/>
<text text-anchor="start" x="205.5" y="-72.3" font-family="Arial" font-weight="bold" font-size="14.00">InvalidParameter</text>
<polygon fill="white" stroke="none" points="180,-4.5 180,-56.5 349,-56.5 349,-4.5 180,-4.5"/>
<polygon fill="none" stroke="black" points="180,-4.5 180,-56.5 349,-56.5 349,-4.5 180,-4.5"/>
<text text-anchor="start" x="191" y="-34.3" font-family="Arial" font-size="14.00">&#45; name: Option&lt;String&gt;</text>
<text text-anchor="start" x="191" y="-19.3" font-family="Arial" font-size="14.00">&#45; message: String</text>
<polygon fill="none" stroke="black" points="178.5,-4 178.5,-95 349.5,-95 349.5,-4 178.5,-4"/>
</a>
</g>
</g>
<!-- ndTermTooBig -->
<g id="node3" class="node"><title>ndTermTooBig</title>
<g id="a_node3_2"><a xlink:href="https://github.com/Kindelia/Kindelia//blob/master/src/lib.rs#:~:text=struct%20TermTooBig" xlink:title="&lt;TABLE&gt;">
<polygon fill="lightblue" stroke="none" points="385,-49.5 385,-86.5 519,-86.5 519,-49.5 385,-49.5"/>
<polygon fill="none" stroke="black" points="385,-49.5 385,-86.5 519,-86.5 519,-49.5 385,-49.5"/>
<text text-anchor="start" x="408.5" y="-65.3" font-family="Arial" font-weight="bold" font-size="14.00">TermTooBig</text>
<polygon fill="white" stroke="none" points="385,-12.5 385,-49.5 519,-49.5 519,-12.5 385,-12.5"/>
<polygon fill="none" stroke="black" points="385,-12.5 385,-49.5 519,-49.5 519,-12.5 385,-12.5"/>
<text text-anchor="start" x="396" y="-27.3" font-family="Arial" font-size="14.00">&#45; message: String</text>
<polygon fill="none" stroke="black" points="384,-11.5 384,-87.5 520,-87.5 520,-11.5 384,-11.5"/>
</a>
</g>
</g>
</g>
</svg>
