<?xml version="1.0" encoding="UTF-8" standalone="no"?>
<!DOCTYPE svg PUBLIC "-//W3C//DTD SVG 1.1//EN"
 "http://www.w3.org/Graphics/SVG/1.1/DTD/svg11.dtd">
<!-- Generated by graphviz version 2.38.0 (20140413.2041)
 -->
<!-- Title: ml Pages: 1 -->
<svg width="366pt" height="92pt"
 viewBox="0.00 0.00 366.00 92.00" xmlns="http://www.w3.org/2000/svg" xmlns:xlink="http://www.w3.org/1999/xlink">
<g id="graph0" class="graph" transform="scale(1 1) rotate(0) translate(4 88)">
<title>ml</title>
<polygon fill="white" stroke="none" points="-4,4 -4,-88 362,-88 362,4 -4,4"/>
<!-- ndQueryParams -->
<g id="node1" class="node"><title>ndQueryParams</title>
<g id="a_node1_0"><a xlink:href="https://github.com/Kindelia/Kindelia//blob/master/src/lib.rs#:~:text=struct%20QueryParams" xlink:title="&lt;TABLE&gt;">
<polygon fill="lightblue" stroke="none" points="9.5,-42 9.5,-79 170.5,-79 170.5,-42 9.5,-42"/>
<polygon fill="none" stroke="black" points="9.5,-42 9.5,-79 170.5,-79 170.5,-42 9.5,-42"/>
<text text-anchor="start" x="41.5" y="-57.8" font-family="Arial" font-weight="bold" font-size="14.00">QueryParams</text>
<polygon fill="white" stroke="none" points="9.5,-5 9.5,-42 170.5,-42 170.5,-5 9.5,-5"/>
<polygon fill="none" stroke="black" points="9.5,-5 9.5,-42 170.5,-42 170.5,-5 9.5,-5"/>
<text text-anchor="start" x="20.5" y="-19.8" font-family="Arial" font-size="14.00">&#45; tags: Option&lt;String&gt;</text>
<polygon fill="none" stroke="black" points="8,-4 8,-80 171,-80 171,-4 8,-4"/>
</a>
</g>
</g>
<!-- ndQuery -->
<g id="node2" class="node"><title>ndQuery</title>
<g id="a_node2_1"><a xlink:href="https://github.com/Kindelia/Kindelia//blob/master/src/lib.rs#:~:text=struct%20Query" xlink:title="&lt;TABLE&gt;">
<polygon fill="lightblue" stroke="none" points="206.5,-42 206.5,-79 349.5,-79 349.5,-42 206.5,-42"/>
<polygon fill="none" stroke="black" points="206.5,-42 206.5,-79 349.5,-79 349.5,-42 206.5,-42"/>
<text text-anchor="start" x="256.5" y="-57.8" font-family="Arial" font-weight="bold" font-size="14.00">Query</text>
<polygon fill="white" stroke="none" points="206.5,-5 206.5,-42 349.5,-42 349.5,-5 206.5,-5"/>
<polygon fill="none" stroke="black" points="206.5,-5 206.5,-42 349.5,-42 349.5,-5 206.5,-5"/>
<text text-anchor="start" x="217.5" y="-19.8" font-family="Arial" font-size="14.00">&#45; tags: Vec&lt;String&gt;</text>
<polygon fill="none" stroke="black" points="205,-4 205,-80 350,-80 350,-4 205,-4"/>
</a>
</g>
</g>
</g>
</svg>
