<?xml version="1.0" encoding="UTF-8" standalone="no"?>
<!DOCTYPE svg PUBLIC "-//W3C//DTD SVG 1.1//EN"
 "http://www.w3.org/Graphics/SVG/1.1/DTD/svg11.dtd">
<!-- Generated by graphviz version 2.38.0 (20140413.2041)
 -->
<!-- Title: ml Pages: 1 -->
<svg width="439pt" height="55pt"
 viewBox="0.00 0.00 439.00 55.00" xmlns="http://www.w3.org/2000/svg" xmlns:xlink="http://www.w3.org/1999/xlink">
<g id="graph0" class="graph" transform="scale(1 1) rotate(0) translate(4 51)">
<title>ml</title>
<polygon fill="white" stroke="none" points="-4,4 -4,-51 435,-51 435,4 -4,4"/>
<!-- ndNotFound -->
<g id="node1" class="node"><title>ndNotFound</title>
<g id="a_node1_0"><a xlink:href="https://github.com/Kindelia/Kindelia//blob/master/src/lib.rs#:~:text=struct%20NotFound" xlink:title="&lt;TABLE&gt;">
<polygon fill="lightblue" stroke="none" points="9.5,-4.5 9.5,-41.5 100.5,-41.5 100.5,-4.5 9.5,-4.5"/>
<polygon fill="none" stroke="black" points="9.5,-4.5 9.5,-41.5 100.5,-41.5 100.5,-4.5 9.5,-4.5"/>
<text text-anchor="start" x="20.5" y="-20.3" font-family="Arial" font-weight="bold" font-size="14.00">NotFound</text>
<polygon fill="none" stroke="black" points="8,-4 8,-43 101,-43 101,-4 8,-4"/>
</a>
</g>
</g>
<!-- ndInvalidParameter -->
<g id="node2" class="node"><title>ndInvalidParameter</title>
<g id="a_node2_1"><a xlink:href="https://github.com/Kindelia/Kindelia//blob/master/src/lib.rs#:~:text=struct%20InvalidParameter" xlink:title="&lt;TABLE&gt;">
<polygon fill="lightblue" stroke="none" points="136.5,-4.5 136.5,-41.5 276.5,-41.5 276.5,-4.5 136.5,-4.5"/>
<polygon fill="none" stroke="black" points="136.5,-4.5 136.5,-41.5 276.5,-41.5 276.5,-4.5 136.5,-4.5"/>
<text text-anchor="start" x="147.5" y="-20.3" font-family="Arial" font-weight="bold" font-size="14.00">InvalidParameter</text>
<polygon fill="none" stroke="black" points="135.5,-4 135.5,-43 277.5,-43 277.5,-4 135.5,-4"/>
</a>
</g>
</g>
<!-- ndTermTooBig -->
<g id="node3" class="node"><title>ndTermTooBig</title>
<g id="a_node3_2"><a xlink:href="https://github.com/Kindelia/Kindelia//blob/master/src/lib.rs#:~:text=struct%20TermTooBig" xlink:title="&lt;TABLE&gt;">
<polygon fill="lightblue" stroke="none" points="313.5,-4.5 313.5,-41.5 422.5,-41.5 422.5,-4.5 313.5,-4.5"/>
<polygon fill="none" stroke="black" points="313.5,-4.5 313.5,-41.5 422.5,-41.5 422.5,-4.5 313.5,-4.5"/>
<text text-anchor="start" x="324.5" y="-20.3" font-family="Arial" font-weight="bold" font-size="14.00">TermTooBig</text>
<polygon fill="none" stroke="black" points="312,-4 312,-43 423,-43 423,-4 312,-4"/>
</a>
</g>
</g>
</g>
</svg>
